<svg width="26" height="19" viewBox="0 0 26 19" fill="none" xmlns="http://www.w3.org/2000/svg">
<path fill-rule="evenodd" clip-rule="evenodd" d="M0.199951 9.16C0.199951 8.45308 0.773027 7.88 1.47995 7.88H24.52C25.2269 7.88 25.7999 8.45308 25.7999 9.16C25.7999 9.86693 25.2269 10.44 24.52 10.44H1.47995C0.773027 10.44 0.199951 9.86693 0.199951 9.16Z" fill="#00587A"/>
<path fill-rule="evenodd" clip-rule="evenodd" d="M0.199951 1.48C0.199951 0.773076 0.773027 0.200001 1.47995 0.200001H24.52C25.2269 0.200001 25.7999 0.773076 25.7999 1.48C25.7999 2.18693 25.2269 2.76 24.52 2.76H1.47995C0.773027 2.76 0.199951 2.18693 0.199951 1.48Z" fill="#00587A"/>
<path fill-rule="evenodd" clip-rule="evenodd" d="M0.199951 16.84C0.199951 16.1331 0.773027 15.56 1.47995 15.56H24.52C25.2269 15.56 25.7999 16.1331 25.7999 16.84C25.7999 17.5469 25.2269 18.12 24.52 18.12H1.47995C0.773027 18.12 0.199951 17.5469 0.199951 16.84Z" fill="#00587A"/>
</svg>
