<svg width="240" height="240" viewBox="0 0 240 240" fill="none" xmlns="http://www.w3.org/2000/svg">
<g filter="url(#filter0_d)">
<rect x="50" y="50" width="140" height="140" rx="16" fill="#0F3057"/>
</g>
<path fill-rule="evenodd" clip-rule="evenodd" d="M122.253 78.2525C122.253 79.4966 121.244 80.5051 120 80.5051C118.756 80.5051 117.748 79.4966 117.748 78.2525C117.748 77.0085 118.756 76 120 76C121.244 76 122.253 77.0085 122.253 78.2525ZM107.352 126.49C107.528 126.637 107.745 126.725 107.972 126.742C108.197 126.725 108.411 126.637 108.582 126.49C108.81 126.317 109.012 126.112 109.181 125.88C109.329 125.709 109.421 125.496 109.444 125.27C109.429 125.037 109.336 124.815 109.181 124.64C109.011 124.422 108.814 124.225 108.596 124.055C108.423 123.904 108.204 123.815 107.975 123.803C107.747 123.82 107.531 123.908 107.355 124.055C107.127 124.219 106.925 124.416 106.755 124.64C106.605 124.817 106.517 125.039 106.504 125.27C106.521 125.498 106.609 125.715 106.755 125.891C106.922 126.12 107.124 126.322 107.352 126.49ZM109.613 128.993C110.594 128.993 111.365 129.091 111.926 129.286C112.181 129.364 112.417 129.493 112.621 129.664C112.825 129.836 112.993 130.047 113.114 130.285C113.346 130.754 113.46 131.404 113.46 132.23V139.075H90.6922C89.9024 139.091 89.1132 139.023 88.3373 138.875C87.7974 138.783 87.2986 138.528 86.9083 138.144C86.5728 137.786 86.3412 137.285 86.2135 136.64C85.9618 134.982 85.9618 133.295 86.2135 131.636C86.3403 130.992 86.5718 130.49 86.9083 130.132C87.299 129.749 87.7976 129.494 88.3373 129.401C89.1128 129.253 89.9014 129.185 90.6908 129.198H96.0895V136.263H100.609V129.202H103.11V132.46C103.431 131.747 103.911 131.119 104.515 130.622C105.175 130.078 105.936 129.667 106.754 129.414C107.679 129.125 108.644 128.983 109.613 128.993ZM89.7868 136.263H93.5708V132.021H89.7868C89.408 132.021 89.1286 132.094 88.9458 132.24C88.7629 132.386 88.6723 132.622 88.6723 132.944V135.337C88.6723 135.66 88.7629 135.895 88.9458 136.042C89.1286 136.188 89.408 136.263 89.7868 136.263ZM104.462 133.15C103.732 133.88 103.305 134.921 103.169 136.263H110.959V132.035C110.47 131.881 109.656 131.804 108.519 131.804C106.711 131.805 105.358 132.254 104.462 133.15ZM80.4842 150.083C80.3313 149.939 80.2095 149.764 80.1263 149.571C80.0431 149.377 80.0002 149.169 80.0002 148.959C80.0002 148.748 80.0431 148.54 80.1263 148.346C80.2095 148.153 80.3313 147.979 80.4842 147.834C80.808 147.53 81.2385 147.367 81.6821 147.379C82.1227 147.368 82.5509 147.525 82.8801 147.818C83.0359 147.951 83.1601 148.117 83.2438 148.304C83.3275 148.492 83.3687 148.695 83.3642 148.9C83.3694 149.117 83.3302 149.333 83.2489 149.534C83.1677 149.735 83.0461 149.918 82.8918 150.07C82.733 150.227 82.5438 150.35 82.3358 150.431C82.1277 150.513 81.9053 150.551 81.6821 150.543C81.2378 150.554 80.807 150.389 80.4842 150.083ZM80.3569 152.386H82.9898V163.615H80.3569V152.386ZM100.206 163.615L100.185 153.859L95.3495 161.931H94.1281L89.2925 153.984V163.615H86.686V148.896H88.9356L94.7863 158.652L100.526 148.896H102.776L102.792 163.615H100.206ZM106.355 160.982C106.86 161.851 107.6 162.56 108.489 163.03C109.444 163.513 110.499 163.765 111.569 163.765C112.639 163.765 113.695 163.513 114.65 163.03C115.539 162.56 116.278 161.851 116.784 160.982C117.303 160.077 117.569 159.049 117.552 158.005C117.569 156.966 117.304 155.942 116.784 155.042C116.277 154.174 115.538 153.464 114.65 152.994C113.695 152.51 112.639 152.258 111.569 152.258C110.499 152.258 109.444 152.51 108.489 152.994C107.6 153.464 106.861 154.174 106.355 155.042C105.834 155.942 105.569 156.966 105.587 158.005C105.57 159.049 105.835 160.077 106.355 160.982ZM114.901 157.998C114.902 159.049 114.587 159.898 113.955 160.543C113.644 160.863 113.27 161.114 112.856 161.28C112.442 161.447 111.999 161.526 111.553 161.511C110.586 161.512 109.79 161.19 109.166 160.545C108.542 159.899 108.23 159.051 108.23 157.999C108.235 156.947 108.549 156.099 109.172 155.454C109.795 154.81 110.591 154.488 111.559 154.488C112.003 154.474 112.446 154.553 112.859 154.719C113.271 154.886 113.644 155.136 113.955 155.454C114.585 156.099 114.9 156.947 114.901 157.998ZM131.07 148.014V163.615H128.546V162.164C128.119 162.692 127.566 163.105 126.937 163.363C126.267 163.635 125.549 163.77 124.825 163.761C123.809 163.777 122.806 163.53 121.913 163.046C121.058 162.576 120.354 161.873 119.884 161.017C119.401 160.087 119.149 159.054 119.149 158.005C119.149 156.957 119.401 155.924 119.884 154.994C120.357 154.143 121.06 153.443 121.913 152.975C122.806 152.491 123.809 152.244 124.825 152.26C125.524 152.253 126.217 152.384 126.864 152.645C127.473 152.891 128.014 153.28 128.441 153.78V148.014H131.07ZM126.844 161.08C127.351 160.791 127.766 160.364 128.042 159.85C128.332 159.276 128.484 158.642 128.484 157.999C128.484 157.357 128.332 156.723 128.042 156.149C127.765 155.635 127.35 155.209 126.844 154.919C126.321 154.637 125.735 154.489 125.141 154.489C124.546 154.489 123.961 154.637 123.437 154.919C122.931 155.209 122.516 155.635 122.239 156.149C121.949 156.723 121.798 157.357 121.798 157.999C121.798 158.642 121.949 159.276 122.239 159.85C122.515 160.364 122.93 160.791 123.437 161.08C123.96 161.363 124.546 161.511 125.141 161.511C125.735 161.511 126.321 161.363 126.844 161.08ZM145.493 163.615V152.386L142.865 152.392V153.759C142.425 153.274 141.883 152.893 141.278 152.645C140.64 152.385 139.958 152.254 139.269 152.26C138.249 152.244 137.242 152.49 136.344 152.975C135.494 153.439 134.794 154.136 134.326 154.984C133.824 155.908 133.572 156.948 133.594 158C133.573 159.055 133.825 160.098 134.326 161.027C134.791 161.88 135.491 162.581 136.344 163.046C137.242 163.531 138.249 163.777 139.269 163.761C139.993 163.77 140.711 163.635 141.382 163.363C142.01 163.105 142.563 162.692 142.991 162.164V163.615H145.493ZM142.907 157.998C142.907 159.049 142.592 159.898 141.961 160.543C141.65 160.861 141.276 161.112 140.863 161.278C140.451 161.444 140.008 161.523 139.563 161.51C139.12 161.524 138.679 161.446 138.268 161.279C137.857 161.113 137.486 160.862 137.178 160.543C136.555 159.897 136.243 159.048 136.242 157.998C136.241 156.948 136.553 156.1 137.178 155.455C137.486 155.136 137.857 154.885 138.268 154.718C138.679 154.552 139.12 154.473 139.563 154.488C140.008 154.474 140.451 154.553 140.863 154.72C141.276 154.886 141.65 155.136 141.961 155.455C142.592 156.099 142.907 156.947 142.907 157.998ZM158.717 153.5C159.572 154.328 160 155.555 160 157.18V163.616H157.376V157.517C157.376 156.536 157.145 155.796 156.683 155.298C156.22 154.8 155.56 154.549 154.702 154.546C153.734 154.546 152.97 154.839 152.41 155.424C151.85 156.009 151.57 156.846 151.569 157.935V163.615H148.936V148.014H151.569V153.69C152.018 153.219 152.568 152.856 153.178 152.629C153.861 152.375 154.584 152.25 155.312 152.26C156.727 152.26 157.862 152.673 158.717 153.5ZM143.592 140.493C143.82 140.506 144.039 140.594 144.212 140.744C144.431 140.914 144.629 141.111 144.8 141.329C144.956 141.504 145.048 141.726 145.063 141.96C145.04 142.185 144.948 142.398 144.8 142.57C144.631 142.801 144.43 143.007 144.202 143.18C144.03 143.326 143.817 143.414 143.592 143.431C143.364 143.414 143.147 143.326 142.972 143.18C142.741 143.012 142.539 142.81 142.372 142.58C142.225 142.404 142.137 142.188 142.12 141.96C142.134 141.728 142.222 141.507 142.372 141.329C142.541 141.105 142.743 140.908 142.972 140.744C143.147 140.598 143.364 140.51 143.592 140.493ZM147.722 140.744C147.549 140.594 147.331 140.506 147.102 140.493C146.874 140.51 146.658 140.598 146.482 140.744C146.254 140.908 146.053 141.105 145.884 141.329C145.733 141.506 145.644 141.727 145.631 141.96C145.648 142.188 145.736 142.405 145.884 142.58C146.05 142.81 146.252 143.012 146.482 143.18C146.657 143.326 146.874 143.414 147.102 143.431C147.327 143.415 147.541 143.327 147.712 143.18C147.941 143.007 148.143 142.801 148.312 142.57C148.46 142.398 148.551 142.185 148.574 141.96C148.559 141.726 148.467 141.504 148.312 141.329C148.141 141.11 147.943 140.914 147.722 140.744ZM147.858 129.202V139.084V139.085H125.762C125.549 139.686 125.291 140.269 124.989 140.83C124.574 141.599 124.088 142.328 123.538 143.007C122.991 143.686 122.378 144.309 121.708 144.867L120.069 142.975C120.612 142.543 121.105 142.052 121.54 141.512C121.982 140.969 122.377 140.388 122.719 139.777C122.849 139.546 122.956 139.315 123.063 139.084H120.47C119.863 139.098 119.259 139.009 118.682 138.821C118.209 138.659 117.795 138.359 117.494 137.959C117.16 137.482 116.937 136.936 116.844 136.36C116.698 135.56 116.631 134.746 116.643 133.932C116.626 133.136 116.715 132.341 116.906 131.567C117.047 130.992 117.333 130.463 117.737 130.031C118.155 129.624 118.675 129.338 119.242 129.202C120 129.019 120.777 128.934 121.556 128.949C122.414 128.939 123.27 128.99 124.12 129.103C124.861 129.215 125.588 129.409 126.287 129.68V136.265H130.765C130.635 135.53 130.572 134.784 130.575 134.036C130.572 133.323 130.643 132.611 130.786 131.912C130.932 131.214 131.122 130.526 131.353 129.852C131.886 129.637 132.434 129.465 132.993 129.337C133.579 129.202 134.172 129.105 134.77 129.044C135.367 128.982 135.967 128.95 136.568 128.949C137.562 128.949 138.361 129.056 138.964 129.271C139.512 129.447 139.981 129.809 140.289 130.295C140.569 130.757 140.709 131.374 140.709 132.145V136.262H145.356V129.202H147.858ZM119.307 132.734V136.262H122.88C123.22 136.272 123.453 136.209 123.579 136.072C123.705 135.936 123.768 135.692 123.768 135.341V131.766H120.404C119.965 131.766 119.672 131.833 119.526 131.967C119.38 132.1 119.307 132.356 119.307 132.734ZM133.315 136.262H138.215L138.207 131.914C137.927 131.856 137.642 131.817 137.356 131.798C137.055 131.778 136.701 131.766 136.294 131.766C135.644 131.768 134.994 131.811 134.349 131.893C134.024 131.933 133.702 131.986 133.382 132.048C133.371 132.088 133.359 132.129 133.348 132.17C133.333 132.219 133.319 132.268 133.308 132.313C133.171 132.876 133.103 133.454 133.106 134.033C133.103 134.504 133.124 134.974 133.169 135.442C133.198 135.718 133.247 135.993 133.315 136.262ZM153.977 125.838H151.454V139.084H153.977V125.838ZM120 94.0217C121.244 94.0217 122.253 93.0132 122.253 91.7691C122.253 90.5251 121.244 89.5166 120 89.5166C118.756 89.5166 117.748 90.5251 117.748 91.7691C117.748 93.0132 118.756 94.0217 120 94.0217ZM112.115 82.7576C112.115 83.3796 111.61 83.8839 110.988 83.8839C110.366 83.8839 109.862 83.3796 109.862 82.7576C109.862 82.1356 110.366 81.6313 110.988 81.6313C111.61 81.6313 112.115 82.1356 112.115 82.7576ZM129.01 101.906C129.632 101.906 130.136 101.401 130.136 100.779C130.136 100.157 129.632 99.6531 129.01 99.6531C128.388 99.6531 127.884 100.157 127.884 100.779C127.884 101.401 128.388 101.906 129.01 101.906ZM112.115 100.779C112.115 101.401 111.61 101.906 110.988 101.906C110.366 101.906 109.862 101.401 109.862 100.779C109.862 100.157 110.366 99.6531 110.988 99.6531C111.61 99.6531 112.115 100.157 112.115 100.779ZM129.01 83.8839C129.632 83.8839 130.136 83.3796 130.136 82.7576C130.136 82.1356 129.632 81.6313 129.01 81.6313C128.388 81.6313 127.884 82.1356 127.884 82.7576C127.884 83.3796 128.388 83.8839 129.01 83.8839ZM108.736 91.7691C108.736 93.0132 107.727 94.0217 106.483 94.0217C105.239 94.0217 104.231 93.0132 104.231 91.7691C104.231 90.5251 105.239 89.5166 106.483 89.5166C107.727 89.5166 108.736 90.5251 108.736 91.7691ZM133.517 94.0217C134.761 94.0217 135.769 93.0132 135.769 91.7691C135.769 90.5251 134.761 89.5166 133.517 89.5166C132.273 89.5166 131.264 90.5251 131.264 91.7691C131.264 93.0132 132.273 94.0217 133.517 94.0217ZM122.253 105.286C122.253 106.53 121.244 107.538 120 107.538C118.756 107.538 117.748 106.53 117.748 105.286C117.748 104.042 118.756 103.033 120 103.033C121.244 103.033 122.253 104.042 122.253 105.286Z" fill="white"/>
<defs>
<filter id="filter0_d" x="0" y="0" width="240" height="240" filterUnits="userSpaceOnUse" color-interpolation-filters="sRGB">
<feFlood flood-opacity="0" result="BackgroundImageFix"/>
<feColorMatrix in="SourceAlpha" type="matrix" values="0 0 0 0 0 0 0 0 0 0 0 0 0 0 0 0 0 0 127 0"/>
<feOffset/>
<feGaussianBlur stdDeviation="25"/>
<feColorMatrix type="matrix" values="0 0 0 0 0 0 0 0 0 0.533333 0 0 0 0 0.568627 0 0 0 0.15 0"/>
<feBlend mode="normal" in2="BackgroundImageFix" result="effect1_dropShadow"/>
<feBlend mode="normal" in="SourceGraphic" in2="effect1_dropShadow" result="shape"/>
</filter>
</defs>
</svg>
