<svg width="519" height="274" viewBox="0 0 519 274" fill="none" xmlns="http://www.w3.org/2000/svg">
<path d="M140.696 65.177C139.512 65.177 138.457 64.8845 137.532 64.2995C136.607 63.7144 135.879 62.8709 135.349 61.7689C134.832 60.6533 134.573 59.3268 134.573 57.7894C134.573 56.2521 134.832 54.9324 135.349 53.8304C135.879 52.7148 136.607 51.8645 137.532 51.2794C138.457 50.6944 139.512 50.4019 140.696 50.4019C141.879 50.4019 142.934 50.6944 143.859 51.2794C144.784 51.8645 145.505 52.7148 146.022 53.8304C146.552 54.9324 146.818 56.2521 146.818 57.7894C146.818 59.3268 146.552 60.6533 146.022 61.7689C145.505 62.8709 144.784 63.7144 143.859 64.2995C142.934 64.8845 141.879 65.177 140.696 65.177ZM140.696 62.3811C141.566 62.3811 142.246 62.007 142.736 61.2587C143.24 60.5105 143.491 59.354 143.491 57.7894C143.491 56.2249 143.24 55.0684 142.736 54.3202C142.246 53.5719 141.566 53.1977 140.696 53.1977C139.838 53.1977 139.158 53.5719 138.655 54.3202C138.165 55.0684 137.92 56.2249 137.92 57.7894C137.92 59.354 138.165 60.5105 138.655 61.2587C139.158 62.007 139.838 62.3811 140.696 62.3811Z" fill="#ADE8FF"/>
<path d="M153.815 50.6468V64.9321H150.509V53.2998H147.651V50.6468H153.815Z" fill="#ADE8FF"/>
<path d="M162.418 65.177C161.235 65.177 160.18 64.8845 159.255 64.2995C158.33 63.7144 157.602 62.8709 157.072 61.7689C156.555 60.6533 156.296 59.3268 156.296 57.7894C156.296 56.2521 156.555 54.9324 157.072 53.8304C157.602 52.7148 158.33 51.8645 159.255 51.2794C160.18 50.6944 161.235 50.4019 162.418 50.4019C163.602 50.4019 164.656 50.6944 165.582 51.2794C166.507 51.8645 167.228 52.7148 167.745 53.8304C168.275 54.9324 168.541 56.2521 168.541 57.7894C168.541 59.3268 168.275 60.6533 167.745 61.7689C167.228 62.8709 166.507 63.7144 165.582 64.2995C164.656 64.8845 163.602 65.177 162.418 65.177ZM162.418 62.3811C163.289 62.3811 163.969 62.007 164.459 61.2587C164.963 60.5105 165.214 59.354 165.214 57.7894C165.214 56.2249 164.963 55.0684 164.459 54.3202C163.969 53.5719 163.289 53.1977 162.418 53.1977C161.561 53.1977 160.881 53.5719 160.378 54.3202C159.888 55.0684 159.643 56.2249 159.643 57.7894C159.643 59.354 159.888 60.5105 160.378 61.2587C160.881 62.007 161.561 62.3811 162.418 62.3811Z" fill="#ADE8FF"/>
<path d="M176.269 65.177C175.086 65.177 174.031 64.8845 173.106 64.2995C172.181 63.7144 171.453 62.8709 170.922 61.7689C170.405 60.6533 170.147 59.3268 170.147 57.7894C170.147 56.2521 170.405 54.9324 170.922 53.8304C171.453 52.7148 172.181 51.8645 173.106 51.2794C174.031 50.6944 175.086 50.4019 176.269 50.4019C177.453 50.4019 178.507 50.6944 179.432 51.2794C180.358 51.8645 181.079 52.7148 181.596 53.8304C182.126 54.9324 182.391 56.2521 182.391 57.7894C182.391 59.3268 182.126 60.6533 181.596 61.7689C181.079 62.8709 180.358 63.7144 179.432 64.2995C178.507 64.8845 177.453 65.177 176.269 65.177ZM176.269 62.3811C177.14 62.3811 177.82 62.007 178.31 61.2587C178.813 60.5105 179.065 59.354 179.065 57.7894C179.065 56.2249 178.813 55.0684 178.31 54.3202C177.82 53.5719 177.14 53.1977 176.269 53.1977C175.412 53.1977 174.732 53.5719 174.228 54.3202C173.739 55.0684 173.494 56.2249 173.494 57.7894C173.494 59.354 173.739 60.5105 174.228 61.2587C174.732 62.007 175.412 62.3811 176.269 62.3811Z" fill="#ADE8FF"/>
<path d="M189.388 50.6468V64.9321H186.082V53.2998H183.225V50.6468H189.388Z" fill="#ADE8FF"/>
<path d="M197.38 50.6468V64.9321H194.074V53.2998H191.217V50.6468H197.38Z" fill="#ADE8FF"/>
<path d="M205.371 50.6468V64.9321H202.065V53.2998H199.208V50.6468H205.371Z" fill="#ADE8FF"/>
<path d="M213.975 65.177C212.792 65.177 211.737 64.8845 210.812 64.2995C209.887 63.7144 209.159 62.8709 208.629 61.7689C208.112 60.6533 207.853 59.3268 207.853 57.7894C207.853 56.2521 208.112 54.9324 208.629 53.8304C209.159 52.7148 209.887 51.8645 210.812 51.2794C211.737 50.6944 212.792 50.4019 213.975 50.4019C215.159 50.4019 216.213 50.6944 217.139 51.2794C218.064 51.8645 218.785 52.7148 219.302 53.8304C219.832 54.9324 220.098 56.2521 220.098 57.7894C220.098 59.3268 219.832 60.6533 219.302 61.7689C218.785 62.8709 218.064 63.7144 217.139 64.2995C216.213 64.8845 215.159 65.177 213.975 65.177ZM213.975 62.3811C214.846 62.3811 215.526 62.007 216.016 61.2587C216.519 60.5105 216.771 59.354 216.771 57.7894C216.771 56.2249 216.519 55.0684 216.016 54.3202C215.526 53.5719 214.846 53.1977 213.975 53.1977C213.118 53.1977 212.438 53.5719 211.935 54.3202C211.445 55.0684 211.2 56.2249 211.2 57.7894C211.2 59.354 211.445 60.5105 211.935 61.2587C212.438 62.007 213.118 62.3811 213.975 62.3811Z" fill="#ADE8FF"/>
<path d="M227.094 50.6468V64.9321H223.788V53.2998H220.931V50.6468H227.094Z" fill="#ADE8FF"/>
<path d="M235.086 50.6468V64.9321H231.78V53.2998H228.923V50.6468H235.086Z" fill="#ADE8FF"/>
<path d="M243.69 65.177C242.506 65.177 241.452 64.8845 240.527 64.2995C239.602 63.7144 238.874 62.8709 238.343 61.7689C237.826 60.6533 237.568 59.3268 237.568 57.7894C237.568 56.2521 237.826 54.9324 238.343 53.8304C238.874 52.7148 239.602 51.8645 240.527 51.2794C241.452 50.6944 242.506 50.4019 243.69 50.4019C244.873 50.4019 245.928 50.6944 246.853 51.2794C247.778 51.8645 248.499 52.7148 249.016 53.8304C249.547 54.9324 249.812 56.2521 249.812 57.7894C249.812 59.3268 249.547 60.6533 249.016 61.7689C248.499 62.8709 247.778 63.7144 246.853 64.2995C245.928 64.8845 244.873 65.177 243.69 65.177ZM243.69 62.3811C244.561 62.3811 245.241 62.007 245.731 61.2587C246.234 60.5105 246.486 59.354 246.486 57.7894C246.486 56.2249 246.234 55.0684 245.731 54.3202C245.241 53.5719 244.561 53.1977 243.69 53.1977C242.833 53.1977 242.152 53.5719 241.649 54.3202C241.159 55.0684 240.914 56.2249 240.914 57.7894C240.914 59.354 241.159 60.5105 241.649 61.2587C242.152 62.007 242.833 62.3811 243.69 62.3811Z" fill="#ADE8FF"/>
<path d="M257.541 65.177C256.357 65.177 255.303 64.8845 254.378 64.2995C253.452 63.7144 252.724 62.8709 252.194 61.7689C251.677 60.6533 251.418 59.3268 251.418 57.7894C251.418 56.2521 251.677 54.9324 252.194 53.8304C252.724 52.7148 253.452 51.8645 254.378 51.2794C255.303 50.6944 256.357 50.4019 257.541 50.4019C258.724 50.4019 259.779 50.6944 260.704 51.2794C261.629 51.8645 262.35 52.7148 262.867 53.8304C263.398 54.9324 263.663 56.2521 263.663 57.7894C263.663 59.3268 263.398 60.6533 262.867 61.7689C262.35 62.8709 261.629 63.7144 260.704 64.2995C259.779 64.8845 258.724 65.177 257.541 65.177ZM257.541 62.3811C258.411 62.3811 259.092 62.007 259.581 61.2587C260.085 60.5105 260.337 59.354 260.337 57.7894C260.337 56.2249 260.085 55.0684 259.581 54.3202C259.092 53.5719 258.411 53.1977 257.541 53.1977C256.684 53.1977 256.003 53.5719 255.5 54.3202C255.01 55.0684 254.765 56.2249 254.765 57.7894C254.765 59.354 255.01 60.5105 255.5 61.2587C256.003 62.007 256.684 62.3811 257.541 62.3811Z" fill="#ADE8FF"/>
<path d="M270.66 50.6468V64.9321H267.354V53.2998H264.497V50.6468H270.66Z" fill="#ADE8FF"/>
<path d="M278.651 50.6468V64.9321H275.345V53.2998H272.488V50.6468H278.651Z" fill="#ADE8FF"/>
<path d="M121.563 125.124C120.38 125.124 119.325 124.832 118.4 124.247C117.475 123.662 116.747 122.818 116.217 121.716C115.7 120.6 115.441 119.274 115.441 117.737C115.441 116.199 115.7 114.88 116.217 113.778C116.747 112.662 117.475 111.812 118.4 111.227C119.325 110.642 120.38 110.349 121.563 110.349C122.747 110.349 123.801 110.642 124.727 111.227C125.652 111.812 126.373 112.662 126.89 113.778C127.42 114.88 127.686 116.199 127.686 117.737C127.686 119.274 127.42 120.6 126.89 121.716C126.373 122.818 125.652 123.662 124.727 124.247C123.801 124.832 122.747 125.124 121.563 125.124ZM121.563 122.328C122.434 122.328 123.114 121.954 123.604 121.206C124.108 120.458 124.359 119.301 124.359 117.737C124.359 116.172 124.108 115.016 123.604 114.267C123.114 113.519 122.434 113.145 121.563 113.145C120.706 113.145 120.026 113.519 119.523 114.267C119.033 115.016 118.788 116.172 118.788 117.737C118.788 119.301 119.033 120.458 119.523 121.206C120.026 121.954 120.706 122.328 121.563 122.328Z" fill="#ADE8FF"/>
<path d="M134.682 110.594V124.879H131.376V113.247H128.519V110.594H134.682Z" fill="#ADE8FF"/>
<path d="M143.286 125.124C142.103 125.124 141.048 124.832 140.123 124.247C139.198 123.662 138.47 122.818 137.94 121.716C137.423 120.6 137.164 119.274 137.164 117.737C137.164 116.199 137.423 114.88 137.94 113.778C138.47 112.662 139.198 111.812 140.123 111.227C141.048 110.642 142.103 110.349 143.286 110.349C144.47 110.349 145.524 110.642 146.449 111.227C147.375 111.812 148.096 112.662 148.613 113.778C149.143 114.88 149.409 116.199 149.409 117.737C149.409 119.274 149.143 120.6 148.613 121.716C148.096 122.818 147.375 123.662 146.449 124.247C145.524 124.832 144.47 125.124 143.286 125.124ZM143.286 122.328C144.157 122.328 144.837 121.954 145.327 121.206C145.83 120.458 146.082 119.301 146.082 117.737C146.082 116.172 145.83 115.016 145.327 114.267C144.837 113.519 144.157 113.145 143.286 113.145C142.429 113.145 141.749 113.519 141.246 114.267C140.756 115.016 140.511 116.172 140.511 117.737C140.511 119.301 140.756 120.458 141.246 121.206C141.749 121.954 142.429 122.328 143.286 122.328Z" fill="#ADE8FF"/>
<path d="M157.137 125.124C155.953 125.124 154.899 124.832 153.974 124.247C153.049 123.662 152.321 122.818 151.79 121.716C151.273 120.6 151.015 119.274 151.015 117.737C151.015 116.199 151.273 114.88 151.79 113.778C152.321 112.662 153.049 111.812 153.974 111.227C154.899 110.642 155.953 110.349 157.137 110.349C158.321 110.349 159.375 110.642 160.3 111.227C161.225 111.812 161.947 112.662 162.463 113.778C162.994 114.88 163.259 116.199 163.259 117.737C163.259 119.274 162.994 120.6 162.463 121.716C161.947 122.818 161.225 123.662 160.3 124.247C159.375 124.832 158.321 125.124 157.137 125.124ZM157.137 122.328C158.008 122.328 158.688 121.954 159.178 121.206C159.681 120.458 159.933 119.301 159.933 117.737C159.933 116.172 159.681 115.016 159.178 114.267C158.688 113.519 158.008 113.145 157.137 113.145C156.28 113.145 155.6 113.519 155.096 114.267C154.607 115.016 154.362 116.172 154.362 117.737C154.362 119.301 154.607 120.458 155.096 121.206C155.6 121.954 156.28 122.328 157.137 122.328Z" fill="#ADE8FF"/>
<path d="M170.256 110.594V124.879H166.95V113.247H164.093V110.594H170.256Z" fill="#ADE8FF"/>
<path d="M178.248 110.594V124.879H174.942V113.247H172.085V110.594H178.248Z" fill="#ADE8FF"/>
<path d="M186.239 110.594V124.879H182.933V113.247H180.076V110.594H186.239Z" fill="#ADE8FF"/>
<path d="M194.843 125.124C193.66 125.124 192.605 124.832 191.68 124.247C190.755 123.662 190.027 122.818 189.496 121.716C188.979 120.6 188.721 119.274 188.721 117.737C188.721 116.199 188.979 114.88 189.496 113.778C190.027 112.662 190.755 111.812 191.68 111.227C192.605 110.642 193.66 110.349 194.843 110.349C196.027 110.349 197.081 110.642 198.006 111.227C198.932 111.812 199.653 112.662 200.17 113.778C200.7 114.88 200.966 116.199 200.966 117.737C200.966 119.274 200.7 120.6 200.17 121.716C199.653 122.818 198.932 123.662 198.006 124.247C197.081 124.832 196.027 125.124 194.843 125.124ZM194.843 122.328C195.714 122.328 196.394 121.954 196.884 121.206C197.387 120.458 197.639 119.301 197.639 117.737C197.639 116.172 197.387 115.016 196.884 114.267C196.394 113.519 195.714 113.145 194.843 113.145C193.986 113.145 193.306 113.519 192.803 114.267C192.313 115.016 192.068 116.172 192.068 117.737C192.068 119.301 192.313 120.458 192.803 121.206C193.306 121.954 193.986 122.328 194.843 122.328Z" fill="#ADE8FF"/>
<path d="M207.962 110.594V124.879H204.656V113.247H201.799V110.594H207.962Z" fill="#ADE8FF"/>
<path d="M215.954 110.594V124.879H212.648V113.247H209.791V110.594H215.954Z" fill="#ADE8FF"/>
<path d="M224.558 125.124C223.374 125.124 222.32 124.832 221.395 124.247C220.469 123.662 219.742 122.818 219.211 121.716C218.694 120.6 218.436 119.274 218.436 117.737C218.436 116.199 218.694 114.88 219.211 113.778C219.742 112.662 220.469 111.812 221.395 111.227C222.32 110.642 223.374 110.349 224.558 110.349C225.741 110.349 226.796 110.642 227.721 111.227C228.646 111.812 229.367 112.662 229.884 113.778C230.415 114.88 230.68 116.199 230.68 117.737C230.68 119.274 230.415 120.6 229.884 121.716C229.367 122.818 228.646 123.662 227.721 124.247C226.796 124.832 225.741 125.124 224.558 125.124ZM224.558 122.328C225.428 122.328 226.109 121.954 226.599 121.206C227.102 120.458 227.354 119.301 227.354 117.737C227.354 116.172 227.102 115.016 226.599 114.267C226.109 113.519 225.428 113.145 224.558 113.145C223.701 113.145 223.02 113.519 222.517 114.267C222.027 115.016 221.782 116.172 221.782 117.737C221.782 119.301 222.027 120.458 222.517 121.206C223.02 121.954 223.701 122.328 224.558 122.328Z" fill="#ADE8FF"/>
<path d="M238.409 125.124C237.225 125.124 236.171 124.832 235.245 124.247C234.32 123.662 233.592 122.818 233.062 121.716C232.545 120.6 232.286 119.274 232.286 117.737C232.286 116.199 232.545 114.88 233.062 113.778C233.592 112.662 234.32 111.812 235.245 111.227C236.171 110.642 237.225 110.349 238.409 110.349C239.592 110.349 240.647 110.642 241.572 111.227C242.497 111.812 243.218 112.662 243.735 113.778C244.266 114.88 244.531 116.199 244.531 117.737C244.531 119.274 244.266 120.6 243.735 121.716C243.218 122.818 242.497 123.662 241.572 124.247C240.647 124.832 239.592 125.124 238.409 125.124ZM238.409 122.328C239.279 122.328 239.96 121.954 240.449 121.206C240.953 120.458 241.204 119.301 241.204 117.737C241.204 116.172 240.953 115.016 240.449 114.267C239.96 113.519 239.279 113.145 238.409 113.145C237.551 113.145 236.871 113.519 236.368 114.267C235.878 115.016 235.633 116.172 235.633 117.737C235.633 119.301 235.878 120.458 236.368 121.206C236.871 121.954 237.551 122.328 238.409 122.328Z" fill="#ADE8FF"/>
<path d="M251.528 110.594V124.879H248.222V113.247H245.365V110.594H251.528Z" fill="#ADE8FF"/>
<path d="M259.519 110.594V124.879H256.213V113.247H253.356V110.594H259.519Z" fill="#ADE8FF"/>
<path d="M160.465 155.098C159.282 155.098 158.227 154.805 157.302 154.22C156.377 153.635 155.649 152.792 155.119 151.69C154.602 150.574 154.343 149.248 154.343 147.71C154.343 146.173 154.602 144.853 155.119 143.751C155.649 142.636 156.377 141.785 157.302 141.2C158.227 140.615 159.282 140.323 160.465 140.323C161.649 140.323 162.703 140.615 163.629 141.2C164.554 141.785 165.275 142.636 165.792 143.751C166.322 144.853 166.588 146.173 166.588 147.71C166.588 149.248 166.322 150.574 165.792 151.69C165.275 152.792 164.554 153.635 163.629 154.22C162.703 154.805 161.649 155.098 160.465 155.098ZM160.465 152.302C161.336 152.302 162.016 151.928 162.506 151.18C163.009 150.431 163.261 149.275 163.261 147.71C163.261 146.146 163.009 144.989 162.506 144.241C162.016 143.493 161.336 143.119 160.465 143.119C159.608 143.119 158.928 143.493 158.425 144.241C157.935 144.989 157.69 146.146 157.69 147.71C157.69 149.275 157.935 150.431 158.425 151.18C158.928 151.928 159.608 152.302 160.465 152.302Z" fill="#ADE8FF"/>
<path d="M173.584 140.568V154.853H170.278V143.221H167.421V140.568H173.584Z" fill="#ADE8FF"/>
<path d="M182.188 155.098C181.005 155.098 179.95 154.805 179.025 154.22C178.1 153.635 177.372 152.792 176.841 151.69C176.324 150.574 176.066 149.248 176.066 147.71C176.066 146.173 176.324 144.853 176.841 143.751C177.372 142.636 178.1 141.785 179.025 141.2C179.95 140.615 181.005 140.323 182.188 140.323C183.372 140.323 184.426 140.615 185.351 141.2C186.277 141.785 186.998 142.636 187.515 143.751C188.045 144.853 188.31 146.173 188.31 147.71C188.31 149.248 188.045 150.574 187.515 151.69C186.998 152.792 186.277 153.635 185.351 154.22C184.426 154.805 183.372 155.098 182.188 155.098ZM182.188 152.302C183.059 152.302 183.739 151.928 184.229 151.18C184.732 150.431 184.984 149.275 184.984 147.71C184.984 146.146 184.732 144.989 184.229 144.241C183.739 143.493 183.059 143.119 182.188 143.119C181.331 143.119 180.651 143.493 180.147 144.241C179.658 144.989 179.413 146.146 179.413 147.71C179.413 149.275 179.658 150.431 180.147 151.18C180.651 151.928 181.331 152.302 182.188 152.302Z" fill="#ADE8FF"/>
<path d="M196.039 155.098C194.855 155.098 193.801 154.805 192.876 154.22C191.951 153.635 191.223 152.792 190.692 151.69C190.175 150.574 189.917 149.248 189.917 147.71C189.917 146.173 190.175 144.853 190.692 143.751C191.223 142.636 191.951 141.785 192.876 141.2C193.801 140.615 194.855 140.323 196.039 140.323C197.223 140.323 198.277 140.615 199.202 141.2C200.127 141.785 200.848 142.636 201.365 143.751C201.896 144.853 202.161 146.173 202.161 147.71C202.161 149.248 201.896 150.574 201.365 151.69C200.848 152.792 200.127 153.635 199.202 154.22C198.277 154.805 197.223 155.098 196.039 155.098ZM196.039 152.302C196.91 152.302 197.59 151.928 198.08 151.18C198.583 150.431 198.835 149.275 198.835 147.71C198.835 146.146 198.583 144.989 198.08 144.241C197.59 143.493 196.91 143.119 196.039 143.119C195.182 143.119 194.502 143.493 193.998 144.241C193.509 144.989 193.264 146.146 193.264 147.71C193.264 149.275 193.509 150.431 193.998 151.18C194.502 151.928 195.182 152.302 196.039 152.302Z" fill="#ADE8FF"/>
<path d="M209.158 140.568V154.853H205.852V143.221H202.995V140.568H209.158Z" fill="#ADE8FF"/>
<path d="M217.15 140.568V154.853H213.844V143.221H210.987V140.568H217.15Z" fill="#ADE8FF"/>
<path d="M225.141 140.568V154.853H221.835V143.221H218.978V140.568H225.141Z" fill="#ADE8FF"/>
<path d="M233.745 155.098C232.562 155.098 231.507 154.805 230.582 154.22C229.657 153.635 228.929 152.792 228.398 151.69C227.881 150.574 227.623 149.248 227.623 147.71C227.623 146.173 227.881 144.853 228.398 143.751C228.929 142.636 229.657 141.785 230.582 141.2C231.507 140.615 232.562 140.323 233.745 140.323C234.929 140.323 235.983 140.615 236.908 141.2C237.833 141.785 238.555 142.636 239.072 143.751C239.602 144.853 239.867 146.173 239.867 147.71C239.867 149.248 239.602 150.574 239.072 151.69C238.555 152.792 237.833 153.635 236.908 154.22C235.983 154.805 234.929 155.098 233.745 155.098ZM233.745 152.302C234.616 152.302 235.296 151.928 235.786 151.18C236.289 150.431 236.541 149.275 236.541 147.71C236.541 146.146 236.289 144.989 235.786 144.241C235.296 143.493 234.616 143.119 233.745 143.119C232.888 143.119 232.208 143.493 231.704 144.241C231.215 144.989 230.97 146.146 230.97 147.71C230.97 149.275 231.215 150.431 231.704 151.18C232.208 151.928 232.888 152.302 233.745 152.302Z" fill="#ADE8FF"/>
<path d="M246.864 140.568V154.853H243.558V143.221H240.701V140.568H246.864Z" fill="#ADE8FF"/>
<path d="M254.856 140.568V154.853H251.55V143.221H248.693V140.568H254.856Z" fill="#ADE8FF"/>
<path d="M263.46 155.098C262.276 155.098 261.222 154.805 260.297 154.22C259.371 153.635 258.644 152.792 258.113 151.69C257.596 150.574 257.337 149.248 257.337 147.71C257.337 146.173 257.596 144.853 258.113 143.751C258.644 142.636 259.371 141.785 260.297 141.2C261.222 140.615 262.276 140.323 263.46 140.323C264.643 140.323 265.698 140.615 266.623 141.2C267.548 141.785 268.269 142.636 268.786 143.751C269.317 144.853 269.582 146.173 269.582 147.71C269.582 149.248 269.317 150.574 268.786 151.69C268.269 152.792 267.548 153.635 266.623 154.22C265.698 154.805 264.643 155.098 263.46 155.098ZM263.46 152.302C264.33 152.302 265.011 151.928 265.5 151.18C266.004 150.431 266.256 149.275 266.256 147.71C266.256 146.146 266.004 144.989 265.5 144.241C265.011 143.493 264.33 143.119 263.46 143.119C262.603 143.119 261.922 143.493 261.419 144.241C260.929 144.989 260.684 146.146 260.684 147.71C260.684 149.275 260.929 150.431 261.419 151.18C261.922 151.928 262.603 152.302 263.46 152.302Z" fill="#ADE8FF"/>
<path d="M277.311 155.098C276.127 155.098 275.072 154.805 274.147 154.22C273.222 153.635 272.494 152.792 271.964 151.69C271.447 150.574 271.188 149.248 271.188 147.71C271.188 146.173 271.447 144.853 271.964 143.751C272.494 142.636 273.222 141.785 274.147 141.2C275.072 140.615 276.127 140.323 277.311 140.323C278.494 140.323 279.549 140.615 280.474 141.2C281.399 141.785 282.12 142.636 282.637 143.751C283.167 144.853 283.433 146.173 283.433 147.71C283.433 149.248 283.167 150.574 282.637 151.69C282.12 152.792 281.399 153.635 280.474 154.22C279.549 154.805 278.494 155.098 277.311 155.098ZM277.311 152.302C278.181 152.302 278.861 151.928 279.351 151.18C279.855 150.431 280.106 149.275 280.106 147.71C280.106 146.146 279.855 144.989 279.351 144.241C278.861 143.493 278.181 143.119 277.311 143.119C276.453 143.119 275.773 143.493 275.27 144.241C274.78 144.989 274.535 146.146 274.535 147.71C274.535 149.275 274.78 150.431 275.27 151.18C275.773 151.928 276.453 152.302 277.311 152.302Z" fill="#ADE8FF"/>
<path d="M290.43 140.568V154.853H287.124V143.221H284.266V140.568H290.43Z" fill="#ADE8FF"/>
<path d="M298.421 140.568V154.853H295.115V143.221H292.258V140.568H298.421Z" fill="#ADE8FF"/>
<path d="M170.669 95.1506C169.486 95.1506 168.431 94.858 167.506 94.273C166.581 93.688 165.853 92.8445 165.322 91.7425C164.805 90.6269 164.547 89.3004 164.547 87.763C164.547 86.2257 164.805 84.906 165.322 83.804C165.853 82.6883 166.581 81.838 167.506 81.253C168.431 80.668 169.486 80.3755 170.669 80.3755C171.853 80.3755 172.907 80.668 173.832 81.253C174.757 81.838 175.479 82.6883 175.996 83.804C176.526 84.906 176.791 86.2257 176.791 87.763C176.791 89.3004 176.526 90.6269 175.996 91.7425C175.479 92.8445 174.757 93.688 173.832 94.273C172.907 94.858 171.853 95.1506 170.669 95.1506ZM170.669 92.3547C171.54 92.3547 172.22 91.9806 172.71 91.2323C173.213 90.484 173.465 89.3276 173.465 87.763C173.465 86.1984 173.213 85.042 172.71 84.2937C172.22 83.5455 171.54 83.1713 170.669 83.1713C169.812 83.1713 169.132 83.5455 168.628 84.2937C168.139 85.042 167.894 86.1984 167.894 87.763C167.894 89.3276 168.139 90.484 168.628 91.2323C169.132 91.9806 169.812 92.3547 170.669 92.3547Z" fill="#ADE8FF"/>
<path d="M183.788 80.6204V94.9057H180.482V83.2734H177.625V80.6204H183.788Z" fill="#ADE8FF"/>
<path d="M192.392 95.1506C191.208 95.1506 190.154 94.858 189.229 94.273C188.304 93.688 187.576 92.8445 187.045 91.7425C186.528 90.6269 186.27 89.3004 186.27 87.763C186.27 86.2257 186.528 84.906 187.045 83.804C187.576 82.6883 188.304 81.838 189.229 81.253C190.154 80.668 191.208 80.3755 192.392 80.3755C193.576 80.3755 194.63 80.668 195.555 81.253C196.48 81.838 197.201 82.6883 197.718 83.804C198.249 84.906 198.514 86.2257 198.514 87.763C198.514 89.3004 198.249 90.6269 197.718 91.7425C197.201 92.8445 196.48 93.688 195.555 94.273C194.63 94.858 193.576 95.1506 192.392 95.1506ZM192.392 92.3547C193.263 92.3547 193.943 91.9806 194.433 91.2323C194.936 90.484 195.188 89.3276 195.188 87.763C195.188 86.1984 194.936 85.042 194.433 84.2937C193.943 83.5455 193.263 83.1713 192.392 83.1713C191.535 83.1713 190.855 83.5455 190.351 84.2937C189.861 85.042 189.617 86.1984 189.617 87.763C189.617 89.3276 189.861 90.484 190.351 91.2323C190.855 91.9806 191.535 92.3547 192.392 92.3547Z" fill="#ADE8FF"/>
<path d="M206.243 95.1506C205.059 95.1506 204.005 94.858 203.08 94.273C202.155 93.688 201.427 92.8445 200.896 91.7425C200.379 90.6269 200.121 89.3004 200.121 87.763C200.121 86.2257 200.379 84.906 200.896 83.804C201.427 82.6883 202.155 81.838 203.08 81.253C204.005 80.668 205.059 80.3755 206.243 80.3755C207.426 80.3755 208.481 80.668 209.406 81.253C210.331 81.838 211.052 82.6883 211.569 83.804C212.1 84.906 212.365 86.2257 212.365 87.763C212.365 89.3004 212.1 90.6269 211.569 91.7425C211.052 92.8445 210.331 93.688 209.406 94.273C208.481 94.858 207.426 95.1506 206.243 95.1506ZM206.243 92.3547C207.114 92.3547 207.794 91.9806 208.284 91.2323C208.787 90.484 209.039 89.3276 209.039 87.763C209.039 86.1984 208.787 85.042 208.284 84.2937C207.794 83.5455 207.114 83.1713 206.243 83.1713C205.386 83.1713 204.705 83.5455 204.202 84.2937C203.712 85.042 203.467 86.1984 203.467 87.763C203.467 89.3276 203.712 90.484 204.202 91.2323C204.705 91.9806 205.386 92.3547 206.243 92.3547Z" fill="#ADE8FF"/>
<path d="M219.362 80.6204V94.9057H216.056V83.2734H213.199V80.6204H219.362Z" fill="#ADE8FF"/>
<path d="M227.353 80.6204V94.9057H224.047V83.2734H221.19V80.6204H227.353Z" fill="#ADE8FF"/>
<path d="M235.345 80.6204V94.9057H232.039V83.2734H229.182V80.6204H235.345Z" fill="#ADE8FF"/>
<path d="M243.949 95.1506C242.765 95.1506 241.711 94.858 240.786 94.273C239.861 93.688 239.133 92.8445 238.602 91.7425C238.085 90.6269 237.827 89.3004 237.827 87.763C237.827 86.2257 238.085 84.906 238.602 83.804C239.133 82.6883 239.861 81.838 240.786 81.253C241.711 80.668 242.765 80.3755 243.949 80.3755C245.133 80.3755 246.187 80.668 247.112 81.253C248.037 81.838 248.758 82.6883 249.275 83.804C249.806 84.906 250.071 86.2257 250.071 87.763C250.071 89.3004 249.806 90.6269 249.275 91.7425C248.758 92.8445 248.037 93.688 247.112 94.273C246.187 94.858 245.133 95.1506 243.949 95.1506ZM243.949 92.3547C244.82 92.3547 245.5 91.9806 245.99 91.2323C246.493 90.484 246.745 89.3276 246.745 87.763C246.745 86.1984 246.493 85.042 245.99 84.2937C245.5 83.5455 244.82 83.1713 243.949 83.1713C243.092 83.1713 242.412 83.5455 241.908 84.2937C241.418 85.042 241.174 86.1984 241.174 87.763C241.174 89.3276 241.418 90.484 241.908 91.2323C242.412 91.9806 243.092 92.3547 243.949 92.3547Z" fill="#ADE8FF"/>
<path d="M257.068 80.6204V94.9057H253.762V83.2734H250.905V80.6204H257.068Z" fill="#ADE8FF"/>
<path d="M265.06 80.6204V94.9057H261.754V83.2734H258.897V80.6204H265.06Z" fill="#ADE8FF"/>
<path d="M273.663 95.1506C272.48 95.1506 271.425 94.858 270.5 94.273C269.575 93.688 268.847 92.8445 268.317 91.7425C267.8 90.6269 267.541 89.3004 267.541 87.763C267.541 86.2257 267.8 84.906 268.317 83.804C268.847 82.6883 269.575 81.838 270.5 81.253C271.425 80.668 272.48 80.3755 273.663 80.3755C274.847 80.3755 275.902 80.668 276.827 81.253C277.752 81.838 278.473 82.6883 278.99 83.804C279.52 84.906 279.786 86.2257 279.786 87.763C279.786 89.3004 279.52 90.6269 278.99 91.7425C278.473 92.8445 277.752 93.688 276.827 94.273C275.902 94.858 274.847 95.1506 273.663 95.1506ZM273.663 92.3547C274.534 92.3547 275.214 91.9806 275.704 91.2323C276.208 90.484 276.459 89.3276 276.459 87.763C276.459 86.1984 276.208 85.042 275.704 84.2937C275.214 83.5455 274.534 83.1713 273.663 83.1713C272.806 83.1713 272.126 83.5455 271.623 84.2937C271.133 85.042 270.888 86.1984 270.888 87.763C270.888 89.3276 271.133 90.484 271.623 91.2323C272.126 91.9806 272.806 92.3547 273.663 92.3547Z" fill="#ADE8FF"/>
<path d="M287.514 95.1506C286.331 95.1506 285.276 94.858 284.351 94.273C283.426 93.688 282.698 92.8445 282.168 91.7425C281.651 90.6269 281.392 89.3004 281.392 87.763C281.392 86.2257 281.651 84.906 282.168 83.804C282.698 82.6883 283.426 81.838 284.351 81.253C285.276 80.668 286.331 80.3755 287.514 80.3755C288.698 80.3755 289.752 80.668 290.677 81.253C291.603 81.838 292.324 82.6883 292.841 83.804C293.371 84.906 293.637 86.2257 293.637 87.763C293.637 89.3004 293.371 90.6269 292.841 91.7425C292.324 92.8445 291.603 93.688 290.677 94.273C289.752 94.858 288.698 95.1506 287.514 95.1506ZM287.514 92.3547C288.385 92.3547 289.065 91.9806 289.555 91.2323C290.058 90.484 290.31 89.3276 290.31 87.763C290.31 86.1984 290.058 85.042 289.555 84.2937C289.065 83.5455 288.385 83.1713 287.514 83.1713C286.657 83.1713 285.977 83.5455 285.474 84.2937C284.984 85.042 284.739 86.1984 284.739 87.763C284.739 89.3276 284.984 90.484 285.474 91.2323C285.977 91.9806 286.657 92.3547 287.514 92.3547Z" fill="#ADE8FF"/>
<path d="M300.633 80.6204V94.9057H297.327V83.2734H294.47V80.6204H300.633Z" fill="#ADE8FF"/>
<path d="M308.625 80.6204V94.9057H305.319V83.2734H302.462V80.6204H308.625Z" fill="#ADE8FF"/>
<path d="M170.669 185.071C169.486 185.071 168.431 184.779 167.506 184.194C166.581 183.609 165.853 182.765 165.322 181.663C164.805 180.548 164.547 179.221 164.547 177.684C164.547 176.146 164.805 174.827 165.322 173.725C165.853 172.609 166.581 171.759 167.506 171.174C168.431 170.589 169.486 170.296 170.669 170.296C171.853 170.296 172.907 170.589 173.832 171.174C174.757 171.759 175.479 172.609 175.996 173.725C176.526 174.827 176.791 176.146 176.791 177.684C176.791 179.221 176.526 180.548 175.996 181.663C175.479 182.765 174.757 183.609 173.832 184.194C172.907 184.779 171.853 185.071 170.669 185.071ZM170.669 182.275C171.54 182.275 172.22 181.901 172.71 181.153C173.213 180.405 173.465 179.248 173.465 177.684C173.465 176.119 173.213 174.963 172.71 174.215C172.22 173.466 171.54 173.092 170.669 173.092C169.812 173.092 169.132 173.466 168.628 174.215C168.139 174.963 167.894 176.119 167.894 177.684C167.894 179.248 168.139 180.405 168.628 181.153C169.132 181.901 169.812 182.275 170.669 182.275Z" fill="#ADE8FF"/>
<path d="M183.788 170.541V184.826H180.482V173.194H177.625V170.541H183.788Z" fill="#ADE8FF"/>
<path d="M192.392 185.071C191.208 185.071 190.154 184.779 189.229 184.194C188.304 183.609 187.576 182.765 187.045 181.663C186.528 180.548 186.27 179.221 186.27 177.684C186.27 176.146 186.528 174.827 187.045 173.725C187.576 172.609 188.304 171.759 189.229 171.174C190.154 170.589 191.208 170.296 192.392 170.296C193.576 170.296 194.63 170.589 195.555 171.174C196.48 171.759 197.201 172.609 197.718 173.725C198.249 174.827 198.514 176.146 198.514 177.684C198.514 179.221 198.249 180.548 197.718 181.663C197.201 182.765 196.48 183.609 195.555 184.194C194.63 184.779 193.576 185.071 192.392 185.071ZM192.392 182.275C193.263 182.275 193.943 181.901 194.433 181.153C194.936 180.405 195.188 179.248 195.188 177.684C195.188 176.119 194.936 174.963 194.433 174.215C193.943 173.466 193.263 173.092 192.392 173.092C191.535 173.092 190.855 173.466 190.351 174.215C189.861 174.963 189.617 176.119 189.617 177.684C189.617 179.248 189.861 180.405 190.351 181.153C190.855 181.901 191.535 182.275 192.392 182.275Z" fill="#ADE8FF"/>
<path d="M206.243 185.071C205.059 185.071 204.005 184.779 203.08 184.194C202.155 183.609 201.427 182.765 200.896 181.663C200.379 180.548 200.121 179.221 200.121 177.684C200.121 176.146 200.379 174.827 200.896 173.725C201.427 172.609 202.155 171.759 203.08 171.174C204.005 170.589 205.059 170.296 206.243 170.296C207.426 170.296 208.481 170.589 209.406 171.174C210.331 171.759 211.052 172.609 211.569 173.725C212.1 174.827 212.365 176.146 212.365 177.684C212.365 179.221 212.1 180.548 211.569 181.663C211.052 182.765 210.331 183.609 209.406 184.194C208.481 184.779 207.426 185.071 206.243 185.071ZM206.243 182.275C207.114 182.275 207.794 181.901 208.284 181.153C208.787 180.405 209.039 179.248 209.039 177.684C209.039 176.119 208.787 174.963 208.284 174.215C207.794 173.466 207.114 173.092 206.243 173.092C205.386 173.092 204.705 173.466 204.202 174.215C203.712 174.963 203.467 176.119 203.467 177.684C203.467 179.248 203.712 180.405 204.202 181.153C204.705 181.901 205.386 182.275 206.243 182.275Z" fill="#ADE8FF"/>
<path d="M219.362 170.541V184.826H216.056V173.194H213.199V170.541H219.362Z" fill="#ADE8FF"/>
<path d="M227.353 170.541V184.826H224.047V173.194H221.19V170.541H227.353Z" fill="#ADE8FF"/>
<path d="M235.345 170.541V184.826H232.039V173.194H229.182V170.541H235.345Z" fill="#ADE8FF"/>
<path d="M243.949 185.071C242.765 185.071 241.711 184.779 240.786 184.194C239.861 183.609 239.133 182.765 238.602 181.663C238.085 180.548 237.827 179.221 237.827 177.684C237.827 176.146 238.085 174.827 238.602 173.725C239.133 172.609 239.861 171.759 240.786 171.174C241.711 170.589 242.765 170.296 243.949 170.296C245.133 170.296 246.187 170.589 247.112 171.174C248.037 171.759 248.758 172.609 249.275 173.725C249.806 174.827 250.071 176.146 250.071 177.684C250.071 179.221 249.806 180.548 249.275 181.663C248.758 182.765 248.037 183.609 247.112 184.194C246.187 184.779 245.133 185.071 243.949 185.071ZM243.949 182.275C244.82 182.275 245.5 181.901 245.99 181.153C246.493 180.405 246.745 179.248 246.745 177.684C246.745 176.119 246.493 174.963 245.99 174.215C245.5 173.466 244.82 173.092 243.949 173.092C243.092 173.092 242.412 173.466 241.908 174.215C241.418 174.963 241.174 176.119 241.174 177.684C241.174 179.248 241.418 180.405 241.908 181.153C242.412 181.901 243.092 182.275 243.949 182.275Z" fill="#ADE8FF"/>
<path d="M257.068 170.541V184.826H253.762V173.194H250.905V170.541H257.068Z" fill="#ADE8FF"/>
<path d="M265.06 170.541V184.826H261.754V173.194H258.897V170.541H265.06Z" fill="#ADE8FF"/>
<path d="M273.663 185.071C272.48 185.071 271.425 184.779 270.5 184.194C269.575 183.609 268.847 182.765 268.317 181.663C267.8 180.548 267.541 179.221 267.541 177.684C267.541 176.146 267.8 174.827 268.317 173.725C268.847 172.609 269.575 171.759 270.5 171.174C271.425 170.589 272.48 170.296 273.663 170.296C274.847 170.296 275.902 170.589 276.827 171.174C277.752 171.759 278.473 172.609 278.99 173.725C279.52 174.827 279.786 176.146 279.786 177.684C279.786 179.221 279.52 180.548 278.99 181.663C278.473 182.765 277.752 183.609 276.827 184.194C275.902 184.779 274.847 185.071 273.663 185.071ZM273.663 182.275C274.534 182.275 275.214 181.901 275.704 181.153C276.208 180.405 276.459 179.248 276.459 177.684C276.459 176.119 276.208 174.963 275.704 174.215C275.214 173.466 274.534 173.092 273.663 173.092C272.806 173.092 272.126 173.466 271.623 174.215C271.133 174.963 270.888 176.119 270.888 177.684C270.888 179.248 271.133 180.405 271.623 181.153C272.126 181.901 272.806 182.275 273.663 182.275Z" fill="#ADE8FF"/>
<path d="M287.514 185.071C286.331 185.071 285.276 184.779 284.351 184.194C283.426 183.609 282.698 182.765 282.168 181.663C281.651 180.548 281.392 179.221 281.392 177.684C281.392 176.146 281.651 174.827 282.168 173.725C282.698 172.609 283.426 171.759 284.351 171.174C285.276 170.589 286.331 170.296 287.514 170.296C288.698 170.296 289.752 170.589 290.677 171.174C291.603 171.759 292.324 172.609 292.841 173.725C293.371 174.827 293.637 176.146 293.637 177.684C293.637 179.221 293.371 180.548 292.841 181.663C292.324 182.765 291.603 183.609 290.677 184.194C289.752 184.779 288.698 185.071 287.514 185.071ZM287.514 182.275C288.385 182.275 289.065 181.901 289.555 181.153C290.058 180.405 290.31 179.248 290.31 177.684C290.31 176.119 290.058 174.963 289.555 174.215C289.065 173.466 288.385 173.092 287.514 173.092C286.657 173.092 285.977 173.466 285.474 174.215C284.984 174.963 284.739 176.119 284.739 177.684C284.739 179.248 284.984 180.405 285.474 181.153C285.977 181.901 286.657 182.275 287.514 182.275Z" fill="#ADE8FF"/>
<path d="M300.633 170.541V184.826H297.327V173.194H294.47V170.541H300.633Z" fill="#ADE8FF"/>
<path d="M308.625 170.541V184.826H305.319V173.194H302.462V170.541H308.625Z" fill="#ADE8FF"/>
<path d="M134.956 215.045C133.772 215.045 132.718 214.752 131.793 214.167C130.868 213.582 130.14 212.739 129.609 211.637C129.092 210.521 128.834 209.195 128.834 207.657C128.834 206.12 129.092 204.8 129.609 203.698C130.14 202.583 130.868 201.732 131.793 201.147C132.718 200.562 133.772 200.27 134.956 200.27C136.14 200.27 137.194 200.562 138.119 201.147C139.044 201.732 139.765 202.583 140.282 203.698C140.813 204.8 141.078 206.12 141.078 207.657C141.078 209.195 140.813 210.521 140.282 211.637C139.765 212.739 139.044 213.582 138.119 214.167C137.194 214.752 136.14 215.045 134.956 215.045ZM134.956 212.249C135.827 212.249 136.507 211.875 136.997 211.127C137.5 210.378 137.752 209.222 137.752 207.657C137.752 206.093 137.5 204.936 136.997 204.188C136.507 203.44 135.827 203.066 134.956 203.066C134.099 203.066 133.419 203.44 132.915 204.188C132.425 204.936 132.18 206.093 132.18 207.657C132.18 209.222 132.425 210.378 132.915 211.127C133.419 211.875 134.099 212.249 134.956 212.249Z" fill="#ADE8FF"/>
<path d="M148.075 200.515V214.8H144.769V203.168H141.912V200.515H148.075Z" fill="#ADE8FF"/>
<path d="M156.679 215.045C155.495 215.045 154.441 214.752 153.516 214.167C152.59 213.582 151.863 212.739 151.332 211.637C150.815 210.521 150.556 209.195 150.556 207.657C150.556 206.12 150.815 204.8 151.332 203.698C151.863 202.583 152.59 201.732 153.516 201.147C154.441 200.562 155.495 200.27 156.679 200.27C157.862 200.27 158.917 200.562 159.842 201.147C160.767 201.732 161.488 202.583 162.005 203.698C162.536 204.8 162.801 206.12 162.801 207.657C162.801 209.195 162.536 210.521 162.005 211.637C161.488 212.739 160.767 213.582 159.842 214.167C158.917 214.752 157.862 215.045 156.679 215.045ZM156.679 212.249C157.549 212.249 158.23 211.875 158.72 211.127C159.223 210.378 159.475 209.222 159.475 207.657C159.475 206.093 159.223 204.936 158.72 204.188C158.23 203.44 157.549 203.066 156.679 203.066C155.822 203.066 155.141 203.44 154.638 204.188C154.148 204.936 153.903 206.093 153.903 207.657C153.903 209.222 154.148 210.378 154.638 211.127C155.141 211.875 155.822 212.249 156.679 212.249Z" fill="#ADE8FF"/>
<path d="M170.53 215.045C169.346 215.045 168.292 214.752 167.366 214.167C166.441 213.582 165.713 212.739 165.183 211.637C164.666 210.521 164.407 209.195 164.407 207.657C164.407 206.12 164.666 204.8 165.183 203.698C165.713 202.583 166.441 201.732 167.366 201.147C168.292 200.562 169.346 200.27 170.53 200.27C171.713 200.27 172.768 200.562 173.693 201.147C174.618 201.732 175.339 202.583 175.856 203.698C176.387 204.8 176.652 206.12 176.652 207.657C176.652 209.195 176.387 210.521 175.856 211.637C175.339 212.739 174.618 213.582 173.693 214.167C172.768 214.752 171.713 215.045 170.53 215.045ZM170.53 212.249C171.4 212.249 172.081 211.875 172.57 211.127C173.074 210.378 173.325 209.222 173.325 207.657C173.325 206.093 173.074 204.936 172.57 204.188C172.081 203.44 171.4 203.066 170.53 203.066C169.672 203.066 168.992 203.44 168.489 204.188C167.999 204.936 167.754 206.093 167.754 207.657C167.754 209.222 167.999 210.378 168.489 211.127C168.992 211.875 169.672 212.249 170.53 212.249Z" fill="#ADE8FF"/>
<path d="M183.649 200.515V214.8H180.343V203.168H177.486V200.515H183.649Z" fill="#ADE8FF"/>
<path d="M191.64 200.515V214.8H188.334V203.168H185.477V200.515H191.64Z" fill="#ADE8FF"/>
<path d="M199.632 200.515V214.8H196.326V203.168H193.469V200.515H199.632Z" fill="#ADE8FF"/>
<path d="M208.236 215.045C207.052 215.045 205.998 214.752 205.073 214.167C204.147 213.582 203.42 212.739 202.889 211.637C202.372 210.521 202.113 209.195 202.113 207.657C202.113 206.12 202.372 204.8 202.889 203.698C203.42 202.583 204.147 201.732 205.073 201.147C205.998 200.562 207.052 200.27 208.236 200.27C209.419 200.27 210.474 200.562 211.399 201.147C212.324 201.732 213.045 202.583 213.562 203.698C214.093 204.8 214.358 206.12 214.358 207.657C214.358 209.195 214.093 210.521 213.562 211.637C213.045 212.739 212.324 213.582 211.399 214.167C210.474 214.752 209.419 215.045 208.236 215.045ZM208.236 212.249C209.106 212.249 209.787 211.875 210.276 211.127C210.78 210.378 211.032 209.222 211.032 207.657C211.032 206.093 210.78 204.936 210.276 204.188C209.787 203.44 209.106 203.066 208.236 203.066C207.379 203.066 206.698 203.44 206.195 204.188C205.705 204.936 205.46 206.093 205.46 207.657C205.46 209.222 205.705 210.378 206.195 211.127C206.698 211.875 207.379 212.249 208.236 212.249Z" fill="#ADE8FF"/>
<path d="M221.355 200.515V214.8H218.049V203.168H215.192V200.515H221.355Z" fill="#ADE8FF"/>
<path d="M229.346 200.515V214.8H226.04V203.168H223.183V200.515H229.346Z" fill="#ADE8FF"/>
<path d="M237.95 215.045C236.767 215.045 235.712 214.752 234.787 214.167C233.862 213.582 233.134 212.739 232.603 211.637C232.086 210.521 231.828 209.195 231.828 207.657C231.828 206.12 232.086 204.8 232.603 203.698C233.134 202.583 233.862 201.732 234.787 201.147C235.712 200.562 236.767 200.27 237.95 200.27C239.134 200.27 240.188 200.562 241.113 201.147C242.039 201.732 242.76 202.583 243.277 203.698C243.807 204.8 244.072 206.12 244.072 207.657C244.072 209.195 243.807 210.521 243.277 211.637C242.76 212.739 242.039 213.582 241.113 214.167C240.188 214.752 239.134 215.045 237.95 215.045ZM237.95 212.249C238.821 212.249 239.501 211.875 239.991 211.127C240.494 210.378 240.746 209.222 240.746 207.657C240.746 206.093 240.494 204.936 239.991 204.188C239.501 203.44 238.821 203.066 237.95 203.066C237.093 203.066 236.413 203.44 235.909 204.188C235.42 204.936 235.175 206.093 235.175 207.657C235.175 209.222 235.42 210.378 235.909 211.127C236.413 211.875 237.093 212.249 237.95 212.249Z" fill="#ADE8FF"/>
<path d="M251.801 215.045C250.617 215.045 249.563 214.752 248.638 214.167C247.713 213.582 246.985 212.739 246.454 211.637C245.937 210.521 245.679 209.195 245.679 207.657C245.679 206.12 245.937 204.8 246.454 203.698C246.985 202.583 247.713 201.732 248.638 201.147C249.563 200.562 250.617 200.27 251.801 200.27C252.985 200.27 254.039 200.562 254.964 201.147C255.889 201.732 256.61 202.583 257.127 203.698C257.658 204.8 257.923 206.12 257.923 207.657C257.923 209.195 257.658 210.521 257.127 211.637C256.61 212.739 255.889 213.582 254.964 214.167C254.039 214.752 252.985 215.045 251.801 215.045ZM251.801 212.249C252.672 212.249 253.352 211.875 253.842 211.127C254.345 210.378 254.597 209.222 254.597 207.657C254.597 206.093 254.345 204.936 253.842 204.188C253.352 203.44 252.672 203.066 251.801 203.066C250.944 203.066 250.264 203.44 249.76 204.188C249.271 204.936 249.026 206.093 249.026 207.657C249.026 209.222 249.271 210.378 249.76 211.127C250.264 211.875 250.944 212.249 251.801 212.249Z" fill="#ADE8FF"/>
<path d="M264.92 200.515V214.8H261.614V203.168H258.757V200.515H264.92Z" fill="#ADE8FF"/>
<path d="M272.912 200.515V214.8H269.606V203.168H266.749V200.515H272.912Z" fill="#ADE8FF"/>
<g filter="url(#filter0_d)">
<rect x="38.117" y="12" width="160.709" height="241.064" rx="16" fill="white"/>
</g>
<rect x="26" y="32.4076" width="72.0641" height="72.0641" rx="8" fill="#ADE8FF"/>
<path d="M52.397 87.024H69.744C70.849 87.024 71.744 86.129 71.745 85.024V67.181L72.864 68.301C73.239 68.676 73.748 68.887 74.278 68.886C74.808 68.886 75.318 68.675 75.693 68.3L80.557 63.43C81.337 62.648 81.337 61.383 80.557 60.602L71.663 51.704C71.287 51.329 70.778 51.118 70.248 51.118C70.164 51.118 70.08 51.124 69.998 51.134C69.915 51.123 69.831 51.118 69.746 51.118H67.273C66.594 51.118 65.962 51.462 65.594 52.031C64.807 53.247 63.031 54.032 61.071 54.032C59.111 54.032 57.336 53.247 56.549 52.031C56.181 51.462 55.548 51.118 54.87 51.118H52.397C52.312 51.118 52.228 51.124 52.145 51.134C51.541 51.058 50.914 51.269 50.48 51.704L41.584 60.603C40.804 61.385 40.804 62.65 41.584 63.431L46.449 68.3C46.824 68.675 47.334 68.886 47.864 68.886C48.395 68.886 48.904 68.676 49.279 68.3L50.397 67.182V85.024C50.397 86.128 51.293 87.024 52.397 87.024Z" fill="#66D4FF"/>
<rect x="26" y="140.823" width="72.0641" height="72.0641" rx="8" fill="#ADE8FF"/>
<path d="M77.9879 185.128L74.5824 164.869C74.4967 164.362 74.0541 163.993 73.5399 164H50.8829C50.3687 163.993 49.926 164.362 49.8404 164.869L46.0179 185.093C45.9122 185.659 46.2854 186.204 46.8514 186.309C46.8516 186.309 46.8518 186.31 46.8519 186.31L57.6591 188.499C58.1037 188.585 58.553 188.374 58.7711 187.978L62.0029 182.174L65.2346 187.978C65.421 188.3 65.7655 188.499 66.1381 188.499H66.3466L77.1539 186.31C77.7042 186.204 78.0726 185.682 77.9879 185.128ZM55.0529 168.17H51.3346L51.7169 166.085H55.0529V168.17ZM66.8679 168.17H57.1379V166.085H66.8679V168.17ZM68.9529 168.17V166.085H72.6711L73.0186 168.17H68.9529Z" fill="#66D4FF"/>
<rect x="108.268" y="32.4076" width="72.0641" height="72.0641" rx="8" fill="#ADE8FF"/>
<path d="M159.988 77.1281L156.582 56.8689C156.497 56.3618 156.054 55.9929 155.54 56.0001H132.883C132.369 55.9929 131.926 56.3618 131.84 56.8689L128.018 77.0933C127.912 77.6593 128.285 78.2038 128.851 78.3095C128.852 78.3095 128.852 78.3095 128.852 78.3096L139.659 80.4988C140.104 80.585 140.553 80.3744 140.771 79.9776L144.003 74.1743L147.235 79.9776C147.421 80.3003 147.765 80.4991 148.138 80.4988H148.347L159.154 78.3096C159.704 78.204 160.073 77.6821 159.988 77.1281ZM137.053 60.1701H133.335L133.717 58.0851H137.053V60.1701ZM148.868 60.1701H139.138V58.0851H148.868V60.1701ZM150.953 60.1701V58.0851H154.671L155.019 60.1701H150.953Z" fill="#66D4FF"/>
<rect x="108.268" y="140.823" width="72.0641" height="72.0641" rx="8" fill="#ADE8FF"/>
<rect x="26" y="108.298" width="52.2943" height="8.29057" rx="4.14528" fill="#7ADAFF"/>
<path d="M135.398 194.906H152.745C153.85 194.906 154.745 194.011 154.746 192.906V175.063L155.865 176.183C156.24 176.558 156.749 176.769 157.279 176.768C157.809 176.768 158.319 176.557 158.694 176.182L163.558 171.312C164.338 170.53 164.338 169.265 163.558 168.484L154.664 159.586C154.288 159.211 153.779 159 153.249 159C153.165 159 153.081 159.006 152.999 159.016C152.916 159.005 152.832 159 152.747 159H150.274C149.595 159 148.963 159.344 148.595 159.913C147.808 161.129 146.032 161.914 144.072 161.914C142.112 161.914 140.337 161.129 139.55 159.913C139.182 159.344 138.549 159 137.871 159H135.398C135.313 159 135.229 159.006 135.146 159.016C134.542 158.94 133.915 159.151 133.481 159.586L124.585 168.485C123.805 169.267 123.805 170.532 124.585 171.313L129.45 176.182C129.825 176.557 130.335 176.768 130.865 176.768C131.396 176.768 131.905 176.558 132.28 176.182L133.398 175.064V192.906C133.398 194.01 134.294 194.906 135.398 194.906Z" fill="#66D4FF"/>
<rect x="26" y="217.351" width="52.2943" height="8.29057" rx="4.14528" fill="#7ADAFF"/>
<rect x="108.268" y="108.298" width="52.2943" height="8.29057" rx="4.14528" fill="#7ADAFF"/>
<rect x="108.268" y="217.351" width="52.2943" height="8.29057" rx="4.14528" fill="#7ADAFF"/>
<rect x="26" y="121.053" width="34.4377" height="8.29057" rx="4.14528" fill="#ADE8FF"/>
<rect x="26" y="229.468" width="34.4377" height="8.29057" rx="4.14528" fill="#ADE8FF"/>
<rect x="108.268" y="121.053" width="33.8" height="8.29057" rx="4.14528" fill="#ADE8FF"/>
<rect x="108.268" y="229.468" width="33.8" height="8.29057" rx="4.14528" fill="#ADE8FF"/>
<path fill-rule="evenodd" clip-rule="evenodd" d="M174.626 205.248C173.292 204.475 171.622 205.44 171.624 206.982L171.636 215.984C171.638 217.523 173.304 218.483 174.636 217.714L177.27 216.193L178.12 217.666C178.521 218.359 179.407 218.597 180.1 218.196C180.794 217.796 181.031 216.91 180.631 216.217L179.78 214.744L182.414 213.223C183.747 212.454 183.748 210.531 182.417 209.76L174.626 205.248Z" fill="#47CCFF"/>
<path fill-rule="evenodd" clip-rule="evenodd" d="M26.0979 73.2483C27.4323 72.4755 29.1023 73.4397 29.1002 74.9817L29.0881 83.9845C29.086 85.5229 27.4204 86.483 26.0881 85.7138L23.454 84.193L22.6037 85.6659C22.2034 86.3591 21.317 86.5966 20.6238 86.1964C19.9306 85.7962 19.693 84.9097 20.0933 84.2165L20.9436 82.7437L18.3097 81.2229C16.9774 80.4537 16.9761 78.5312 18.3073 77.7602L26.0979 73.2483Z" fill="#47CCFF"/>
<circle cx="190" cy="230" r="12" fill="#7ADAFF"/>
<path d="M190 218C183.376 218 178 223.376 178 230C178 236.624 183.376 242 190 242C196.624 242 202 236.624 202 230C202 223.376 196.624 218 190 218ZM190 221.6C191.992 221.6 193.6 223.208 193.6 225.2C193.6 227.192 191.992 228.8 190 228.8C188.008 228.8 186.4 227.192 186.4 225.2C186.4 223.208 188.008 221.6 190 221.6ZM190 238.64C187 238.64 184.348 237.104 182.8 234.776C182.836 232.388 187.6 231.08 190 231.08C192.388 231.08 197.164 232.388 197.2 234.776C195.652 237.104 193 238.64 190 238.64Z" fill="#33C6FF"/>
<circle cx="12" cy="99" r="12" fill="#7ADAFF"/>
<path d="M12 87C5.376 87 0 92.376 0 99C0 105.624 5.376 111 12 111C18.624 111 24 105.624 24 99C24 92.376 18.624 87 12 87ZM12 90.6C13.992 90.6 15.6 92.208 15.6 94.2C15.6 96.192 13.992 97.8 12 97.8C10.008 97.8 8.4 96.192 8.4 94.2C8.4 92.208 10.008 90.6 12 90.6ZM12 107.64C9 107.64 6.348 106.104 4.8 103.776C4.836 101.388 9.6 100.08 12 100.08C14.388 100.08 19.164 101.388 19.2 103.776C17.652 106.104 15 107.64 12 107.64Z" fill="#33C6FF"/>
<g filter="url(#filter1_d)">
<rect x="344.322" y="26.5997" width="141.243" height="211.865" rx="16" fill="white"/>
</g>
<rect x="332.551" y="44.5353" width="99.2066" height="81.2709" rx="8" fill="#ADE8FF"/>
<rect x="329.036" y="134.701" width="99.2066" height="81.2709" rx="8" fill="#ADE8FF"/>
<rect x="434.083" y="134.701" width="82.6141" height="80.8563" rx="8" fill="#ADE8FF"/>
<path d="M440.917 170.409C440.133 170.409 439.365 170.841 438.613 171.705C437.877 172.553 437.277 173.673 436.813 175.065C436.349 176.441 436.117 177.857 436.117 179.313C436.117 180.913 436.725 181.713 437.941 181.713C439.093 181.713 440.149 181.009 441.109 179.601L441.589 179.793C441.013 180.721 440.277 181.489 439.381 182.097C438.501 182.705 437.493 183.009 436.357 183.009C435.189 183.009 434.253 182.697 433.549 182.073C432.861 181.449 432.517 180.529 432.517 179.313C432.517 177.937 432.861 176.521 433.549 175.065C434.237 173.593 435.205 172.369 436.453 171.393C437.701 170.417 439.117 169.929 440.701 169.929C441.581 169.929 442.285 170.153 442.813 170.601C443.357 171.033 443.629 171.577 443.629 172.233C443.629 172.665 443.525 173.089 443.317 173.505C443.109 173.921 442.821 174.257 442.453 174.513C442.085 174.769 441.685 174.897 441.253 174.897C440.853 174.897 440.525 174.769 440.269 174.513C440.013 174.257 439.885 173.921 439.885 173.505C439.885 172.881 440.101 172.329 440.533 171.849C440.965 171.353 441.477 171.033 442.069 170.889C441.797 170.569 441.413 170.409 440.917 170.409Z" fill="#66D4FF"/>
<path d="M472.557 170.409C471.773 170.409 471.005 170.841 470.253 171.705C469.517 172.553 468.917 173.673 468.453 175.065C467.989 176.441 467.757 177.857 467.757 179.313C467.757 180.913 468.365 181.713 469.581 181.713C470.733 181.713 471.789 181.009 472.749 179.601L473.229 179.793C472.653 180.721 471.917 181.489 471.021 182.097C470.141 182.705 469.133 183.009 467.997 183.009C466.829 183.009 465.893 182.697 465.189 182.073C464.501 181.449 464.157 180.529 464.157 179.313C464.157 177.937 464.501 176.521 465.189 175.065C465.877 173.593 466.845 172.369 468.093 171.393C469.341 170.417 470.757 169.929 472.341 169.929C473.221 169.929 473.925 170.153 474.453 170.601C474.997 171.033 475.269 171.577 475.269 172.233C475.269 172.665 475.165 173.089 474.957 173.505C474.749 173.921 474.461 174.257 474.093 174.513C473.725 174.769 473.325 174.897 472.893 174.897C472.493 174.897 472.165 174.769 471.909 174.513C471.653 174.257 471.525 173.921 471.525 173.505C471.525 172.881 471.741 172.329 472.173 171.849C472.605 171.353 473.117 171.033 473.709 170.889C473.437 170.569 473.053 170.409 472.557 170.409Z" fill="#66D4FF"/>
<path d="M504.196 170.409C503.412 170.409 502.644 170.841 501.892 171.705C501.156 172.553 500.556 173.673 500.092 175.065C499.628 176.441 499.396 177.857 499.396 179.313C499.396 180.913 500.004 181.713 501.22 181.713C502.372 181.713 503.428 181.009 504.388 179.601L504.868 179.793C504.292 180.721 503.556 181.489 502.66 182.097C501.78 182.705 500.772 183.009 499.636 183.009C498.468 183.009 497.532 182.697 496.828 182.073C496.14 181.449 495.796 180.529 495.796 179.313C495.796 177.937 496.14 176.521 496.828 175.065C497.516 173.593 498.484 172.369 499.732 171.393C500.98 170.417 502.396 169.929 503.98 169.929C504.86 169.929 505.564 170.153 506.092 170.601C506.636 171.033 506.908 171.577 506.908 172.233C506.908 172.665 506.804 173.089 506.596 173.505C506.388 173.921 506.1 174.257 505.732 174.513C505.364 174.769 504.964 174.897 504.532 174.897C504.132 174.897 503.804 174.769 503.548 174.513C503.292 174.257 503.164 173.921 503.164 173.505C503.164 172.881 503.38 172.329 503.812 171.849C504.244 171.353 504.756 171.033 505.348 170.889C505.076 170.569 504.692 170.409 504.196 170.409Z" fill="#66D4FF"/>
<path d="M455.422 179.403C455.422 179.907 455.262 180.379 454.942 180.819C454.622 181.259 454.186 181.603 453.634 181.851L453.574 181.659C453.942 181.475 454.242 181.239 454.474 180.951C454.714 180.671 454.846 180.367 454.87 180.039C454.654 180.271 454.406 180.387 454.126 180.387C453.886 180.387 453.702 180.331 453.574 180.219C453.446 180.107 453.382 179.947 453.382 179.739C453.382 179.411 453.502 179.131 453.742 178.899C453.99 178.659 454.286 178.539 454.63 178.539C454.886 178.539 455.082 178.615 455.218 178.767C455.354 178.911 455.422 179.123 455.422 179.403Z" fill="#66D4FF"/>
<path d="M487.061 179.403C487.061 179.907 486.901 180.379 486.581 180.819C486.261 181.259 485.825 181.603 485.273 181.851L485.213 181.659C485.581 181.475 485.881 181.239 486.113 180.951C486.353 180.671 486.485 180.367 486.509 180.039C486.293 180.271 486.045 180.387 485.765 180.387C485.525 180.387 485.341 180.331 485.213 180.219C485.085 180.107 485.021 179.947 485.021 179.739C485.021 179.411 485.141 179.131 485.381 178.899C485.629 178.659 485.925 178.539 486.269 178.539C486.525 178.539 486.721 178.615 486.857 178.767C486.993 178.911 487.061 179.123 487.061 179.403Z" fill="#66D4FF"/>
<path d="M446.557 171.523C446.013 171.017 445.603 170.515 445.325 170.019C445.053 169.523 444.917 168.945 444.917 168.283C444.917 167.702 445.077 167.123 445.397 166.547C445.723 165.971 446.168 165.433 446.733 164.931C447.299 164.43 447.944 163.993 448.669 163.619L448.749 163.723C447.864 164.358 447.187 165.062 446.717 165.835C446.248 166.603 446.013 167.505 446.013 168.539C446.013 169.083 446.069 169.587 446.181 170.051C446.293 170.51 446.467 170.966 446.701 171.419L446.557 171.523ZM449.353 170.067H448.225L449.225 166.691C448.969 166.798 448.615 166.91 448.161 167.027L448.185 166.859C448.703 166.726 449.127 166.579 449.457 166.419C449.788 166.259 450.119 166.067 450.449 165.843H450.609L449.353 170.067ZM451.746 163.619C452.29 164.126 452.698 164.627 452.97 165.123C453.248 165.619 453.386 166.198 453.386 166.859C453.386 167.441 453.224 168.019 452.898 168.595C452.578 169.171 452.136 169.71 451.57 170.211C451.005 170.713 450.36 171.15 449.634 171.523L449.554 171.419C450.44 170.785 451.117 170.083 451.586 169.315C452.056 168.542 452.29 167.638 452.29 166.603C452.29 166.059 452.234 165.558 452.122 165.099C452.01 164.635 451.837 164.177 451.602 163.723L451.746 163.619Z" fill="#66D4FF"/>
<path d="M477.928 171.456C477.384 170.949 476.973 170.448 476.696 169.952C476.424 169.456 476.288 168.877 476.288 168.216C476.288 167.635 476.448 167.056 476.768 166.48C477.093 165.904 477.539 165.365 478.104 164.864C478.669 164.363 479.315 163.925 480.04 163.552L480.12 163.656C479.235 164.291 478.557 164.995 478.088 165.768C477.619 166.536 477.384 167.437 477.384 168.472C477.384 169.016 477.44 169.52 477.552 169.984C477.664 170.443 477.837 170.899 478.072 171.352L477.928 171.456ZM481.716 165.752C482.111 165.752 482.423 165.827 482.652 165.976C482.887 166.125 483.004 166.331 483.004 166.592C483.004 166.827 482.908 167.059 482.716 167.288C482.524 167.512 482.3 167.715 482.044 167.896C481.788 168.072 481.457 168.28 481.052 168.52C480.988 168.557 480.879 168.624 480.724 168.72C480.569 168.816 480.444 168.899 480.348 168.968C480.481 168.968 480.697 169.003 480.996 169.072C481.135 169.104 481.276 169.133 481.42 169.16C481.569 169.181 481.703 169.192 481.82 169.192C482.028 169.192 482.193 169.16 482.316 169.096C482.439 169.027 482.5 168.931 482.5 168.808C482.5 168.648 482.404 168.517 482.212 168.416L482.3 168.312C482.455 168.392 482.567 168.488 482.636 168.6C482.705 168.707 482.74 168.837 482.74 168.992C482.74 169.28 482.636 169.528 482.428 169.736C482.22 169.944 481.911 170.048 481.5 170.048C481.383 170.048 481.257 170.035 481.124 170.008C480.991 169.987 480.86 169.963 480.732 169.936C480.551 169.893 480.391 169.861 480.252 169.84C480.119 169.819 479.975 169.808 479.82 169.808C479.665 169.808 479.527 169.824 479.404 169.856C479.281 169.883 479.137 169.931 478.972 170L479.012 169.832C479.193 169.688 479.343 169.576 479.46 169.496C479.908 169.165 480.295 168.864 480.62 168.592C480.945 168.315 481.236 168.003 481.492 167.656C481.748 167.304 481.876 166.96 481.876 166.624C481.876 166.416 481.823 166.256 481.716 166.144C481.609 166.032 481.46 165.976 481.268 165.976C481.06 165.976 480.849 166.037 480.636 166.16C480.423 166.283 480.244 166.44 480.1 166.632C479.961 166.824 479.892 167.019 479.892 167.216C479.892 167.349 479.927 167.448 479.996 167.512C480.071 167.571 480.191 167.6 480.356 167.6C480.495 167.6 480.617 167.576 480.724 167.528C480.836 167.475 480.959 167.389 481.092 167.272L481.188 167.384C481.049 167.517 480.903 167.616 480.748 167.68C480.593 167.739 480.444 167.768 480.3 167.768C480.135 167.768 479.993 167.728 479.876 167.648C479.759 167.568 479.7 167.427 479.7 167.224C479.7 166.989 479.788 166.757 479.964 166.528C480.14 166.299 480.38 166.112 480.684 165.968C480.993 165.824 481.337 165.752 481.716 165.752ZM484.414 163.552C484.958 164.059 485.366 164.56 485.638 165.056C485.915 165.552 486.054 166.131 486.054 166.792C486.054 167.373 485.891 167.952 485.566 168.528C485.246 169.104 484.803 169.643 484.238 170.144C483.672 170.645 483.027 171.083 482.302 171.456L482.222 171.352C483.107 170.717 483.784 170.016 484.254 169.248C484.723 168.475 484.958 167.571 484.958 166.536C484.958 165.992 484.902 165.491 484.79 165.032C484.678 164.568 484.504 164.109 484.27 163.656L484.414 163.552Z" fill="#66D4FF"/>
<path d="M509.836 171.523C509.292 171.017 508.882 170.515 508.604 170.019C508.332 169.523 508.196 168.945 508.196 168.283C508.196 167.702 508.356 167.123 508.676 166.547C509.002 165.971 509.447 165.433 510.012 164.931C510.578 164.43 511.223 163.993 511.948 163.619L512.028 163.723C511.143 164.358 510.466 165.062 509.996 165.835C509.527 166.603 509.292 167.505 509.292 168.539C509.292 169.083 509.348 169.587 509.46 170.051C509.572 170.51 509.746 170.966 509.98 171.419L509.836 171.523ZM513.56 165.811C513.96 165.811 514.277 165.883 514.512 166.027C514.747 166.171 514.864 166.366 514.864 166.611C514.864 166.953 514.675 167.254 514.296 167.515C513.923 167.771 513.496 167.955 513.016 168.067C513.475 168.078 513.843 168.163 514.12 168.323C514.397 168.483 514.536 168.726 514.536 169.051C514.536 169.483 514.312 169.865 513.864 170.195C513.421 170.531 512.875 170.793 512.224 170.979C511.579 171.166 510.965 171.265 510.384 171.275L510.424 171.131C510.872 171.105 511.323 171.001 511.776 170.819C512.229 170.643 512.605 170.393 512.904 170.067C513.208 169.742 513.36 169.361 513.36 168.923C513.36 168.71 513.317 168.539 513.232 168.411C513.147 168.278 513.027 168.206 512.872 168.195C512.787 168.233 512.701 168.265 512.616 168.291C512.536 168.318 512.467 168.331 512.408 168.331C512.291 168.331 512.245 168.291 512.272 168.211C512.293 168.11 512.421 168.059 512.656 168.059L512.808 168.067C513.101 167.945 513.339 167.774 513.52 167.555C513.707 167.337 513.8 167.086 513.8 166.803C513.8 166.579 513.733 166.403 513.6 166.275C513.472 166.147 513.291 166.083 513.056 166.083C512.869 166.083 512.683 166.131 512.496 166.227C512.309 166.318 512.155 166.438 512.032 166.587C511.915 166.731 511.856 166.881 511.856 167.035C511.856 167.169 511.891 167.267 511.96 167.331C512.035 167.39 512.155 167.419 512.32 167.419C512.501 167.419 512.667 167.379 512.816 167.299L512.904 167.419C512.696 167.531 512.483 167.587 512.264 167.587C512.099 167.587 511.957 167.547 511.84 167.467C511.723 167.387 511.664 167.246 511.664 167.043C511.664 166.846 511.749 166.654 511.92 166.467C512.091 166.275 512.32 166.118 512.608 165.995C512.901 165.873 513.219 165.811 513.56 165.811ZM516.213 163.619C516.757 164.126 517.165 164.627 517.437 165.123C517.714 165.619 517.853 166.198 517.853 166.859C517.853 167.441 517.69 168.019 517.365 168.595C517.045 169.171 516.602 169.71 516.037 170.211C515.471 170.713 514.826 171.15 514.101 171.523L514.021 171.419C514.906 170.785 515.583 170.083 516.053 169.315C516.522 168.542 516.757 167.638 516.757 166.603C516.757 166.059 516.701 165.558 516.589 165.099C516.477 164.635 516.303 164.177 516.069 163.723L516.213 163.619Z" fill="#66D4FF"/>
<path d="M442.53 179.536C442.535 179.317 442.615 179.144 442.77 179.016C442.924 178.888 443.116 178.824 443.346 178.824C443.532 178.824 443.676 178.869 443.778 178.96C443.884 179.045 443.938 179.165 443.938 179.32C443.938 179.533 443.858 179.709 443.698 179.848C443.538 179.987 443.34 180.056 443.106 180.056C442.914 180.056 442.767 180.011 442.666 179.92C442.564 179.824 442.519 179.696 442.53 179.536ZM442.226 181.552C442.263 181.429 442.282 181.349 442.282 181.312C442.282 181.205 442.234 181.152 442.138 181.152C442.042 181.152 441.954 181.203 441.874 181.304C441.794 181.4 441.711 181.56 441.626 181.784L441.466 182.192H441.314L441.538 181.584C441.735 181.035 442.106 180.76 442.65 180.76C442.895 180.76 443.074 180.821 443.186 180.944C443.298 181.061 443.354 181.216 443.354 181.408C443.354 181.563 443.324 181.72 443.266 181.88L442.426 184.328C442.394 184.424 442.378 184.501 442.378 184.56C442.378 184.672 442.431 184.728 442.538 184.728C442.618 184.728 442.698 184.683 442.778 184.592C442.863 184.501 442.951 184.336 443.042 184.096L443.186 183.712H443.338L443.13 184.296C442.943 184.845 442.583 185.12 442.05 185.12C441.564 185.12 441.322 184.899 441.322 184.456C441.322 184.28 441.362 184.077 441.442 183.848L442.226 181.552Z" fill="#66D4FF"/>
<path d="M474.169 179.536C474.175 179.317 474.255 179.144 474.409 179.016C474.564 178.888 474.756 178.824 474.985 178.824C475.172 178.824 475.316 178.869 475.417 178.96C475.524 179.045 475.577 179.165 475.577 179.32C475.577 179.533 475.497 179.709 475.337 179.848C475.177 179.987 474.98 180.056 474.745 180.056C474.553 180.056 474.407 180.011 474.305 179.92C474.204 179.824 474.159 179.696 474.169 179.536ZM473.865 181.552C473.903 181.429 473.921 181.349 473.921 181.312C473.921 181.205 473.873 181.152 473.777 181.152C473.681 181.152 473.593 181.203 473.513 181.304C473.433 181.4 473.351 181.56 473.265 181.784L473.105 182.192H472.953L473.177 181.584C473.375 181.035 473.745 180.76 474.289 180.76C474.535 180.76 474.713 180.821 474.825 180.944C474.937 181.061 474.993 181.216 474.993 181.408C474.993 181.563 474.964 181.72 474.905 181.88L474.065 184.328C474.033 184.424 474.017 184.501 474.017 184.56C474.017 184.672 474.071 184.728 474.177 184.728C474.257 184.728 474.337 184.683 474.417 184.592C474.503 184.501 474.591 184.336 474.681 184.096L474.825 183.712H474.977L474.769 184.296C474.583 184.845 474.223 185.12 473.689 185.12C473.204 185.12 472.961 184.899 472.961 184.456C472.961 184.28 473.001 184.077 473.081 183.848L473.865 181.552Z" fill="#66D4FF"/>
<path d="M505.809 179.536C505.814 179.317 505.894 179.144 506.049 179.016C506.203 178.888 506.395 178.824 506.625 178.824C506.811 178.824 506.955 178.869 507.057 178.96C507.163 179.045 507.217 179.165 507.217 179.32C507.217 179.533 507.137 179.709 506.977 179.848C506.817 179.987 506.619 180.056 506.385 180.056C506.193 180.056 506.046 180.011 505.945 179.92C505.843 179.824 505.798 179.696 505.809 179.536ZM505.505 181.552C505.542 181.429 505.561 181.349 505.561 181.312C505.561 181.205 505.513 181.152 505.417 181.152C505.321 181.152 505.233 181.203 505.153 181.304C505.073 181.4 504.99 181.56 504.905 181.784L504.745 182.192H504.593L504.817 181.584C505.014 181.035 505.385 180.76 505.929 180.76C506.174 180.76 506.353 180.821 506.465 180.944C506.577 181.061 506.633 181.216 506.633 181.408C506.633 181.563 506.603 181.72 506.545 181.88L505.705 184.328C505.673 184.424 505.657 184.501 505.657 184.56C505.657 184.672 505.71 184.728 505.817 184.728C505.897 184.728 505.977 184.683 506.057 184.592C506.142 184.501 506.23 184.336 506.321 184.096L506.465 183.712H506.617L506.409 184.296C506.222 184.845 505.862 185.12 505.329 185.12C504.843 185.12 504.601 184.899 504.601 184.456C504.601 184.28 504.641 184.077 504.721 183.848L505.505 181.552Z" fill="#66D4FF"/>
<rect x="440.726" y="44.5353" width="68.9402" height="81.2709" rx="8" fill="#ADE8FF"/>
<path fill-rule="evenodd" clip-rule="evenodd" d="M420.368 70.788C420.368 69.5498 419.364 68.546 418.126 68.546H408.218C406.979 68.546 405.976 69.5498 405.976 70.788C405.976 72.0262 406.979 73.0299 408.218 73.0299L412.424 73.0299L403.173 82.2804L394.389 73.4967C393.514 72.6211 392.094 72.6211 391.219 73.4967L369.544 95.1716L363.562 89.1903C362.687 88.3148 361.267 88.3148 360.392 89.1903L345.539 104.043C344.663 104.919 344.663 106.338 345.539 107.214C346.414 108.089 347.834 108.089 348.71 107.214L361.977 93.9463L367.958 99.9276C368.834 100.803 370.254 100.803 371.129 99.9276L392.804 78.2526L401.588 87.0363C402.463 87.9118 403.883 87.9118 404.758 87.0363L415.884 75.911V80.6961C415.884 81.9343 416.888 82.9381 418.126 82.9381C419.364 82.9381 420.368 81.9343 420.368 80.6961L420.368 70.788Z" fill="#66D4FF"/>
<path fill-rule="evenodd" clip-rule="evenodd" d="M383.108 144.369C382.623 144.369 382.229 144.762 382.229 145.248V160.188H378.714V161.946H382.229V176.887C382.229 177.372 382.623 177.766 383.108 177.766H389.26V176.008H383.987V161.946H389.26V160.188H383.987V146.126H389.26V144.369H383.108Z" fill="#66D4FF"/>
<path fill-rule="evenodd" clip-rule="evenodd" d="M357.621 160.188H346.196C345.71 160.188 345.317 160.582 345.317 161.067V174.25H337.407V176.008H345.317V189.191C345.317 189.677 345.71 190.07 346.196 190.07H357.621V188.312H347.074V161.946H357.621V160.188Z" fill="#66D4FF"/>
<path d="M331.634 175.129C331.634 178.818 336.093 180.665 338.702 178.057C340.319 176.44 340.319 173.818 338.702 172.202C336.093 169.593 331.634 171.441 331.634 175.129Z" fill="#66D4FF" stroke="#ADE8FF"/>
<path d="M329.305 169.169C330.867 167.607 333.4 167.607 334.962 169.169L338.094 172.301C339.656 173.863 339.656 176.396 338.094 177.958L334.962 181.09C333.4 182.652 330.867 182.652 329.305 181.09L326.173 177.958C324.611 176.396 324.611 173.863 326.173 172.301L329.305 169.169Z" fill="#66D4FF"/>
<rect x="356.242" y="156.173" width="23.8507" height="9.78873" rx="4.89437" fill="#66D4FF" stroke="#ADE8FF"/>
<rect x="356.242" y="184.297" width="23.8507" height="9.78873" rx="4.89437" fill="#66D4FF" stroke="#ADE8FF"/>
<rect x="387.881" y="171.993" width="23.8507" height="9.78873" rx="4.89437" fill="#66D4FF" stroke="#ADE8FF"/>
<rect x="387.881" y="156.173" width="23.8507" height="9.78873" rx="4.89437" fill="#66D4FF" stroke="#ADE8FF"/>
<rect x="387.881" y="140.353" width="23.8507" height="9.78873" rx="4.89437" fill="#66D4FF" stroke="#ADE8FF"/>
<path d="M477.518 67.0278C476.949 67.0278 476.489 67.4885 476.489 68.0578V82.5454C476.489 83.1147 476.949 83.5754 477.518 83.5754H491.938C492.507 83.5754 492.967 83.1147 492.967 82.5454C492.967 74.0264 486.038 67.0278 477.518 67.0278Z" fill="#66D4FF"/>
<path d="M479.426 99.8735L474.429 86.4781V72.2461C474.429 71.6769 473.968 71.2162 473.399 71.2162C464.88 71.2162 457.812 78.1461 457.812 86.6652C457.812 95.1842 464.88 102.183 473.399 102.183C475.263 102.183 477.089 101.852 478.824 101.2C479.356 101 479.626 100.406 479.426 99.8735Z" fill="#66D4FF"/>
<path d="M477.518 85.6352H491.938C492.507 85.6352 492.967 86.0959 492.967 86.6652C492.967 93.062 488.939 98.9431 482.945 101.199C482.687 101.296 482.406 101.286 482.156 101.173C481.907 101.06 481.714 100.853 481.617 100.598L476.554 87.0272C476.435 86.7104 476.479 86.3564 476.672 86.0788C476.865 85.8012 477.181 85.6352 477.518 85.6352Z" fill="#66D4FF"/>
<defs>
<filter id="filter0_d" x="22.117" y="0" width="192.709" height="273.064" filterUnits="userSpaceOnUse" color-interpolation-filters="sRGB">
<feFlood flood-opacity="0" result="BackgroundImageFix"/>
<feColorMatrix in="SourceAlpha" type="matrix" values="0 0 0 0 0 0 0 0 0 0 0 0 0 0 0 0 0 0 127 0"/>
<feOffset dy="4"/>
<feGaussianBlur stdDeviation="8"/>
<feColorMatrix type="matrix" values="0 0 0 0 0.813524 0 0 0 0 0.940424 0 0 0 0 0.994809 0 0 0 0.5 0"/>
<feBlend mode="normal" in2="BackgroundImageFix" result="effect1_dropShadow"/>
<feBlend mode="normal" in="SourceGraphic" in2="effect1_dropShadow" result="shape"/>
</filter>
<filter id="filter1_d" x="328.322" y="14.5997" width="173.243" height="243.865" filterUnits="userSpaceOnUse" color-interpolation-filters="sRGB">
<feFlood flood-opacity="0" result="BackgroundImageFix"/>
<feColorMatrix in="SourceAlpha" type="matrix" values="0 0 0 0 0 0 0 0 0 0 0 0 0 0 0 0 0 0 127 0"/>
<feOffset dy="4"/>
<feGaussianBlur stdDeviation="8"/>
<feColorMatrix type="matrix" values="0 0 0 0 0.813524 0 0 0 0 0.940424 0 0 0 0 0.994809 0 0 0 0.5 0"/>
<feBlend mode="normal" in2="BackgroundImageFix" result="effect1_dropShadow"/>
<feBlend mode="normal" in="SourceGraphic" in2="effect1_dropShadow" result="shape"/>
</filter>
</defs>
</svg>
