<svg width="40" height="40" viewBox="0 0 40 40" fill="none" xmlns="http://www.w3.org/2000/svg">
<path d="M37.0832 0H16.25C14.6416 0 13.3333 1.30834 13.3333 2.91669V7.08337C13.3333 8.69171 14.6416 10.0001 16.25 10.0001H37.0832C38.6916 9.99998 39.9999 8.69164 39.9999 7.08329V2.91669C39.9999 1.30834 38.6916 0 37.0832 0Z" fill="#008FCC"/>
<path d="M4.99999 9.99998C7.76141 9.99998 9.99998 7.76141 9.99998 4.99999C9.99998 2.23857 7.76141 0 4.99999 0C2.23857 0 0 2.23857 0 4.99999C0 7.76141 2.23857 9.99998 4.99999 9.99998Z" fill="#B2E8FF"/>
<path d="M37.0832 13.3333H2.91669C1.31669 13.3333 0 14.6499 0 16.2499V37.0832C0 38.6832 1.31669 39.9999 2.91669 39.9999H37.0833C38.6833 39.9999 40 38.6832 40 37.0832V16.2499C39.9999 14.6499 38.6832 13.3333 37.0832 13.3333ZM33.7499 27.4999H24.5833C23.9 27.4999 23.3333 26.9332 23.3333 26.2499C23.3333 25.5666 23.9 24.9999 24.5833 24.9999H33.7499C34.4332 24.9999 34.9999 25.5666 34.9999 26.2499C34.9999 26.9332 34.4332 27.4999 33.7499 27.4999ZM34.9999 31.2499C34.9999 31.9332 34.4332 32.4999 33.7499 32.4999H24.5833C23.9 32.4999 23.3333 31.9332 23.3333 31.2499C23.3333 30.5666 23.9 29.9999 24.5833 29.9999H33.7499C34.4332 29.9999 34.9999 30.5666 34.9999 31.2499ZM33.7499 22.4999H24.5833C23.9 22.4999 23.3333 21.9332 23.3333 21.2499C23.3333 20.5666 23.9 19.9999 24.5833 19.9999H33.7499C34.4332 19.9999 34.9999 20.5666 34.9999 21.2499C34.9999 21.9332 34.4332 22.4999 33.7499 22.4999ZM20 25.8332C20 29.9665 16.6333 33.3332 12.5 33.3332C8.36668 33.3332 4.99999 29.9665 4.99999 25.8332C4.99999 21.6999 8.36668 18.3332 12.5 18.3332C16.6333 18.3332 20 21.6999 20 25.8332Z" fill="#33C2FF"/>
</svg>
