<svg width="48" height="48" viewBox="0 0 48 48" fill="none" xmlns="http://www.w3.org/2000/svg">
<path d="M30.0235 2.82351V45.1765C30.0235 45.9557 29.391 46.5882 28.6117 46.5882H2.82351C2.04421 46.5882 1.41174 45.9557 1.41174 45.1765V2.82351C1.41174 2.04421 2.04421 1.41174 2.82351 1.41174H28.6117C29.391 1.41174 30.0235 2.04421 30.0235 2.82351Z" fill="white"/>
<path d="M30.0235 2.82351V45.1765C30.0235 45.9557 29.3911 46.5882 28.6118 46.5882H15.7177V1.41174H28.6118C29.3911 1.41174 30.0235 2.04421 30.0235 2.82351Z" fill="#D6F3FF"/>
<path d="M28.6118 11.1598V2.82353H8.84706V7.43529C8.84706 8.21496 8.21496 8.84706 7.43529 8.84706H2.82353V45.1765H28.6118V33.8284C28.6118 33.0685 29.1954 32.4144 29.9544 32.3781C30.7651 32.3394 31.4353 32.986 31.4353 33.7882V45.1765C31.4353 46.7359 30.1712 48 28.6118 48H2.82353C1.26409 48 0 46.7359 0 45.1765V2.82353C0 1.26409 1.26409 0 2.82353 0H28.6118C30.1712 0 31.4353 1.26409 31.4353 2.82353V11.2C31.4353 12.0022 30.7651 12.6488 29.9544 12.6101C29.1954 12.5738 28.6118 11.9196 28.6118 11.1598Z" fill="#008FCC"/>
<path d="M31.4353 2.82353V11.2C31.4353 11.9793 30.8028 12.6118 30.0235 12.6118C29.2442 12.6118 28.6118 11.9793 28.6118 11.2V2.82353H15.7177V0H28.6118C30.1685 0 31.4353 1.26682 31.4353 2.82353Z" fill="#008FCC"/>
<path d="M31.4353 33.7882V45.1765C31.4353 46.7332 30.1685 48 28.6118 48H15.7177V45.1765H28.6118V33.7882C28.6118 33.0089 29.2442 32.3765 30.0235 32.3765C30.8028 32.3765 31.4353 33.0089 31.4353 33.7882Z" fill="#008FCC"/>
<path d="M20.8941 40.5647C20.8941 41.344 20.2616 41.9765 19.4823 41.9765H11.9529C11.1736 41.9765 10.5412 41.344 10.5412 40.5647C10.5412 39.7854 11.1736 39.153 11.9529 39.153H19.4823C20.2616 39.153 20.8941 39.7854 20.8941 40.5647Z" fill="#66D1FF"/>
<path d="M42.8235 19.872V25.1162C43.6028 25.1162 44.2353 25.7477 44.2353 26.528V32.3764C44.2353 33.9331 42.9685 35.2 41.4118 35.2H13.3647C11.808 35.2 10.5412 33.9331 10.5412 32.3764V12.6117C10.5412 11.055 11.808 9.78821 13.3647 9.78821H41.4118C42.9685 9.78821 44.2353 11.055 44.2353 12.6117V18.4602C44.2353 19.2404 43.6028 19.872 42.8235 19.872Z" fill="#33C2FF"/>
<path d="M42.8235 19.872V25.1162C43.6028 25.1162 44.2353 25.7477 44.2353 26.528V32.3764C44.2353 33.9331 42.9685 35.2 41.4118 35.2H27.3882V9.78821H41.4118C42.9685 9.78821 44.2353 11.055 44.2353 12.6117V18.4602C44.2353 19.2404 43.6028 19.872 42.8235 19.872Z" fill="#33C2FF"/>
<path d="M45.1765 17.3176H37.4588C35.902 17.3176 34.6353 18.5843 34.6353 20.1412V24.847C34.6353 26.4039 35.902 27.6706 37.4588 27.6706H45.1765C46.7334 27.6706 48 26.4039 48 24.847V20.1412C48 18.5843 46.7334 17.3176 45.1765 17.3176Z" fill="white"/>
<path d="M22.4412 28.4239C21.8932 28.4239 21.3718 28.1028 21.1426 27.5671C20.5401 26.1585 19.0319 24.6519 17.6261 24.0505C16.9092 23.7439 16.5767 22.9143 16.8833 22.1974C17.1899 21.4805 18.0195 21.1477 18.7365 21.4546C20.7911 22.3334 22.8408 24.3579 23.7385 26.4566C24.1387 27.392 23.4461 28.4239 22.4412 28.4239Z" fill="#EEF4FF"/>
<path d="M27.7656 26.2946C27.6376 26.2946 27.5106 26.2767 27.3882 26.2428C26.9882 26.1317 26.6419 25.8475 26.4668 25.4371C25.3082 22.7284 22.4706 19.887 19.7562 18.7266C19.039 18.4197 18.7059 17.5896 19.0127 16.8734C19.3195 16.1562 20.1496 15.823 20.8659 16.1308C23.2574 17.1529 25.6715 19.1538 27.3882 21.4635C28.0725 22.383 28.6456 23.3515 29.0626 24.3266C29.4626 25.2621 28.7699 26.2946 27.7656 26.2946Z" fill="#EEF4FF"/>
<path d="M27.7657 26.2945C27.6377 26.2945 27.5106 26.2767 27.3882 26.2428V21.4635C28.0725 22.383 28.6457 23.3515 29.0626 24.3266C29.4626 25.2621 28.7699 26.2945 27.7657 26.2945Z" fill="#D6F3FF"/>
</svg>
