<svg width="48" height="48" viewBox="0 0 48 48" fill="none" xmlns="http://www.w3.org/2000/svg">
<path d="M24 32.7822L15.9999 27.9822V19.9822L24 24.7822V32.7822Z" fill="#00B3FF"/>
<path d="M24.0001 32.7822L32 27.9822V19.9822L24.0001 24.7822V32.7822Z" fill="#008FCC"/>
<path d="M15.9999 19.9824L24 15.1824L32 19.9824L24 24.7824L15.9999 19.9824Z" fill="#33C2FF"/>
<path fill-rule="evenodd" clip-rule="evenodd" d="M20.96 3.50218L23.36 0.302205C23.3944 0.26058 23.432 0.222987 23.4735 0.18858C23.8271 -0.101764 24.3487 -0.0514198 24.6399 0.302205L27.0399 3.50218L25.76 4.46218L24.8 3.18221V9.58224H23.1999V3.18221L22.2399 4.46218L20.96 3.50218ZM24.8 38.3823V44.7824L25.7601 43.5024L27.04 44.4624L24.64 47.6624C24.5944 47.7232 24.5408 47.7768 24.48 47.8224C24.1264 48.0872 23.6248 48.016 23.36 47.6624L20.96 44.4624L22.2399 43.5024L23.1999 44.7824V38.3823H24.8ZM9.6 24.7823V23.1822H3.19997L4.47994 22.2222L3.51994 20.9423L0.319966 23.3423C-0.0336588 23.6071 -0.104815 24.1087 0.159935 24.4623C0.205498 24.5231 0.259123 24.5767 0.319966 24.6223L3.51994 27.0223L4.47994 25.7424L3.19997 24.7824H9.6V24.7823ZM44.48 20.9423L47.6799 23.3423C47.7408 23.3879 47.7944 23.4415 47.8401 23.5022C48.1048 23.8558 48.0337 24.3574 47.68 24.6222L44.4801 27.0222L43.5201 25.7423L44.8 24.7823H38.4V23.1822H44.7999L43.52 22.2222L44.48 20.9423ZM8.95272 11.4223L8.72715 9.83914L13.252 14.364L14.3832 13.2328L9.85834 8.70794L11.4415 8.93351L11.6679 7.34951L7.70875 6.78232C7.27196 6.71754 6.86471 7.01913 6.79993 7.45591C6.78878 7.53354 6.78878 7.61276 6.79993 7.69113L7.36553 11.6503L8.95272 11.4223ZM39.2727 38.1254L39.0471 36.5423L40.6327 36.3143L41.1983 40.2734C41.2038 40.311 41.2063 40.3486 41.2063 40.3871C41.2063 40.8286 40.8479 41.187 40.4063 41.187C40.3679 41.187 40.3303 41.1847 40.2927 41.1791L36.3335 40.6135L36.5599 39.0295L38.1415 39.2566L33.6166 34.7318L34.7478 33.6006L39.2727 38.1254ZM13.2519 33.5991L8.72717 38.124L8.95274 36.5408L7.36874 36.3143L6.79995 40.2735C6.73752 40.7111 7.0408 41.1159 7.47833 41.1791C7.51592 41.1847 7.55436 41.1871 7.59195 41.1871C7.63039 41.1871 7.66799 41.1846 7.70558 41.1791L11.6647 40.6135L11.4383 39.0295L9.85518 39.2551L14.38 34.7302L13.2519 33.5991ZM39.2729 9.84069L34.748 14.3655L33.6168 13.2328L38.1417 8.70791L36.5585 8.93347L36.3321 7.34947L40.2913 6.78387C40.5409 6.74712 40.7929 6.83112 40.9705 7.01028C41.1489 7.18868 41.2329 7.43994 41.1969 7.6895L40.6313 11.6487L39.0473 11.4223L39.2729 9.84069Z" fill="#33C2FF"/>
<path fill-rule="evenodd" clip-rule="evenodd" d="M23.2 11.1821H24.8V12.7822H23.2V11.1821ZM23.2 35.1824H24.8V36.7824H23.2V35.1824ZM12.8 23.1823H11.2V24.7823H12.8V23.1823ZM35.2 23.1823H36.8V24.7823H35.2V23.1823ZM15.5115 16.6291L16.6429 15.4977L15.5115 14.3663L14.3801 15.4977L15.5115 16.6291ZM33.6172 32.4675L32.4859 33.5989L31.3545 32.4675L32.4859 31.3362L33.6172 32.4675ZM15.52 33.5986L16.6514 32.4673L15.52 31.3359L14.3886 32.4673L15.52 33.5986ZM33.6172 15.4967L32.4859 16.6281L31.3545 15.4967L32.4859 14.3653L33.6172 15.4967Z" fill="#008FCC"/>
<path d="M27.1839 17.0927L19.1432 21.8678L20.7016 22.8031L28.7424 18.0278L27.1839 17.0927Z" fill="white"/>
</svg>
