<svg width="40" height="38" viewBox="0 0 40 38" fill="none" xmlns="http://www.w3.org/2000/svg">
<path d="M29.4534 0.249023H3.51563C1.57657 0.249023 0 1.82637 0 3.76466V22.5148C0 24.4539 1.57657 26.0305 3.51563 26.0305C5.97579 26.0305 6.30626 26.0305 6.30626 26.0305H7.03126V31.8899C7.03126 32.9353 8.29845 33.4517 9.03127 32.7189C12.3031 29.4462 10.0055 31.7446 15.3759 26.3742C15.5962 26.1539 15.8931 26.0305 16.2048 26.0305H29.4533C31.3916 26.0305 32.969 24.4539 32.969 22.5148C32.969 11.5726 32.969 14.7335 32.969 3.76466C32.969 1.82637 31.3917 0.249023 29.4534 0.249023ZM5.85946 7.28029H22.4222C23.0698 7.28029 23.594 7.80451 23.594 8.45216C23.594 9.09982 23.0698 9.62404 22.4222 9.62404H5.85946C5.21181 9.62404 4.68759 9.09982 4.68759 8.45216C4.68759 7.80451 5.21181 7.28029 5.85946 7.28029ZM17.7346 18.9992H5.85946C5.21181 18.9992 4.68759 18.475 4.68759 17.8273C4.68759 17.1797 5.21181 16.6555 5.85946 16.6555H17.7346C18.3822 16.6555 18.9064 17.1797 18.9064 17.8273C18.9064 18.475 18.3822 18.9992 17.7346 18.9992ZM27.1097 14.3116H5.85946C5.21181 14.3116 4.68759 13.7874 4.68759 13.1398C4.68759 12.4921 5.21181 11.9679 5.85946 11.9679H27.1097C27.7573 11.9679 28.2815 12.4921 28.2815 13.1398C28.2815 13.7874 27.7573 14.3116 27.1097 14.3116Z" fill="#33C2FF"/>
<path d="M36.4844 4.93665H35.3282V22.515C35.3282 25.7457 32.6839 28.3744 29.4531 28.3744H16.8462L14.3462 30.7026H24.2804L30.9683 37.4062C31.7031 38.1409 32.9687 37.6252 32.9687 36.5777V30.7026H36.4844C38.423 30.7026 40 29.1411 40 27.2026V8.45236C40.0001 6.51368 38.4231 4.93665 36.4844 4.93665Z" fill="#008FCC"/>
</svg>
