<svg width="20" height="20" viewBox="0 0 20 20" fill="none" xmlns="http://www.w3.org/2000/svg">
<path fill-rule="evenodd" clip-rule="evenodd" d="M8.7661 1.57557C4.82461 2.14784 1.75811 5.42061 1.50388 9.4566H5.85503C6.02068 6.59319 7.03752 3.84999 8.7661 1.57557ZM11.234 1.57557C12.9625 3.84999 13.9794 6.59319 14.145 9.4566H18.4962C18.2419 5.42061 15.1754 2.14784 11.234 1.57557ZM13.0563 9.4566C12.8796 6.63461 11.8087 3.94198 10 1.76985C8.19132 3.94198 7.12042 6.63461 6.94379 9.4566H13.0563ZM6.94379 10.5434H13.0563C12.8796 13.3654 11.8087 16.058 10 18.2302C8.19132 16.058 7.12043 13.3654 6.94379 10.5434ZM5.85503 10.5434H1.50388C1.75811 14.5794 4.82461 17.8522 8.7661 18.4244C7.03752 16.15 6.02068 13.4068 5.85503 10.5434ZM11.2339 18.4244C12.9625 16.15 13.9794 13.4068 14.145 10.5434H18.4962C18.2419 14.5794 15.1754 17.8522 11.2339 18.4244ZM10 19.6C15.302 19.6 19.6 15.3019 19.6 10C19.6 4.69807 15.302 0.400002 10 0.400002C4.69809 0.400002 0.400024 4.69807 0.400024 10C0.400024 15.3019 4.69809 19.6 10 19.6Z" fill="#0F3057"/>
</svg>
