<svg width="100" height="100" viewBox="0 0 100 100" fill="none" xmlns="http://www.w3.org/2000/svg">
<path fill-rule="evenodd" clip-rule="evenodd" d="M30.1513 25.9949L40.0164 17.5533C40.4264 7.80514 48.4863 0 58.3334 0C67.484 0 75.0912 6.74015 76.4507 15.5161L89.022 21.5854C90.1852 20.5971 91.6908 20.0002 93.3334 20.0002C97.0102 20.0002 100 22.9902 100 26.6668C100 30.3433 97.01 33.3334 93.3334 33.3334C89.6567 33.3334 86.6668 30.3433 86.6668 26.6668C86.6668 25.8524 86.8135 25.0716 87.0819 24.3496L76.6412 19.309C76.3778 24.306 74.1038 28.7794 70.6152 31.9329L79.179 43.3513C79.4512 43.3393 79.7249 43.3332 80 43.3332C90.1084 43.3332 98.3334 51.5582 98.3334 61.6666C98.3334 71.775 90.1084 80 80 80C73.1774 80 67.2129 76.2531 64.0561 70.7093L57.3498 75.7384C57.9873 77.5987 58.3334 79.593 58.3334 81.6666C58.3334 81.8726 58.33 82.0778 58.3232 82.2822L70.6886 88.252C71.8517 87.2637 73.3573 86.6668 75 86.6668C78.6768 86.6668 81.6666 89.6568 81.6666 93.3334C81.6666 97.01 78.6768 100 75 100C71.3232 100 68.3334 97.01 68.3334 93.3334C68.3334 92.519 68.4801 91.7382 68.7485 91.0162L57.8715 85.765C56.0197 93.8424 48.8161 99.9027 40.2078 99.9988C40.1387 99.9996 40.0694 100 40 100C30.4534 100 22.5866 92.6638 21.7417 83.3334H13.1225C12.3808 86.2059 9.76801 88.3334 6.6666 88.3334C2.99004 88.3334 0 85.3434 0 81.6666C0 77.99 2.99004 75 6.6666 75C9.76795 75 12.3808 77.1276 13.1225 80.0002H21.7417C22.5864 70.6696 30.4532 63.3332 40 63.3332C46.8237 63.3332 52.7891 67.0813 55.9455 72.6266L62.6512 67.5979C62.0131 65.7367 61.6666 63.7413 61.6666 61.6666C61.6666 53.1347 67.5261 45.9445 75.432 43.9093L67.9516 33.9354C65.1537 35.6666 61.858 36.6666 58.3334 36.6666C49.371 36.6666 41.8892 30.2009 40.3079 21.6894L32.4976 28.3728C34.9374 31.3395 36.4653 35.0831 36.6483 39.1704L45.9204 46.3971C47.0486 45.5217 48.4644 45.0002 50 45.0002C53.6768 45.0002 56.6666 47.9902 56.6666 51.6668C56.6666 55.3433 53.6768 58.3334 50 58.3334C46.3232 58.3334 43.3334 55.3433 43.3334 51.6668C43.3334 50.7313 43.527 49.8403 43.8762 49.0316L36.388 43.1954C34.8716 51.7861 27.352 58.3334 18.3334 58.3334C8.225 58.3334 0 50.1084 0 40C0 30.4533 7.3363 22.5865 16.6668 21.7417V13.1226C13.7942 12.3809 11.6668 9.7681 11.6668 6.6668C11.6668 2.99023 14.6567 0 18.3334 0C22.0102 0 25 2.99004 25 6.6666C25 9.76788 22.8725 12.3808 20 13.1226V21.7417C23.8478 22.0901 27.3565 23.6327 30.1513 25.9949ZM43.3336 18.2547C43.3359 18.3059 43.3359 18.3571 43.3336 18.4081C43.3552 22.8115 45.2834 26.7722 48.3334 29.5051V28.3582C48.3334 25.5883 50.65 23.3332 53.4984 23.3332H63.1684C66.0166 23.3332 68.3334 25.5883 68.3334 28.3599V29.5051C71.4007 26.7567 73.3334 22.7667 73.3334 18.3334C73.3334 10.0617 66.6051 3.3334 58.3334 3.3334C50.088 3.3334 43.3761 10.0191 43.3336 18.2547ZM93.3334 23.3334C91.4951 23.3334 90 24.8283 90 26.6668C90 28.5051 91.4949 30.0002 93.3334 30.0002C95.1717 30.0002 96.6668 28.5053 96.6668 26.6668C96.6668 24.8283 95.1717 23.3334 93.3334 23.3334ZM6.6666 78.3334C4.82832 78.3334 3.3332 79.8283 3.3332 81.6668C3.3332 83.5051 4.82812 85.0002 6.6666 85.0002C8.50508 85.0002 10 83.5051 10 81.6666C10 79.8283 8.50508 78.3334 6.6666 78.3334ZM75 90C73.1617 90 71.6666 91.4949 71.6666 93.3334C71.6666 95.1717 73.1615 96.6668 75 96.6668C76.8383 96.6668 78.3334 95.1719 78.3334 93.3334C78.3334 91.4949 76.8383 90 75 90ZM28.3334 51.1717C31.3939 48.4294 33.3249 44.4509 33.3334 40.0294C33.333 40.0094 33.333 39.9894 33.3334 39.9694C33.3168 31.7117 26.5949 25 18.3334 25C10.0617 25 3.3334 31.7283 3.3334 40C3.3334 44.4333 5.26616 48.4233 8.3334 51.1717V50.025C8.3334 47.2551 10.65 45 13.4984 45H23.1684C26.0166 45 28.3334 47.2551 28.3334 50.0268V51.1717ZM50 48.3334C48.1617 48.3334 46.6666 49.8283 46.6666 51.6668C46.6666 53.5051 48.1615 55.0002 50 55.0002C51.8383 55.0002 53.3334 53.5053 53.3334 51.6668C53.3334 49.8283 51.8383 48.3334 50 48.3334ZM95 61.6666C95 66.0999 93.0672 70.0899 90 72.8382V71.6934C90 68.9217 87.6832 66.6666 84.835 66.6666H75.165C72.3166 66.6666 70 68.9217 70 71.6916V72.8382C66.9328 70.0899 65 66.0999 65 61.6666C65 53.3949 71.7283 46.6666 80 46.6666C88.2717 46.6666 95 53.3949 95 61.6666ZM73.3334 56.6668C73.3334 60.3433 76.3232 63.3334 80 63.3334C83.6768 63.3334 86.6666 60.3433 86.6666 56.6668C86.6666 52.9902 83.6768 50.0002 80 50.0002C76.3234 50.0002 73.3334 52.99 73.3334 56.6668ZM76.6666 56.6668C76.6666 54.8283 78.1617 53.3334 80 53.3334C81.8383 53.3334 83.3334 54.8283 83.3334 56.6668C83.3334 58.5053 81.8383 60.0002 80 60.0002C78.1615 60.0002 76.6666 58.5051 76.6666 56.6668ZM73.3334 75.0916C77.4816 77.1582 82.5184 77.1582 86.6668 75.0916V71.6934C86.6668 70.76 85.8451 70 84.8352 70H75.1652C74.1553 70 73.3336 70.76 73.3336 71.6934V75.0916H73.3334ZM25 81.6666C25 73.3949 31.7283 66.6666 40 66.6666C48.2717 66.6666 55 73.3949 55 81.6666C55 86.0999 53.0672 90.0899 50 92.8382V91.6934C50 88.9217 47.6832 86.6666 44.835 86.6666H35.165C32.3166 86.6666 30 88.9217 30 91.6916V92.8383C26.9328 90.0899 25 86.0999 25 81.6666ZM40 83.3334C36.3232 83.3334 33.3334 80.3434 33.3334 76.6668C33.3334 72.9902 36.3232 70 40 70C43.6768 70 46.6666 72.99 46.6666 76.6666C46.6666 80.3432 43.6768 83.3334 40 83.3334ZM40 73.3334C38.1617 73.3334 36.6666 74.8283 36.6666 76.6668C36.6666 78.5053 38.1617 80 40 80C41.8383 80 43.3334 78.5051 43.3334 76.6666C43.3334 74.8281 41.8383 73.3334 40 73.3334ZM46.6668 95.0916C42.5184 97.1582 37.4816 97.1582 33.3334 95.0916H33.3336V91.6934C33.3336 90.76 34.1553 90 35.1652 90H44.8352C45.8451 90 46.6668 90.76 46.6668 91.6934V95.0916ZM18.3334 41.6666C14.6567 41.6666 11.6668 38.6765 11.6668 35C11.6668 31.3234 14.6568 28.3334 18.3334 28.3334C22.01 28.3334 25 31.3232 25 35C25 38.6767 22.01 41.6666 18.3334 41.6666ZM18.3334 31.6666C16.4951 31.6666 15 33.1615 15 35C15 36.8384 16.4949 38.3334 18.3334 38.3334C20.1719 38.3334 21.6668 36.8384 21.6668 35C21.6668 33.1615 20.1717 31.6666 18.3334 31.6666ZM11.6668 53.425H11.6666C15.8149 55.4916 20.8516 55.4916 25 53.425V50.0268C25 49.0934 24.1783 48.3334 23.1684 48.3334H13.4984C12.4885 48.3334 11.6668 49.0934 11.6668 50.0268V53.425ZM58.3334 20C54.6567 20 51.6668 17.01 51.6668 13.3334C51.6668 9.65685 54.6568 6.66681 58.3334 6.66681C62.01 6.66681 65 9.65665 65 13.3334C65 17.0102 62.01 20 58.3334 20ZM58.3334 10C56.4951 10 55 11.4949 55 13.3334C55 15.1719 56.4949 16.6668 58.3334 16.6668C60.1717 16.6668 61.6668 15.1719 61.6668 13.3334C61.6668 11.4949 60.1717 10 58.3334 10ZM65 31.7584C60.8516 33.825 55.8148 33.825 51.6666 31.7584H51.6668V28.3601C51.6668 27.4267 52.4885 26.6668 53.4984 26.6668H63.1684C64.1783 26.6668 65 27.4267 65 28.3601V31.7584ZM18.3334 3.3334C16.4951 3.3334 15 4.82832 15 6.6668C15 8.50527 16.4949 10 18.3334 10C20.1719 10 21.6668 8.50508 21.6668 6.6666C21.6668 4.82812 20.1717 3.3334 18.3334 3.3334Z" fill="#00587A"/>
</svg>
