<svg width="42" height="42" viewBox="0 0 42 42" fill="none" xmlns="http://www.w3.org/2000/svg">
<path d="M5.25 0H27.75V1.5H5.25V0Z" fill="#66D1FF"/>
<path d="M29.25 0H30.75V1.5H29.25V0Z" fill="#66D1FF"/>
<path d="M40.5 13.5H27C26.6023 13.5005 26.2211 13.6587 25.9399 13.9399C25.6587 14.2211 25.5005 14.6023 25.5 15V40.5C25.5005 40.8977 25.6587 41.2789 25.9399 41.5601C26.2211 41.8413 26.6023 41.9995 27 42H40.5C40.8977 41.9995 41.2789 41.8413 41.5601 41.5601C41.8413 41.2789 41.9995 40.8977 42 40.5V15C41.9995 14.6023 41.8413 14.2211 41.5601 13.9399C41.2789 13.6587 40.8977 13.5005 40.5 13.5ZM34.5 15H36V16.5H34.5V15ZM31.5 15H33V16.5H31.5V15ZM33.75 19.5C34.6717 19.4998 35.5773 19.7423 36.3756 20.2031L35.6244 21.5016C34.9094 21.0888 34.0782 20.9236 33.2597 21.0314C32.4412 21.1392 31.6811 21.5141 31.0974 22.0979C30.5137 22.6817 30.1389 23.4418 30.0311 24.2604C29.9234 25.0789 30.0888 25.9101 30.5016 26.625C30.9144 27.34 31.5515 27.8988 32.3143 28.2147C33.077 28.5307 33.9227 28.5861 34.7201 28.3724C35.5176 28.1588 36.2223 27.688 36.7249 27.033C37.2275 26.3781 37.4999 25.5756 37.5 24.75H39C39 25.7884 38.6921 26.8034 38.1152 27.6667C37.5383 28.5301 36.7184 29.203 35.7591 29.6004C34.7998 29.9977 33.7442 30.1017 32.7258 29.8991C31.7074 29.6966 30.7719 29.1965 30.0377 28.4623C29.3035 27.7281 28.8034 26.7926 28.6009 25.7742C28.3983 24.7558 28.5023 23.7002 28.8996 22.7409C29.297 21.7816 29.9699 20.9617 30.8333 20.3848C31.6966 19.8079 32.7116 19.5 33.75 19.5ZM27.75 32.25H29.25V33.75H27.75V32.25ZM34.5 40.5H33V39H34.5V40.5ZM39.75 36.75H27.75V35.25H39.75V36.75ZM39.75 33.75H30.75V32.25H39.75V33.75ZM34.2803 26.7803C34.2107 26.85 34.128 26.9052 34.037 26.9429C33.946 26.9806 33.8485 27 33.75 27C33.6515 27 33.554 26.9806 33.463 26.9429C33.372 26.9052 33.2893 26.85 33.2197 26.7803L31.3328 24.8935L32.3935 23.8328L33.75 25.1894L39.2197 19.7197L40.2803 20.7803L34.2803 26.7803Z" fill="#33C2FF"/>
<path fill-rule="evenodd" clip-rule="evenodd" d="M37.5 12V3H32.25V9C32.25 9.19891 32.171 9.38968 32.0303 9.53033C31.8897 9.67098 31.6989 9.75 31.5 9.75H25.5C25.3011 9.75 25.1103 9.67098 24.9697 9.53033C24.829 9.38968 24.75 9.19891 24.75 9V3H19.5V21H24V15C24.0009 14.2046 24.3173 13.4421 24.8797 12.8797C25.4421 12.3173 26.2046 12.0009 27 12H37.5ZM12.75 28.5C12.75 28.6989 12.671 28.8897 12.5303 29.0303C12.3897 29.171 12.1989 29.25 12 29.25H6C5.80109 29.25 5.61032 29.171 5.46967 29.0303C5.32902 28.8897 5.25 28.6989 5.25 28.5V22.5H0V40.5H18V22.5H12.75V28.5ZM15 37.5H16.5V39H15V37.5ZM12 39V37.5H13.5V39H12ZM11.25 22.5H6.75V27.75H11.25V22.5ZM12.75 9C12.75 9.19891 12.671 9.38968 12.5303 9.53033C12.3897 9.67098 12.1989 9.75 12 9.75H6C5.80109 9.75 5.61032 9.67098 5.46967 9.53033C5.32902 9.38968 5.25 9.19891 5.25 9V3H0V21H18V3H12.75V9ZM15 18H16.5V19.5H15V18ZM12 19.5V18H13.5V19.5H12ZM24 22.5H19.5V40.5H24V22.5ZM6.75 3H11.25V8.25H6.75V3ZM30.75 3H26.25V8.25H30.75V3Z" fill="#008FCC"/>
</svg>
