<svg width="48" height="48" viewBox="0 0 48 48" fill="none" xmlns="http://www.w3.org/2000/svg">
<path d="M22.4 4.80005V43.2001C22.4 45.4081 20.608 47.2001 18.4 47.2001C16.192 47.2001 14.4 45.4081 14.4 43.2001C14.4 43.1441 14.416 43.088 14.416 43.024C14.032 43.136 13.624 43.2001 13.2 43.2001C10.768 43.2001 8.80005 41.232 8.80005 38.8C8.80005 38.384 8.86405 37.9761 8.97605 37.5921C8.91205 37.5921 8.85605 37.6 8.80005 37.6C6.15205 37.6 4.00005 35.448 4.00005 32.8C4.00005 31.5201 4.50405 30.352 5.32805 29.496C2.74405 28.992 0.800049 26.7281 0.800049 24C0.800049 21.272 2.74405 19.008 5.32805 18.504C4.50405 17.648 4.00005 16.48 4.00005 15.2C4.00005 12.552 6.15205 10.4 8.80005 10.4C8.85605 10.4 8.91205 10.408 8.97605 10.408C8.86405 10.024 8.80005 9.61605 8.80005 9.20005C8.80005 6.76805 10.768 4.80005 13.2 4.80005C13.624 4.80005 14.032 4.86405 14.416 4.97605C14.416 4.91205 14.4 4.85605 14.4 4.80005C14.4 2.59205 16.192 0.800049 18.4 0.800049C20.608 0.800049 22.4 2.59205 22.4 4.80005Z" fill="#33C2FF"/>
<path d="M42.672 18.504C45.256 19.008 47.2 21.272 47.2 24C47.2 26.7281 45.256 28.992 42.672 29.496C43.496 30.352 44 31.5201 44 32.8C44 35.448 41.848 37.6 39.2 37.6C39.144 37.6 39.088 37.5921 39.024 37.5921C39.136 37.9761 39.2 38.384 39.2 38.8C39.2 41.232 37.232 43.2001 34.8 43.2001C34.376 43.2001 33.968 43.136 33.584 43.024C33.584 43.088 33.6 43.1441 33.6 43.2001C33.6 45.4081 31.808 47.2001 29.6 47.2001C27.392 47.2001 25.6 45.4081 25.6 43.2001V4.80005C25.6 2.59205 27.392 0.800049 29.6 0.800049C31.808 0.800049 33.6 2.59205 33.6 4.80005C33.6 4.85605 33.584 4.91205 33.584 4.97605C33.968 4.86405 34.376 4.80005 34.8 4.80005C37.232 4.80005 39.2 6.76805 39.2 9.20005C39.2 9.61605 39.136 10.024 39.024 10.408C39.088 10.408 39.144 10.4 39.2 10.4C41.848 10.4 44 12.552 44 15.2C44 16.48 43.496 17.648 42.672 18.504Z" fill="#33C2FF"/>
<path d="M33.6 11.2C34.4837 11.2 35.2 10.4837 35.2 9.6C35.2 8.71634 34.4837 8 33.6 8C32.7163 8 32 8.71634 32 9.6C32 10.4837 32.7163 11.2 33.6 11.2Z" fill="white"/>
<path d="M38.4 22.4C39.2837 22.4 40 21.6836 40 20.8C40 19.9163 39.2837 19.2 38.4 19.2C37.5164 19.2 36.8 19.9163 36.8 20.8C36.8 21.6836 37.5164 22.4 38.4 22.4Z" fill="white"/>
<path d="M30.4 40C31.2836 40 32 39.2837 32 38.4C32 37.5164 31.2836 36.8 30.4 36.8C29.5163 36.8 28.8 37.5164 28.8 38.4C28.8 39.2837 29.5163 40 30.4 40Z" fill="white"/>
<path d="M38.4 34.4C39.2837 34.4 40 33.6836 40 32.8C40 31.9163 39.2837 31.2 38.4 31.2C37.5164 31.2 36.8 31.9163 36.8 32.8C36.8 33.6836 37.5164 34.4 38.4 34.4Z" fill="white"/>
<path d="M16.8 11.2C17.6837 11.2 18.4 10.4837 18.4 9.6C18.4 8.71634 17.6837 8 16.8 8C15.9164 8 15.2 8.71634 15.2 9.6C15.2 10.4837 15.9164 11.2 16.8 11.2Z" fill="white"/>
<path d="M10.4 29.5999C11.2837 29.5999 12 28.8836 12 27.9999C12 27.1162 11.2837 26.3999 10.4 26.3999C9.51639 26.3999 8.80005 27.1162 8.80005 27.9999C8.80005 28.8836 9.51639 29.5999 10.4 29.5999Z" fill="white"/>
<path d="M15.2 36.0003C16.0837 36.0003 16.8 35.2839 16.8 34.4003C16.8 33.5166 16.0837 32.8003 15.2 32.8003C14.3164 32.8003 13.6 33.5166 13.6 34.4003C13.6 35.2839 14.3164 36.0003 15.2 36.0003Z" fill="white"/>
<path d="M9.6 16.8001C10.4837 16.8001 11.2 16.0838 11.2 15.2001C11.2 14.3164 10.4837 13.6001 9.6 13.6001C8.71634 13.6001 8 14.3164 8 15.2001C8 16.0838 8.71634 16.8001 9.6 16.8001Z" fill="white"/>
<path fill-rule="evenodd" clip-rule="evenodd" d="M3.2 32.8C3.2 31.7776 3.4768 30.7912 3.9936 29.9296C1.6216 28.9672 0 26.6384 0 24C0 21.3616 1.6216 19.0328 3.9936 18.0704C3.4768 17.2088 3.2 16.2224 3.2 15.2C3.2 12.3768 5.3 10.0344 8.0208 9.6536C8.0072 9.5024 8 9.3512 8 9.2C8 6.1792 10.6312 3.7376 13.6632 4.0216C14.036 1.744 16.0184 0 18.4 0C21.0472 0 23.2 2.1528 23.2 4.8V43.2C23.2 45.8472 21.0472 48 18.4 48C16.0184 48 14.036 46.256 13.6632 43.9792C10.6344 44.2528 8 41.8216 8 38.8C8 38.6488 8.0072 38.4976 8.0208 38.3464C5.3 37.9656 3.2 35.6232 3.2 32.8ZM16 34.4C16 33.9592 15.6408 33.6 15.2 33.6C14.7592 33.6 14.4 33.9592 14.4 34.4C14.4 34.8408 14.7592 35.2 15.2 35.2C15.6408 35.2 16 34.8408 16 34.4ZM17.6 34.4C17.6 35.4416 16.9288 36.3216 16 36.6528V38.4H21.6V27.2H16V32.1472C16.9288 32.4784 17.6 33.3584 17.6 34.4ZM6.088 18.7488C5.9992 19.0264 5.7656 19.2344 5.4784 19.2904C3.2312 19.728 1.6 21.7088 1.6 24C1.6 26.2912 3.2312 28.272 5.4784 28.7096C5.7656 28.7656 5.9992 28.9728 6.088 29.2512C6.1768 29.5296 6.1064 29.8344 5.9048 30.0464C5.192 30.7944 4.8 31.7728 4.8 32.8C4.8 35.0056 6.5944 36.8 8.8 36.8C8.8096 36.7992 8.936 36.792 8.9456 36.792C9.1936 36.7824 9.4456 36.8976 9.6032 37.0992C9.76 37.3008 9.812 37.5656 9.7416 37.8112C9.648 38.14 9.6 38.4728 9.6 38.8C9.6 40.7848 11.2152 42.4 13.2 42.4C13.5312 42.4 13.8664 42.352 14.196 42.2568C14.2688 42.236 14.3432 42.2256 14.4176 42.2256C14.5952 42.2256 14.7704 42.2848 14.9128 42.3976C15.116 42.5576 15.2288 42.8048 15.2168 43.0624C15.2152 43.088 15.204 43.192 15.2008 43.2168C15.2 44.9648 16.6352 46.4 18.4 46.4C20.1648 46.4 21.6 44.9648 21.6 43.2V40H15.2C14.7584 40 14.4 39.6416 14.4 39.2V36.6528C13.4712 36.3216 12.8 35.4416 12.8 34.4C12.8 33.3584 13.4712 32.4784 14.4 32.1472V26.4C14.4 25.9584 14.7584 25.6 15.2 25.6H21.6V21.6H11.2V25.7472C12.1288 26.0784 12.8 26.9584 12.8 28C12.8 29.3232 11.7232 30.4 10.4 30.4C9.0768 30.4 8 29.3232 8 28C8 26.9584 8.6712 26.0784 9.6 25.7472V20.8C9.6 20.3584 9.9584 20 10.4 20H21.6V16H16.8H11.8528C11.5216 16.9288 10.6416 17.6 9.6 17.6C8.2768 17.6 7.2 16.5232 7.2 15.2C7.2 13.8768 8.2768 12.8 9.6 12.8C10.6416 12.8 11.5216 13.4712 11.8528 14.4H16V11.8528C15.0712 11.5216 14.4 10.6416 14.4 9.6C14.4 8.2768 15.4768 7.2 16.8 7.2C18.1232 7.2 19.2 8.2768 19.2 9.6C19.2 10.6416 18.5288 11.5216 17.6 11.8528V14.4H21.6V4.8C21.6 3.0352 20.1648 1.6 18.4 1.6C16.6352 1.6 15.2 3.0352 15.2 4.8L15.2032 4.82392C15.2082 4.86016 15.2162 4.91821 15.2168 4.9376C15.2288 5.1952 15.116 5.4424 14.9136 5.6024C14.7112 5.7616 14.444 5.8136 14.1968 5.7432C13.8656 5.6488 13.5304 5.6 13.2 5.6C11.2152 5.6 9.6 7.2152 9.6 9.2C9.6 9.5272 9.648 9.86 9.7416 10.1888C9.812 10.4344 9.7608 10.6992 9.6032 10.9008C9.4456 11.1024 9.1936 11.2128 8.9456 11.208C8.9344 11.2072 8.8528 11.2024 8.8416 11.2024C6.592 11.2024 4.8 12.996 4.8 15.2C4.8 16.2272 5.192 17.2056 5.9048 17.9536C6.1064 18.1656 6.1768 18.4704 6.088 18.7488ZM16.8 8.8C16.3592 8.8 16 9.1592 16 9.6C16 10.0408 16.3592 10.4 16.8 10.4C17.2408 10.4 17.6 10.0408 17.6 9.6C17.6 9.1592 17.2408 8.8 16.8 8.8ZM9.6 16C10.0408 16 10.4 15.6408 10.4 15.2C10.4 14.7592 10.0408 14.4 9.6 14.4C9.1592 14.4 8.8 14.7592 8.8 15.2C8.8 15.6408 9.1592 16 9.6 16ZM10.4 28.8C10.8408 28.8 11.2 28.4408 11.2 28C11.2 27.5592 10.8408 27.2 10.4 27.2C9.9592 27.2 9.6 27.5592 9.6 28C9.6 28.4408 9.9592 28.8 10.4 28.8ZM44.8 15.2C44.8 16.2224 44.5232 17.2088 44.0064 18.0704C46.3784 19.0328 48 21.3616 48 24C48 26.6384 46.3784 28.9672 44.0064 29.9296C44.5232 30.7912 44.8 31.7776 44.8 32.8C44.8 35.6232 42.7 37.9656 39.9792 38.3464C39.9928 38.4976 40 38.6488 40 38.8C40 41.8208 37.376 44.2624 34.3368 43.9784C33.964 46.256 31.9816 48 29.6 48C26.9528 48 24.8 45.8472 24.8 43.2V4.8C24.8 2.1528 26.9528 0 29.6 0C31.9816 0 33.964 1.744 34.3368 4.0216C37.3784 3.74 40 6.1792 40 9.2C40 9.3512 39.9928 9.5024 39.9792 9.6536C42.7 10.0344 44.8 12.3768 44.8 15.2ZM41.912 29.2512C42.0008 28.9736 42.2352 28.7656 42.5216 28.7096C44.7688 28.272 46.4 26.292 46.4 24C46.4 21.7088 44.7688 19.728 42.5216 19.2904C42.2344 19.2344 42.0008 19.0272 41.912 18.7488C41.8232 18.4704 41.8936 18.1656 42.0952 17.9536C42.808 17.2056 43.2 16.2272 43.2 15.2C43.2 12.9944 41.4056 11.2 39.2 11.2C39.1904 11.2008 39.064 11.208 39.0544 11.208C38.792 11.2128 38.5536 11.1024 38.3968 10.9008C38.24 10.6992 38.188 10.4344 38.2584 10.1888C38.352 9.86 38.4 9.5272 38.4 9.2C38.4 7.2152 36.7848 5.6 34.8 5.6C34.4696 5.6 34.1344 5.6488 33.8032 5.7432C33.5552 5.8152 33.288 5.7616 33.0864 5.6024C32.884 5.4424 32.7712 5.1952 32.7832 4.9376C32.7848 4.912 32.796 4.808 32.7992 4.7832C32.8 3.0352 31.3648 1.6 29.6 1.6C27.8352 1.6 26.4 3.0352 26.4 4.8V14.4H32.8V11.8528C31.8712 11.5216 31.2 10.6416 31.2 9.6C31.2 8.2768 32.2768 7.2 33.6 7.2C34.9232 7.2 36 8.2768 36 9.6C36 10.6416 35.3288 11.5216 34.4 11.8528V15.2C34.4 15.6416 34.0416 16 33.6 16H26.4V20H36.1472C36.4784 19.0712 37.3584 18.4 38.4 18.4C39.7232 18.4 40.8 19.4768 40.8 20.8C40.8 22.1232 39.7232 23.2 38.4 23.2C37.3584 23.2 36.4784 22.5288 36.1472 21.6H26.4V25.6H38.4C38.8416 25.6 39.2 25.9584 39.2 26.4V30.5472C40.1288 30.8784 40.8 31.7584 40.8 32.8C40.8 34.1232 39.7232 35.2 38.4 35.2C37.0768 35.2 36 34.1232 36 32.8C36 31.7584 36.6712 30.8784 37.6 30.5472V27.2H31.2V36.1472C32.1288 36.4784 32.8 37.3584 32.8 38.4C32.8 39.7232 31.7232 40.8 30.4 40.8C29.0768 40.8 28 39.7232 28 38.4C28 37.3584 28.6712 36.4784 29.6 36.1472V27.2H26.4V43.2C26.4 44.9648 27.8352 46.4 29.6 46.4C31.3648 46.4 32.8 44.9648 32.8 43.2L32.7968 43.1761C32.7918 43.1398 32.7838 43.0818 32.7832 43.0624C32.7712 42.8048 32.884 42.5576 33.0864 42.3976C33.288 42.2384 33.5552 42.184 33.8032 42.2568C34.1344 42.3512 34.4696 42.4 34.8 42.4C36.7848 42.4 38.4 40.7848 38.4 38.8C38.4 38.4728 38.352 38.14 38.2584 37.8112C38.188 37.5656 38.2392 37.3008 38.3968 37.0992C38.5544 36.8968 38.792 36.7816 39.0544 36.792C39.0656 36.7928 39.1464 36.7976 39.1584 36.7976C41.408 36.7976 43.2 35.004 43.2 32.8C43.2 31.7728 42.808 30.7944 42.0952 30.0464C41.8936 29.8344 41.8232 29.5296 41.912 29.2512ZM30.4 39.2C30.8408 39.2 31.2 38.8408 31.2 38.4C31.2 37.9592 30.8408 37.6 30.4 37.6C29.9592 37.6 29.6 37.9592 29.6 38.4C29.6 38.8408 29.9592 39.2 30.4 39.2ZM38.4 33.6C38.8408 33.6 39.2 33.2408 39.2 32.8C39.2 32.3592 38.8408 32 38.4 32C37.9592 32 37.6 32.3592 37.6 32.8C37.6 33.2408 37.9592 33.6 38.4 33.6ZM38.4 20C37.9592 20 37.6 20.3592 37.6 20.8C37.6 21.2408 37.9592 21.6 38.4 21.6C38.8408 21.6 39.2 21.2408 39.2 20.8C39.2 20.3592 38.8408 20 38.4 20ZM33.6 8.8C33.1592 8.8 32.8 9.1592 32.8 9.6C32.8 10.0408 33.1592 10.4 33.6 10.4C34.0408 10.4 34.4 10.0408 34.4 9.6C34.4 9.1592 34.0408 8.8 33.6 8.8ZM36 14.4H37.6V16H36V14.4ZM4.80002 23.1999H3.20002V24.7999H4.80002V23.1999ZM8.00002 32.7999H9.60003V34.3999H8.00002V32.7999ZM44 23.1999H42.4V24.7999H44V23.1999Z" fill="#008FCC"/>
</svg>
