<svg width="100" height="100" viewBox="0 0 100 100" fill="none" xmlns="http://www.w3.org/2000/svg">
<path d="M33.2216 64.4804C50.4617 64.4804 64.4375 50.5045 64.4375 33.2644C64.4375 16.0243 50.4617 2.04846 33.2216 2.04846C15.9815 2.04846 2.00562 16.0243 2.00562 33.2644C2.00562 50.5045 15.9815 64.4804 33.2216 64.4804Z" fill="#D4E4F7"/>
<path d="M58.3352 51.8087L65.3073 58.7808L59.0688 65.0194L52.135 58.0855" fill="#EEF4FC"/>
<path d="M33.2216 54.3351C44.8586 54.3351 54.2923 44.9014 54.2923 33.2644C54.2923 21.6274 44.8586 12.1937 33.2216 12.1937C21.5846 12.1937 12.1509 21.6274 12.1509 33.2644C12.1509 44.9014 21.5846 54.3351 33.2216 54.3351Z" fill="#A8C9F0"/>
<path d="M41.7269 41.7197L38.4432 41.1127C37.1295 40.8697 36.1764 39.7242 36.1764 38.388V37.6578H30.2602V38.388C30.2602 39.724 29.3068 40.8695 27.9934 41.1125L24.7111 41.7193C21.5258 42.3084 19.2145 45.0863 19.2145 48.3255V49.0029C22.9375 52.3183 27.8436 54.3337 33.2213 54.3337C38.5969 54.3337 43.5013 52.3197 47.2238 49.0066V48.3257C47.2238 45.0867 44.9123 42.3086 41.7269 41.7197Z" fill="white"/>
<path d="M29.0166 40.6796L33.2201 47.4013L37.4219 40.6796L33.2193 38.2759L29.0166 40.6796Z" fill="white"/>
<path d="M40.4716 26.5179V31.0236C40.4716 35.0291 37.2246 38.2759 33.2193 38.2759C29.2138 38.2759 25.967 35.0289 25.967 31.0236V26.5179H40.4716Z" fill="white"/>
<path d="M33.2193 18.9449C29.2138 18.9449 25.967 22.1919 25.967 26.1972V27.9431H29.5129C31.8701 27.9431 34.1062 26.8996 35.6201 25.0927L40.4716 27.9431V26.1972C40.4716 22.1919 37.2246 18.9449 33.2193 18.9449Z" fill="white"/>
<path d="M55.8593 68.2292L83.0596 95.4297C86.4637 98.8338 91.983 98.8338 95.3875 95.4297C97.0893 93.7276 97.9406 91.4969 97.9406 89.2656C97.9406 87.0344 97.0899 84.8039 95.3875 83.1016L68.1872 55.9012L55.8593 68.2292Z" fill="#A8C9F0"/>
<path d="M16.0529 98.0488C23.8109 98.0488 30.0999 91.7597 30.0999 84.0018C30.0999 76.2438 23.8109 69.9547 16.0529 69.9547C8.29494 69.9547 2.00586 76.2438 2.00586 84.0018C2.00586 91.7597 8.29494 98.0488 16.0529 98.0488Z" fill="#A8C9F0"/>
<path d="M26.056 92.8961C26.056 90.7924 24.5565 88.9875 22.4886 88.6018L19.9441 88.1274L12.1507 88.1291L9.61596 88.6018C7.54799 88.9875 6.04858 90.7924 6.04858 92.8961V93.8596C8.59623 96.4447 12.1367 98.0488 16.0529 98.0488C19.9687 98.0488 23.5087 96.4451 26.0562 93.8606L26.056 92.8961Z" fill="white"/>
<path d="M16.0523 77.3581C13.4214 77.3581 11.2886 79.4909 11.2886 82.1218V85.2217C11.2886 87.8526 13.4214 89.9854 16.0523 89.9854C18.6831 89.9854 20.816 87.8526 20.816 85.2217V82.1218C20.8158 79.4907 18.6831 77.3581 16.0523 77.3581Z" fill="white"/>
<path d="M84.0254 30.0453C91.7833 30.0453 98.0724 23.7562 98.0724 15.9982C98.0724 8.24025 91.7833 1.95117 84.0254 1.95117C76.2674 1.95117 69.9783 8.24025 69.9783 15.9982C69.9783 23.7562 76.2674 30.0453 84.0254 30.0453Z" fill="#A8C9F0"/>
<path d="M94.0293 24.8925C94.0293 22.7888 92.5299 20.9839 90.4619 20.5982L87.9174 20.1238L80.124 20.1255L77.5893 20.5982C75.5213 20.9839 74.0219 22.7888 74.0219 24.8925V25.856C76.5694 28.4413 80.1098 30.0454 84.026 30.0454C87.9418 30.0454 91.4818 28.4417 94.0293 25.8572V24.8925Z" fill="white"/>
<path d="M84.0254 9.35443C81.3945 9.35443 79.2617 11.4872 79.2617 14.1181V17.2181C79.2617 19.8489 81.3945 21.9817 84.0254 21.9817C86.6562 21.9817 88.789 19.8489 88.789 17.2181V14.1181C88.789 11.4872 86.6562 9.35443 84.0254 9.35443Z" fill="white"/>
<path fill-rule="evenodd" clip-rule="evenodd" d="M65.06 11.8025H68.5112C68.1471 13.1406 67.949 14.5465 67.949 15.9982C67.949 24.1859 74.1328 30.9525 82.0748 31.8831V49.8647C82.0748 50.9423 82.9482 51.8157 84.0258 51.8157C85.1033 51.8157 85.9767 50.9423 85.9767 49.8647V31.8632C93.8427 30.8621 99.9454 24.1316 99.9454 15.9982C99.9454 7.17674 92.7687 0 83.9473 0C78.0793 0 72.9422 3.17753 70.1582 7.90057H65.06C63.9824 7.90057 63.109 8.77401 63.109 9.85154C63.109 10.9291 63.9824 11.8025 65.06 11.8025ZM86.7594 17.2179C86.7594 18.7687 85.4976 20.0306 83.9467 20.0306C82.3957 20.0306 81.134 18.7689 81.134 17.2179V14.1181C81.134 12.5672 82.3957 11.3054 83.9467 11.3054C85.4974 11.3054 86.7594 12.5672 86.7594 14.1181V17.2179ZM79.4703 22.2173C80.6592 23.283 82.2283 23.9326 83.9469 23.9326C85.6654 23.9326 87.2345 23.283 88.4232 22.2173L90.0254 22.5162C91.1693 22.7294 91.9996 23.7289 91.9996 24.8925V25.0144C89.8591 26.9281 87.0375 28.0943 83.9473 28.0943C80.8566 28.0943 78.0346 26.9279 75.8941 25.0138V24.8925C75.8941 23.7291 76.7242 22.7294 77.8684 22.5162L79.4703 22.2173ZM83.9473 3.90195C90.6172 3.90195 96.0433 9.3283 96.0433 15.998C96.0433 17.9113 95.5949 19.7213 94.8005 21.3312C93.8789 19.9818 92.4431 18.9976 90.7408 18.6802L90.509 18.6371C90.6078 18.1795 90.6613 17.7048 90.6613 17.2179V14.1181C90.6613 10.4156 87.6492 7.4035 83.9467 7.4035C80.2441 7.4035 77.232 10.4156 77.232 14.1181V17.2181C77.232 17.705 77.2855 18.1797 77.3844 18.6373L77.1525 18.6804C75.4506 18.9978 74.015 19.9816 73.0932 21.3306C72.299 19.7209 71.8508 17.9111 71.8508 15.9982C71.8512 9.3283 77.2773 3.90195 83.9473 3.90195ZM68.1874 53.95C68.7048 53.95 69.2011 54.1557 69.5669 54.5215L96.7672 81.7221C98.7821 83.7371 99.8918 86.416 99.8918 89.2656C99.8918 92.1146 98.7822 94.7937 96.7674 96.8089C94.6873 98.8888 91.9553 99.9287 89.2235 99.9287C86.4916 99.9287 83.7598 98.8888 81.6801 96.8091L60.6013 75.7301L60.6011 75.7299L54.4798 69.6086C53.7179 68.8467 53.7179 67.6113 54.4798 66.8494L56.3099 65.0194L51.9448 60.6543C48.8458 62.7742 45.3493 64.3918 41.5548 65.374C41.3908 65.4164 41.2263 65.4367 41.0646 65.4367C40.1968 65.4367 39.405 64.8531 39.1773 63.9741C38.9072 62.9309 39.5339 61.8662 40.5771 61.5963C44.3421 60.6219 47.7749 58.9385 50.7497 56.7123C50.7519 56.7102 50.7536 56.7079 50.7558 56.7057C50.8819 56.5795 51.0218 56.4764 51.1696 56.392C53.2669 54.7629 55.1269 52.8602 56.7017 50.7426C56.7394 50.6846 56.7804 50.6284 56.8251 50.5739C60.4099 45.6815 62.4862 39.6676 62.4862 33.2634C62.4862 17.1267 49.3577 3.99858 33.2212 3.99858C17.0847 3.99858 3.95645 17.1267 3.95645 33.2634C3.95645 46.3163 12.7207 57.901 25.2699 61.4356C26.307 61.7278 26.9109 62.8053 26.6189 63.8424C26.3267 64.8797 25.249 65.484 24.2121 65.1914C17.3922 63.2705 11.2465 59.1022 6.90664 53.4543C2.42403 47.6204 0.0545044 40.6384 0.0545044 33.2634C0.0545044 14.9751 14.9332 0.0964355 33.2214 0.0964355C51.5097 0.0964355 66.3884 14.9751 66.3884 33.2634C66.3884 39.9663 64.3808 46.2915 60.8733 51.5874L65.3077 56.0217L66.8079 54.5215C67.1737 54.1557 67.67 53.95 68.1874 53.95ZM58.5063 54.7389C57.4456 55.9891 56.2915 57.161 55.0534 58.2446L59.0688 62.2604L62.5483 58.7809L58.5063 54.7389ZM84.4391 94.05C87.0774 96.688 91.37 96.6879 94.008 94.05C95.2858 92.7718 95.9895 91.0726 95.9893 89.2656C95.9893 87.4584 95.2856 85.7594 94.0077 84.4814L68.187 58.66L66.6878 60.1592L66.6868 60.1602L60.4483 66.3987L60.4474 66.3996L58.6183 68.2287L61.9806 71.591L66.7649 66.8069C67.5268 66.0449 68.762 66.0449 69.5241 66.8069C70.2862 67.5688 70.286 68.8041 69.5241 69.566L64.7399 74.3502L84.4391 94.05ZM31.2704 64.4791C31.2704 63.4016 32.1439 62.5281 33.2214 62.5281L33.3792 62.5277C34.4568 62.5174 35.3361 63.3881 35.3433 64.4656C35.3505 65.5432 34.4829 66.4225 33.4054 66.4297L33.2214 66.4301C32.1439 66.4301 31.2704 65.5567 31.2704 64.4791ZM82.646 56.055C83.0089 55.6921 83.5122 55.4833 84.0253 55.4833C84.5403 55.4833 85.0417 55.6921 85.4045 56.055C85.7694 56.4178 85.9762 56.9212 85.9762 57.4342C85.9762 57.9473 85.7694 58.4506 85.4045 58.8135C85.0417 59.1764 84.5383 59.3852 84.0253 59.3852C83.5122 59.3852 83.0108 59.1764 82.646 58.8135C82.2831 58.4506 82.0743 57.9473 82.0743 57.4342C82.0743 56.9212 82.2831 56.4178 82.646 56.055ZM41.6583 82.0507H31.9275C30.9615 74.1468 24.2131 68.0036 16.0527 68.0036C14.5658 68.0036 13.1275 68.2118 11.7605 68.5933V64.4769C11.7605 63.3993 10.8871 62.5259 9.80956 62.5259C8.73203 62.5259 7.85859 63.3993 7.85859 64.4769V70.2684C3.18848 73.0653 0.0545044 78.1737 0.0545044 84.0018C0.0545044 92.8233 7.23125 100 16.0527 100C24.2132 100 30.9617 93.8567 31.9275 85.953H41.6583C42.7359 85.953 43.6093 85.0796 43.6093 84.002C43.6093 82.9243 42.7359 82.0507 41.6583 82.0507ZM7.99941 93.0174V92.8963C7.99941 91.7329 8.82949 90.7333 9.97343 90.5198L11.5756 90.2211C12.7644 91.2868 14.3336 91.9364 16.0519 91.9364C17.7703 91.9364 19.3396 91.2868 20.5285 90.2211L22.1306 90.5198C23.2746 90.7331 24.1048 91.7325 24.1048 92.8963V93.0182C21.9646 94.9317 19.1427 96.0979 16.0525 96.0979C12.9621 96.0979 10.1398 94.9313 7.99941 93.0174ZM18.8648 85.2215C18.8648 86.7725 17.6031 88.0342 16.0521 88.0342C14.5014 88.0342 13.2394 86.7725 13.2394 85.2215V82.1216C13.2394 80.5708 14.5012 79.3089 16.0521 79.3089C17.6031 79.3089 18.8648 80.5706 18.8648 82.1216V85.2215ZM26.906 89.335C25.9843 87.9856 24.5484 87.0014 22.8463 86.684L22.6144 86.6409C22.7133 86.1833 22.7668 85.7087 22.7668 85.2217V82.1217C22.7668 78.4192 19.7547 75.4071 16.0521 75.4071C12.3496 75.4071 9.33769 78.4192 9.33769 82.1216V85.2215C9.33769 85.7085 9.39121 86.1831 9.49003 86.6407L9.2582 86.6838C7.55625 87.0012 6.1207 87.985 5.19883 89.334C4.40469 87.7243 3.95645 85.9145 3.95645 84.0016C3.95645 77.3317 9.38281 71.9056 16.0525 71.9056C22.7222 71.9056 28.1486 77.3319 28.1486 84.0016C28.1488 85.9151 27.7005 87.7251 26.906 89.335ZM57.8034 85.9526H49.9999C48.9224 85.9526 48.049 85.0792 48.049 84.0016C48.049 82.9241 48.9224 82.0507 49.9999 82.0507H57.8034C58.881 82.0507 59.7544 82.9241 59.7544 84.0016C59.7544 85.0792 58.881 85.9526 57.8034 85.9526ZM40.6351 90.2325C39.5575 90.2325 38.6841 91.1059 38.6841 92.1835C38.6841 93.261 39.5575 94.1344 40.6351 94.1344H40.6544C41.7319 94.1344 42.5958 93.261 42.5958 92.1835C42.5958 91.1059 41.7126 90.2325 40.6351 90.2325ZM48.0393 92.1835C48.0393 91.1059 48.9127 90.2325 49.9903 90.2325C51.0678 90.2325 51.951 91.1059 51.951 92.1835C51.951 93.261 51.0872 94.1344 50.0096 94.1344H49.9903C48.9127 94.1344 48.0393 93.261 48.0393 92.1835ZM59.3456 90.2325C58.2681 90.2325 57.3947 91.1059 57.3947 92.1835C57.3947 93.261 58.2681 94.1344 59.3456 94.1344H59.365C60.4425 94.1344 61.3064 93.261 61.3064 92.1835C61.3064 91.1059 60.4232 90.2325 59.3456 90.2325ZM33.2214 10.2418C45.9155 10.2418 56.243 20.5693 56.243 33.2635C56.243 45.9576 45.9155 56.2851 33.2214 56.2851C20.5273 56.2851 10.1996 45.9576 10.1996 33.2635C10.1996 20.5693 20.5273 10.2418 33.2214 10.2418ZM33.2214 14.1438C22.6787 14.1438 14.1017 22.7207 14.1017 33.2635C14.1017 37.5998 15.5537 41.6029 17.9955 44.814C19.1544 42.3234 21.4626 40.4471 24.3095 39.9207L27.6105 39.3103C27.8607 39.2644 28.1029 39.0734 28.2111 38.8455C25.6656 37.1971 23.9761 34.334 23.9761 31.0818V27.9838V26.5504V26.2279C23.9761 21.1303 28.1236 16.9828 33.2212 16.9828C38.3189 16.9828 42.4663 21.1301 42.4663 26.2279V26.5504V27.9838V31.0818C42.4663 34.3346 40.7765 37.198 38.23 38.8465C38.338 39.0726 38.5812 39.2644 38.83 39.3103L42.1327 39.9209C44.9798 40.4473 47.288 42.3236 48.447 44.8142C50.8889 41.6031 52.3411 37.6 52.3411 33.2635C52.3411 22.7207 43.7641 14.1438 33.2214 14.1438ZM29.4937 29.935H27.8783V31.0818C27.8783 34.0279 30.2753 36.425 33.2214 36.425C36.1675 36.425 38.5646 34.0281 38.5646 31.0818V29.1004L35.9482 27.5633C34.1603 29.0857 31.8833 29.935 29.4937 29.935ZM33.2214 20.8848C30.3404 20.8848 27.9848 23.1765 27.8818 26.0326H29.4937C31.2919 26.0326 32.9857 25.242 34.1407 23.8637C34.7526 23.1332 35.8028 22.952 36.6243 23.4346L38.2356 24.3815C37.4825 22.3424 35.5189 20.8848 33.2214 20.8848ZM33.2212 40.3269C32.7599 40.3269 32.3066 40.292 31.863 40.2263C31.7507 40.5109 31.6111 40.7816 31.4476 41.0367L33.2216 43.8734L34.9939 41.0385C34.8302 40.7828 34.6901 40.5115 34.5776 40.2265C34.1349 40.292 33.6819 40.3269 33.2212 40.3269ZM25.0193 43.758C22.8861 44.1525 21.3011 45.9197 21.1074 48.0447C24.4078 50.7543 28.6279 52.3832 33.2212 52.3832C37.8146 52.3832 42.0345 50.7545 45.335 48.0447C45.1413 45.9197 43.5561 44.1525 41.4231 43.7582L38.261 43.1736L34.8765 48.5883C34.5198 49.1586 33.8946 49.505 33.2222 49.505C32.5497 49.505 31.9245 49.1588 31.5679 48.5884L28.1816 43.1732L25.0193 43.758Z" fill="#00587A"/>
</svg>
