<svg width="100" height="100" viewBox="0 0 100 100" fill="none" xmlns="http://www.w3.org/2000/svg">
<path d="M92.9169 98.333H7.08316C4.09167 98.333 1.66705 95.9084 1.66705 92.9169V18.3334H98.333V92.9169C98.333 95.9084 95.9084 98.333 92.9169 98.333Z" fill="white"/>
<path d="M98.333 21.6667H1.66705V7.08316C1.66705 4.09167 4.09167 1.66705 7.08316 1.66705H92.9169C95.9084 1.66705 98.333 4.09167 98.333 7.08316V21.6667Z" fill="#A8C9F0"/>
<path d="M8.33362 8.33356H15.0002V15.0001H8.33362V8.33356Z" fill="#ADE8FF"/>
<path d="M21.6667 8.33356H28.3333V15.0001H21.6667V8.33356Z" fill="#ADE8FF"/>
<path d="M34.9999 8.33356H41.6664V15.0001H34.9999V8.33356Z" fill="#ADE8FF"/>
<path d="M50 98.3329H7.48828C4.27325 98.3329 1.66705 95.7267 1.66705 92.5117V21.6667H50V98.3329Z" fill="#A8C9F0"/>
<path d="M84.9999 88.3332H63.3332C60.5713 88.3332 58.3336 86.0947 58.3336 83.3336C58.3336 80.5718 60.5713 78.3333 63.3332 78.3333H84.9999C87.7617 78.3333 90.0002 80.5718 90.0002 83.3336C90.0002 86.0947 87.7617 88.3332 84.9999 88.3332Z" fill="#ADE8FF"/>
<path fill-rule="evenodd" clip-rule="evenodd" d="M15.0002 16.6664H8.33359C7.41348 16.6664 6.66656 15.9203 6.66656 15.0002V8.33359C6.66656 7.41348 7.41348 6.66656 8.33359 6.66656H15.0002C15.9203 6.66656 16.6664 7.41348 16.6664 8.33359V15.0002C16.6664 15.9203 15.9203 16.6664 15.0002 16.6664ZM9.99985 13.3331H13.3331V9.99985H9.99985V13.3331ZM28.3332 16.6664H21.6666C20.7465 16.6664 19.9996 15.9203 19.9996 15.0002V8.3336C19.9996 7.4135 20.7465 6.66658 21.6666 6.66658H28.3332C29.2533 6.66658 30.0002 7.4135 30.0002 8.3336V15.0002C30.0002 15.9203 29.2533 16.6664 28.3332 16.6664ZM23.3329 13.3331H26.6669V9.99986H23.3329V13.3331ZM34.9998 16.6664H41.6664C42.5865 16.6664 43.3334 15.9203 43.3334 15.0002V8.3336C43.3334 7.4135 42.5865 6.66658 41.6664 6.66658H34.9998C34.0797 6.66658 33.3335 7.4135 33.3335 8.3336V15.0002C33.3335 15.9203 34.0797 16.6664 34.9998 16.6664ZM40.0001 13.3331H36.6668V9.99986H40.0001V13.3331Z" fill="#00587A"/>
<path fill-rule="evenodd" clip-rule="evenodd" d="M38.3331 31.6666H43.3334C44.2535 31.6666 44.9997 30.9197 44.9997 30.0003C44.9997 29.0802 44.2535 28.3333 43.3334 28.3333H38.3331C37.413 28.3333 36.6668 29.0802 36.6668 30.0003C36.6668 30.9197 37.413 31.6666 38.3331 31.6666ZM8.33363 31.6666H31.6666C32.5867 31.6666 33.3336 30.9197 33.3336 30.0004C33.3336 29.0803 32.5867 28.3333 31.6666 28.3333H8.33363C7.41353 28.3333 6.66661 29.0803 6.66661 30.0004C6.66661 30.9197 7.41353 31.6666 8.33363 31.6666ZM43.3334 38.3331H19.9997C19.0803 38.3331 18.3334 37.587 18.3334 36.6669C18.3334 35.7468 19.0803 34.9999 19.9997 34.9999H43.3334C44.2535 34.9999 44.9997 35.7468 44.9997 36.6669C44.9997 37.587 44.2535 38.3331 43.3334 38.3331ZM8.33359 38.3331H13.3331C14.2532 38.3331 15.0002 37.587 15.0002 36.6669C15.0002 35.7468 14.2532 34.9999 13.3331 34.9999H8.33359C7.41348 34.9999 6.66656 35.7468 6.66656 36.6669C6.66656 37.587 7.41348 38.3331 8.33359 38.3331ZM31.6666 44.9997H8.33359C7.41348 44.9997 6.66656 44.2536 6.66656 43.3335C6.66656 42.4134 7.41348 41.6664 8.33359 41.6664H31.6666C32.5867 41.6664 33.3336 42.4134 33.3336 43.3335C33.3336 44.2536 32.5867 44.9997 31.6666 44.9997ZM38.3331 44.9997H43.3334C44.2535 44.9997 44.9997 44.2536 44.9997 43.3335C44.9997 42.4134 44.2535 41.6664 43.3334 41.6664H38.3331C37.413 41.6664 36.6668 42.4134 36.6668 43.3335C36.6668 44.2536 37.413 44.9997 38.3331 44.9997ZM43.3334 51.667H19.9997C19.0803 51.667 18.3334 50.9201 18.3334 50C18.3334 49.0799 19.0803 48.333 19.9997 48.333H43.3334C44.2535 48.333 44.9997 49.0799 44.9997 50C44.9997 50.9201 44.2535 51.667 43.3334 51.667ZM8.33359 51.667H13.3331C14.2532 51.667 15.0002 50.9201 15.0002 50C15.0002 49.0799 14.2532 48.333 13.3331 48.333H8.33359C7.41348 48.333 6.66656 49.0799 6.66656 50C6.66656 50.9201 7.41348 51.667 8.33359 51.667ZM31.6666 58.3336H8.33359C7.41348 58.3336 6.66656 57.5867 6.66656 56.6666C6.66656 55.7465 7.41348 55.0003 8.33359 55.0003H31.6666C32.5867 55.0003 33.3336 55.7465 33.3336 56.6666C33.3336 57.5867 32.5867 58.3336 31.6666 58.3336ZM38.3331 58.3336H43.3334C44.2535 58.3336 44.9997 57.5867 44.9997 56.6666C44.9997 55.7465 44.2535 55.0003 43.3334 55.0003H38.3331C37.413 55.0003 36.6668 55.7465 36.6668 56.6666C36.6668 57.5867 37.413 58.3336 38.3331 58.3336ZM43.3334 65.0002H19.9997C19.0803 65.0002 18.3334 64.2533 18.3334 63.3332C18.3334 62.413 19.0803 61.6669 19.9997 61.6669H43.3334C44.2535 61.6669 44.9997 62.413 44.9997 63.3332C44.9997 64.2533 44.2535 65.0002 43.3334 65.0002ZM8.33359 65.0002H13.3331C14.2532 65.0002 15.0002 64.2533 15.0002 63.3332C15.0002 62.413 14.2532 61.6669 13.3331 61.6669H8.33359C7.41348 61.6669 6.66656 62.413 6.66656 63.3332C6.66656 64.2533 7.41348 65.0002 8.33359 65.0002ZM31.6666 71.6667H8.33359C7.41348 71.6667 6.66656 70.9198 6.66656 69.9997C6.66656 69.0804 7.41348 68.3334 8.33359 68.3334H31.6666C32.5867 68.3334 33.3336 69.0804 33.3336 69.9997C33.3336 70.9198 32.5867 71.6667 31.6666 71.6667ZM38.3331 71.6667H43.3334C44.2535 71.6667 44.9997 70.9198 44.9997 69.9997C44.9997 69.0804 44.2535 68.3334 43.3334 68.3334H38.3331C37.413 68.3334 36.6668 69.0804 36.6668 69.9997C36.6668 70.9198 37.413 71.6667 38.3331 71.6667ZM43.3334 78.3333H19.9997C19.0803 78.3333 18.3334 77.5864 18.3334 76.667C18.3334 75.7469 19.0803 75 19.9997 75H43.3334C44.2535 75 44.9997 75.7469 44.9997 76.667C44.9997 77.5864 44.2535 78.3333 43.3334 78.3333ZM8.33359 78.3333H13.3331C14.2532 78.3333 15.0002 77.5864 15.0002 76.667C15.0002 75.7469 14.2532 75 13.3331 75H8.33359C7.41348 75 6.66656 75.7469 6.66656 76.667C6.66656 77.5864 7.41348 78.3333 8.33359 78.3333ZM31.6666 84.9999H8.33359C7.41348 84.9999 6.66656 84.2537 6.66656 83.3336C6.66656 82.4135 7.41348 81.6666 8.33359 81.6666H31.6666C32.5867 81.6666 33.3336 82.4135 33.3336 83.3336C33.3336 84.2537 32.5867 84.9999 31.6666 84.9999ZM38.3331 84.9999H43.3334C44.2535 84.9999 44.9997 84.2537 44.9997 83.3336C44.9997 82.4135 44.2535 81.6666 43.3334 81.6666H38.3331C37.413 81.6666 36.6668 82.4135 36.6668 83.3336C36.6668 84.2537 37.413 84.9999 38.3331 84.9999ZM43.3334 91.6664H19.9997C19.0803 91.6664 18.3334 90.9203 18.3334 90.0002C18.3334 89.0801 19.0803 88.3332 19.9997 88.3332H43.3334C44.2535 88.3332 44.9997 89.0801 44.9997 90.0002C44.9997 90.9203 44.2535 91.6664 43.3334 91.6664ZM8.33359 91.6664H13.3331C14.2532 91.6664 15.0002 90.9203 15.0002 90.0002C15.0002 89.0801 14.2532 88.3332 13.3331 88.3332H8.33359C7.41348 88.3332 6.66656 89.0801 6.66656 90.0002C6.66656 90.9203 7.41348 91.6664 8.33359 91.6664Z" fill="#00587A"/>
<path fill-rule="evenodd" clip-rule="evenodd" d="M100 21.6667V92.5003C100 96.6347 96.6347 100 92.5003 100H7.49969L7.48386 100C3.35763 99.9976 0 96.6385 0 92.5117V92.5003V21.6667V7.49969C0 3.36533 3.36533 0 7.49969 0H92.5003C96.6347 0 100 3.36533 100 7.49969V21.6667ZM3.33328 23.333V92.5003C3.33328 94.793 5.19708 96.6605 7.48833 96.6667H48.333V23.333H3.33328ZM51.667 23.333V96.6667H92.5003C94.7983 96.6667 96.6667 94.7968 96.6667 92.5003V23.333H51.667ZM96.6667 19.9997V7.49969C96.6667 5.20325 94.7968 3.33328 92.5003 3.33328H7.49969C5.20325 3.33328 3.33328 5.20325 3.33328 7.49969V19.9997L50 19.9997C50.0022 19.9997 50.0045 19.9997 50.0067 19.9997H96.6667Z" fill="#00587A"/>
<path d="M84.9999 90.0002H63.3332C59.6566 90.0002 56.6666 87.0102 56.6666 83.3336C56.6666 79.657 59.6566 76.6671 63.3332 76.6671H84.9999C88.6765 76.6671 91.6665 79.657 91.6665 83.3336C91.6665 87.0102 88.6765 90.0002 84.9999 90.0002ZM63.3332 80.0003C61.4953 80.0003 59.9999 81.4949 59.9999 83.3336C59.9999 85.1715 61.4953 86.6669 63.3332 86.6669H84.9999C86.8386 86.6669 88.3332 85.1715 88.3332 83.3336C88.3332 81.4949 86.8386 80.0003 84.9999 80.0003H63.3332Z" fill="#00587A"/>
<path fill-rule="evenodd" clip-rule="evenodd" d="M84.9999 53.3333H65.0001C64.3264 53.3333 63.7199 52.9282 63.4613 52.3087L55.1284 32.3082C54.9133 31.7932 54.9698 31.2065 55.2803 30.7434C55.59 30.2803 56.1096 30.0003 56.6665 30.0003H86.6668L86.6737 30.0003H91.6664C92.5865 30.0003 93.3335 30.7465 93.3335 31.6666C93.3335 32.5867 92.5865 33.3336 91.6664 33.3336H88.3331V38.3251L88.3331 38.3331L88.3331 38.3412V44.9889L88.3331 44.9997L88.3331 45.0105V51.6522L88.3332 51.667V58.33L88.3332 58.3336L88.3332 58.3372V63.3331C88.3332 63.3365 88.3331 63.3399 88.3331 63.3433C88.3276 67.0153 85.3398 69.9997 81.6666 69.9997C77.99 69.9997 75 67.0098 75 63.3331C75 62.1196 75.3257 60.9809 75.8944 59.9999H70.7724C71.341 60.9809 71.6667 62.1196 71.6667 63.3331C71.6667 67.0098 68.6768 69.9997 65.0002 69.9997C61.3236 69.9997 58.3336 67.0098 58.3336 63.3331C58.3336 59.6565 61.3236 56.6666 65.0002 56.6666H81.6666H84.9999V53.3333ZM81.6666 59.9999C79.8286 59.9999 78.3333 61.4952 78.3333 63.3331C78.3333 65.1718 79.8286 66.6664 81.6666 66.6664C83.5053 66.6664 84.9999 65.1718 84.9999 63.3331C84.9999 61.4952 83.5053 59.9999 81.6666 59.9999ZM84.9998 43.3334V40.0002H68.3334C67.4133 40.0002 66.6664 39.2532 66.6664 38.3331C66.6664 37.413 67.4133 36.6669 68.3334 36.6669H84.9998V33.3336H59.1667L66.1117 50H84.9998V46.6667H75C74.0799 46.6667 73.333 45.9198 73.333 44.9997C73.333 44.0803 74.0799 43.3334 75 43.3334H84.9998ZM65.0002 59.9999C63.1615 59.9999 61.6669 61.4952 61.6669 63.3331C61.6669 65.1718 63.1615 66.6664 65.0002 66.6664C66.8381 66.6664 68.3335 65.1718 68.3335 63.3331C68.3335 61.4952 66.8381 59.9999 65.0002 59.9999Z" fill="#00587A"/>
</svg>
