<svg width="80" height="88" viewBox="0 0 80 88" fill="none" xmlns="http://www.w3.org/2000/svg">
<path fill-rule="evenodd" clip-rule="evenodd" d="M42.2526 2.25253C42.2526 3.49657 41.2441 4.50506 40.0001 4.50506C38.7561 4.50506 37.7476 3.49657 37.7476 2.25253C37.7476 1.00849 38.7561 0 40.0001 0C41.2441 0 42.2526 1.00849 42.2526 2.25253ZM27.3523 50.4903C27.5276 50.6369 27.7445 50.7248 27.9724 50.7419C28.1974 50.7252 28.4111 50.6371 28.5824 50.4903C28.8102 50.317 29.0117 50.1115 29.1806 49.8803C29.3289 49.7089 29.4208 49.4959 29.4439 49.2704C29.4291 49.0368 29.3364 48.8148 29.1806 48.64C29.0105 48.4215 28.814 48.225 28.5955 48.0549C28.4228 47.904 28.2044 47.8154 27.9754 47.8033C27.7474 47.8204 27.5306 47.9083 27.3552 48.0549C27.127 48.2187 26.9249 48.416 26.7555 48.64C26.6055 48.8173 26.5172 49.0386 26.5039 49.2704C26.5212 49.4983 26.6092 49.7151 26.7555 49.8906C26.9222 50.1201 27.1235 50.3224 27.3523 50.4903ZM29.6135 52.9931C30.5945 52.9931 31.3653 53.0906 31.926 53.2856C32.1809 53.364 32.4173 53.4928 32.6214 53.6644C32.8254 53.836 32.9928 54.047 33.1137 54.2846C33.3463 54.7541 33.4604 55.4036 33.4604 56.23V63.0753H10.6922C9.90242 63.0906 9.11317 63.0234 8.3373 62.8749C7.79738 62.783 7.29862 62.5278 6.90826 62.1436C6.57282 61.7857 6.34123 61.2845 6.21349 60.64C5.9618 58.9815 5.9618 57.2946 6.21349 55.6361C6.34025 54.9916 6.57184 54.4904 6.90826 54.1325C7.29901 53.7489 7.79759 53.4937 8.3373 53.4012C9.11281 53.2533 9.90139 53.1852 10.6908 53.1978H16.0895V60.2626H20.6092V53.2022H23.1104V56.4596C23.4307 55.7473 23.9113 55.1186 24.5146 54.6225C25.1751 54.0776 25.9358 53.6671 26.754 53.4143C27.6792 53.125 28.6441 52.9829 29.6135 52.9931ZM9.78682 60.2626H13.5708V56.0208H9.78682C9.40799 56.0208 9.12861 56.094 8.94578 56.2402C8.76294 56.3865 8.67226 56.622 8.67226 56.9438V59.3367C8.67226 59.66 8.76294 59.8955 8.94578 60.0417C9.12861 60.188 9.40799 60.2626 9.78682 60.2626ZM24.4619 57.15C23.732 57.8799 23.3049 58.9213 23.1689 60.2626H30.9592V56.0354C30.4697 55.8814 29.6564 55.8043 28.5194 55.8043C26.7106 55.8053 25.3581 56.2539 24.4619 57.15ZM0.484195 74.0834C0.331311 73.9387 0.209541 73.7643 0.126322 73.5709C0.0431033 73.3775 0.000183105 73.1692 0.000183105 72.9586C0.000183105 72.7481 0.0431033 72.5398 0.126322 72.3464C0.209541 72.153 0.331311 71.9786 0.484195 71.8338C0.808021 71.5303 1.2385 71.3669 1.68213 71.3789C2.12266 71.3679 2.55091 71.5247 2.88007 71.8177C3.03585 71.9511 3.16009 72.1173 3.24382 72.3045C3.32754 72.4917 3.36866 72.6951 3.36422 72.9001C3.36941 73.1171 3.33018 73.3328 3.24894 73.534C3.16769 73.7353 3.04614 73.9177 2.89177 74.0703C2.73299 74.2273 2.54378 74.3502 2.33577 74.4315C2.12775 74.5127 1.90531 74.5506 1.68213 74.5427C1.23777 74.5542 0.806975 74.3891 0.484195 74.0834ZM0.356941 76.3857H2.98977V87.6148H0.356941V76.3857ZM20.2056 87.6147L20.1851 77.8586L15.3495 85.9312H14.1281L9.29248 77.9844V87.6147H6.68597V72.8958H8.93558L14.7863 82.6518L20.5259 72.8958H22.7755L22.7916 87.6147H20.2056ZM26.3547 84.9819C26.8603 85.8508 27.5997 86.5603 28.4887 87.0297C29.4435 87.5134 30.4988 87.7654 31.5692 87.7654C32.6395 87.7654 33.6948 87.5134 34.6496 87.0297C35.5386 86.5603 36.278 85.8508 36.7836 84.9819C37.3032 84.0771 37.5685 83.0486 37.5515 82.0054C37.5693 80.9662 37.3038 79.9417 36.7836 79.042C36.2772 78.1737 35.538 77.4644 34.6496 76.9942C33.6948 76.5105 32.6395 76.2584 31.5692 76.2584C30.4988 76.2584 29.4435 76.5105 28.4887 76.9942C27.6003 77.4644 26.8611 78.1737 26.3547 79.042C25.8345 79.9417 25.569 80.9662 25.5868 82.0054C25.5698 83.0486 25.8351 84.0771 26.3547 84.9819ZM34.9011 81.998C34.9021 83.0492 34.5867 83.8976 33.9548 84.5431C33.6437 84.8626 33.2695 85.1137 32.856 85.2804C32.4425 85.4471 31.9987 85.5258 31.5531 85.5114C30.5857 85.5124 29.79 85.1901 29.166 84.5446C28.5419 83.899 28.2298 83.0507 28.2298 81.9995C28.2347 80.9473 28.5487 80.099 29.1718 79.4544C29.7949 78.8099 30.5906 78.4876 31.5589 78.4876C32.0035 78.4738 32.446 78.5527 32.8585 78.7191C33.271 78.8856 33.6443 79.136 33.9548 79.4544C34.5847 80.099 34.9002 80.9469 34.9011 81.998ZM51.0695 72.0138V87.6147H48.5464V86.1637C48.1192 86.6921 47.5659 87.1046 46.9375 87.3631C46.2669 87.6348 45.5488 87.7701 44.8254 87.761C43.8093 87.7767 42.8063 87.5304 41.9132 87.0457C41.0576 86.5763 40.3538 85.8725 39.8844 85.017C39.4011 84.0867 39.1487 83.0537 39.1487 82.0053C39.1487 80.957 39.4011 79.924 39.8844 78.9937C40.3567 78.1429 41.06 77.4432 41.9132 76.9752C42.8063 76.4905 43.8093 76.2442 44.8254 76.2599C45.5237 76.253 46.2165 76.3837 46.8643 76.6446C47.4734 76.891 48.0142 77.2803 48.4411 77.7797V72.0138H51.0695ZM46.8439 85.0799C47.3511 84.7908 47.7663 84.3644 48.0418 83.8498C48.3322 83.2762 48.4836 82.6424 48.4836 81.9995C48.4836 81.3566 48.3322 80.7227 48.0418 80.1492C47.7655 79.6351 47.3504 79.2089 46.8439 78.9191C46.3205 78.6368 45.7352 78.489 45.1406 78.489C44.5459 78.489 43.9606 78.6368 43.4373 78.9191C42.9307 79.2089 42.5157 79.6351 42.2393 80.1492C41.9489 80.7227 41.7975 81.3566 41.7975 81.9995C41.7975 82.6424 41.9489 83.2762 42.2393 83.8498C42.5148 84.3644 42.9301 84.7908 43.4373 85.0799C43.9603 85.3631 44.5458 85.5114 45.1406 85.5114C45.7354 85.5114 46.3208 85.3631 46.8439 85.0799ZM65.4932 87.6149V76.3858L62.8647 76.3917V77.7593C62.4255 77.2741 61.8832 76.8932 61.2777 76.6447C60.6404 76.3847 59.9578 76.2539 59.2695 76.26C58.2491 76.2437 57.2418 76.49 56.3441 76.9753C55.4939 77.439 54.7936 78.1357 54.3256 78.9836C53.824 79.9083 53.572 80.9478 53.5943 81.9996C53.5727 83.0551 53.8246 84.0982 54.3256 85.0274C54.7907 85.8801 55.4914 86.5808 56.3441 87.0459C57.2418 87.5312 58.2491 87.7775 59.2695 87.7611C59.9929 87.7703 60.711 87.635 61.3816 87.3633C62.01 87.1048 62.5633 86.6923 62.9905 86.1639V87.6149H65.4932ZM62.9071 81.9982C62.9071 83.0493 62.5917 83.8977 61.9608 84.5432C61.6497 84.8614 61.2761 85.1115 60.8635 85.278C60.4508 85.4444 60.0082 85.5234 59.5635 85.5101C59.1203 85.5245 58.6791 85.4459 58.2682 85.2794C57.8573 85.1128 57.4859 84.8621 57.1778 84.5432C56.5547 83.8967 56.2427 83.0484 56.2417 81.9982C56.2407 80.9479 56.5528 80.1001 57.1778 79.4546C57.4859 79.1357 57.8573 78.885 58.2682 78.7184C58.6791 78.5519 59.1203 78.4733 59.5635 78.4877C60.0082 78.4744 60.4508 78.5534 60.8635 78.7198C61.2761 78.8862 61.6497 79.1364 61.9608 79.4546C62.5917 80.0991 62.9071 80.947 62.9071 81.9982ZM78.7173 77.5003C79.5725 78.3282 80.0001 79.5549 80.0001 81.1805V87.6163H77.376V81.5169C77.376 80.5359 77.1449 79.7963 76.6827 79.298C76.2205 78.7997 75.5603 78.5491 74.7022 78.5462C73.7339 78.5462 72.9699 78.8387 72.4102 79.4238C71.8505 80.0088 71.5701 80.846 71.5692 81.9352V87.6148H68.9363V72.0138H71.5692V77.6905C72.0177 77.2188 72.568 76.8556 73.1781 76.6286C73.8606 76.375 74.5842 76.2501 75.3122 76.26C76.7271 76.26 77.8621 76.6734 78.7173 77.5003ZM63.5917 64.4926C63.8205 64.5058 64.0385 64.5942 64.2119 64.7441C64.4314 64.914 64.6289 65.1106 64.7999 65.3292C64.9556 65.504 65.0483 65.726 65.0632 65.9596C65.0401 66.1851 64.9482 66.3981 64.7999 66.5696C64.6314 66.8011 64.4298 67.0066 64.2016 67.1795C64.0304 67.3263 63.8166 67.4144 63.5917 67.4311C63.3638 67.4141 63.1469 67.3261 62.9715 67.1795C62.7414 67.0123 62.539 66.8099 62.3718 66.5798C62.2252 66.4044 62.1373 66.1876 62.1202 65.9596C62.1335 65.7278 62.2218 65.5065 62.3718 65.3292C62.5412 65.1052 62.7434 64.9079 62.9715 64.7441C63.1473 64.5982 63.3639 64.5103 63.5917 64.4926ZM67.7223 64.7441C67.5491 64.594 67.331 64.5056 67.1021 64.4926C66.8744 64.5103 66.6577 64.5982 66.4819 64.7441C66.2543 64.908 66.0526 65.1052 65.8837 65.3292C65.7327 65.506 65.6438 65.7275 65.6307 65.9596C65.6477 66.1878 65.7363 66.4048 65.8837 66.5798C66.0504 66.8099 66.2523 67.0123 66.4819 67.1795C66.6573 67.3261 66.8742 67.4141 67.1021 67.4311C67.3272 67.4149 67.5411 67.3267 67.7121 67.1795C67.9408 67.0067 68.1428 66.8012 68.3118 66.5696C68.4598 66.3981 68.5512 66.1851 68.5736 65.9596C68.5594 65.7261 68.4672 65.5041 68.3118 65.3292C68.1406 65.1102 67.9426 64.9136 67.7223 64.7441ZM67.8583 53.2021V63.084V63.0854H45.7615C45.549 63.686 45.2908 64.2693 44.9892 64.8304C44.574 65.5993 44.0882 66.3279 43.5382 67.0069C42.9913 67.686 42.3783 68.3092 41.7084 68.8674L40.0688 66.9747C40.6118 66.543 41.1053 66.0525 41.5402 65.512C41.9823 64.9687 42.3767 64.3883 42.7191 63.7773C42.8493 63.5462 42.9561 63.3151 43.0629 63.084H40.4695C39.8631 63.0984 39.2587 63.0094 38.6821 62.8207C38.2091 62.6586 37.7954 62.3586 37.4944 61.9592C37.16 61.482 36.9375 60.9356 36.8435 60.3605C36.6977 59.5596 36.6306 58.7464 36.6432 57.9324C36.6265 57.1359 36.715 56.3406 36.9064 55.5673C37.0466 54.9924 37.3327 54.4633 37.7372 54.0315C38.155 53.6243 38.675 53.3378 39.2423 53.2021C39.9997 53.0191 40.7773 52.9341 41.5563 52.9491C42.4136 52.9388 43.2705 52.9901 44.1204 53.1027C44.8615 53.2152 45.5879 53.4089 46.2866 53.6804V60.2654H50.7654C50.6354 59.5295 50.5717 58.7835 50.5752 58.0363C50.5722 57.323 50.6428 56.6113 50.7858 55.9125C50.9323 55.2144 51.1219 54.5262 51.3534 53.8515C51.8856 53.6374 52.4339 53.4653 52.993 53.3367C53.5787 53.2023 54.1723 53.1046 54.7702 53.0441C55.3674 52.9816 55.9674 52.9499 56.5678 52.9491C57.5624 52.9491 58.3611 53.0563 58.9637 53.2709C59.5116 53.4466 59.9806 53.8089 60.2889 54.2947C60.5687 54.7569 60.7087 55.3737 60.7087 56.145V60.2625H65.3556V53.2021H67.8583ZM39.3067 56.7345V60.2625H42.88C43.2204 60.2722 43.4534 60.2088 43.5792 60.0723C43.705 59.9358 43.7679 59.692 43.7679 59.341V55.7662H40.4037C39.9649 55.7662 39.6724 55.833 39.5261 55.9666C39.3798 56.1002 39.3067 56.3561 39.3067 56.7345ZM53.3148 60.2625H58.2148L58.2075 55.9139C57.9267 55.8559 57.6423 55.8173 57.3562 55.7984C57.0549 55.7779 56.7009 55.7662 56.2943 55.7662C55.6438 55.7684 54.9941 55.8109 54.3489 55.8934C54.0242 55.9329 53.7024 55.9856 53.3821 56.0485C53.3714 56.088 53.3595 56.1293 53.3476 56.1705C53.3335 56.2193 53.3194 56.268 53.3075 56.3132C53.1707 56.8763 53.1029 57.4539 53.1057 58.0334C53.1025 58.5036 53.1235 58.9738 53.1686 59.4419C53.1985 59.7185 53.2474 59.9926 53.3148 60.2625ZM73.9767 49.838H71.4536V63.0841H73.9767V49.838ZM40.0001 18.0217C41.2441 18.0217 42.2526 17.0132 42.2526 15.7691C42.2526 14.5251 41.2441 13.5166 40.0001 13.5166C38.7561 13.5166 37.7476 14.5251 37.7476 15.7691C37.7476 17.0132 38.7561 18.0217 40.0001 18.0217ZM32.1147 6.75761C32.1147 7.37963 31.6105 7.88388 30.9885 7.88388C30.3664 7.88388 29.8622 7.37963 29.8622 6.75761C29.8622 6.13559 30.3664 5.63135 30.9885 5.63135C31.6105 5.63135 32.1147 6.13559 32.1147 6.75761ZM49.0101 25.9056C49.6321 25.9056 50.1364 25.4013 50.1364 24.7793C50.1364 24.1573 49.6321 23.6531 49.0101 23.6531C48.3881 23.6531 47.8839 24.1573 47.8839 24.7793C47.8839 25.4013 48.3881 25.9056 49.0101 25.9056ZM32.1147 24.7793C32.1147 25.4013 31.6105 25.9056 30.9885 25.9056C30.3664 25.9056 29.8622 25.4013 29.8622 24.7793C29.8622 24.1573 30.3664 23.6531 30.9885 23.6531C31.6105 23.6531 32.1147 24.1573 32.1147 24.7793ZM49.0101 7.88388C49.6321 7.88388 50.1364 7.37963 50.1364 6.75761C50.1364 6.13559 49.6321 5.63135 49.0101 5.63135C48.3881 5.63135 47.8839 6.13559 47.8839 6.75761C47.8839 7.37963 48.3881 7.88388 49.0101 7.88388ZM28.7359 15.7691C28.7359 17.0132 27.7274 18.0217 26.4834 18.0217C25.2393 18.0217 24.2308 17.0132 24.2308 15.7691C24.2308 14.5251 25.2393 13.5166 26.4834 13.5166C27.7274 13.5166 28.7359 14.5251 28.7359 15.7691ZM53.5167 18.0217C54.7607 18.0217 55.7692 17.0132 55.7692 15.7691C55.7692 14.5251 54.7607 13.5166 53.5167 13.5166C52.2726 13.5166 51.2642 14.5251 51.2642 15.7691C51.2642 17.0132 52.2726 18.0217 53.5167 18.0217ZM42.2526 29.2857C42.2526 30.5298 41.2441 31.5382 40.0001 31.5382C38.7561 31.5382 37.7476 30.5298 37.7476 29.2857C37.7476 28.0417 38.7561 27.0332 40.0001 27.0332C41.2441 27.0332 42.2526 28.0417 42.2526 29.2857Z" fill="white"/>
</svg>
