<svg width="200" height="40" viewBox="0 0 200 40" fill="none" xmlns="http://www.w3.org/2000/svg">
<g clip-path="url(#clip0)">
<path fill-rule="evenodd" clip-rule="evenodd" d="M53.4867 11.8767C53.2741 11.6749 53.1047 11.4319 52.989 11.1626C52.8733 10.8932 52.8137 10.6031 52.8137 10.31C52.8137 10.0169 52.8733 9.72679 52.989 9.45745C53.1047 9.18811 53.2741 8.94514 53.4867 8.74333C53.9387 8.32422 54.5371 8.09921 55.1533 8.11667C55.7647 8.09918 56.3601 8.31351 56.82 8.71667C57.0354 8.90304 57.2069 9.1348 57.3222 9.39529C57.4374 9.65578 57.4936 9.93856 57.4867 10.2233C57.492 10.5256 57.4356 10.8257 57.3209 11.1054C57.2063 11.385 57.0359 11.6384 56.82 11.85C56.5988 12.0698 56.3352 12.2423 56.0453 12.3569C55.7553 12.4715 55.445 12.5259 55.1333 12.5167C54.5218 12.5274 53.9305 12.2976 53.4867 11.8767ZM53.31 15.0833H56.9767V30.72H53.31V15.0833ZM80.95 30.72L80.92 17.1333L74.1867 28.3767H72.4867L65.7533 17.31V30.72H62.1233V10.2233H65.2567L73.3967 23.81L81.3967 10.2233H84.53L84.5566 30.72H80.95ZM89.5133 27.0433C90.2172 28.2553 91.2475 29.2451 92.4867 29.9C93.816 30.5728 95.2851 30.9234 96.775 30.9234C98.2649 30.9234 99.7339 30.5728 101.063 29.9C102.302 29.2451 103.333 28.2553 104.037 27.0433C104.76 25.7852 105.13 24.3546 105.107 22.9033C105.132 21.455 104.762 20.0273 104.037 18.7733C103.329 17.5684 102.299 16.5848 101.063 15.9333C99.7339 15.2605 98.2649 14.91 96.775 14.91C95.2851 14.91 93.816 15.2605 92.4867 15.9333C91.2505 16.5848 90.2208 17.5684 89.5133 18.7733C88.7883 20.0273 88.4184 21.455 88.4433 22.9033C88.4197 24.3546 88.7895 25.7852 89.5133 27.0433ZM101.117 24.8069C100.891 25.4149 100.545 25.9714 100.1 26.4433C99.6667 26.8839 99.1468 27.2299 98.5731 27.4594C97.9993 27.6888 97.3842 27.7969 96.7666 27.7767C96.1487 27.8 95.5327 27.6933 94.9585 27.4637C94.3843 27.234 93.8647 26.8864 93.4333 26.4433C92.5667 25.5567 92.1322 24.3767 92.13 22.9033C92.1278 21.43 92.5622 20.2489 93.4333 19.36C93.8647 18.9169 94.3843 18.5693 94.9585 18.3397C95.5327 18.11 96.1487 18.0034 96.7666 18.0267C97.3842 18.0064 97.9993 18.1145 98.5731 18.344C99.1468 18.5735 99.6667 18.9194 100.1 19.36C100.545 19.8324 100.892 20.3895 101.118 20.9981C101.344 21.6068 101.446 22.2547 101.417 22.9033C101.445 23.5515 101.344 24.1988 101.117 24.8069ZM123.933 9V30.72H120.417V28.7C119.822 29.4332 119.053 30.0061 118.18 30.3667C117.246 30.7475 116.245 30.9368 115.237 30.9233C113.821 30.9437 112.424 30.5994 111.18 29.9233C109.989 29.2694 109.009 28.2887 108.357 27.0967C107.658 25.8111 107.306 24.3661 107.333 22.9033C107.304 21.441 107.658 19.9965 108.36 18.7133C109.016 17.5282 109.995 16.5538 111.183 15.9033C112.427 15.2273 113.824 14.8829 115.24 14.9033C116.212 14.8907 117.177 15.0697 118.08 15.43C118.928 15.7734 119.681 16.3152 120.277 17.01V9H123.933ZM118.047 27.19C118.752 26.7864 119.329 26.1927 119.713 25.4767C120.137 24.6863 120.351 23.8001 120.333 22.9033C120.351 22.008 120.139 21.1231 119.717 20.3333C119.333 19.6173 118.755 19.0236 118.05 18.62C117.321 18.2273 116.506 18.0217 115.678 18.0217C114.85 18.0217 114.035 18.2273 113.307 18.62C112.601 19.0236 112.024 19.6173 111.64 20.3333C111.218 21.1254 111.007 22.0127 111.027 22.91C111.007 23.8062 111.218 24.6923 111.64 25.4833C112.024 26.1994 112.601 26.7931 113.307 27.1967C114.035 27.5894 114.85 27.7949 115.678 27.7949C116.506 27.7949 117.321 27.5894 118.05 27.1967L118.047 27.19ZM144.017 30.72V15.0833H140.357V17C139.748 16.3152 138.992 15.7763 138.147 15.4233C137.259 15.0636 136.308 14.8846 135.35 14.8967C133.926 14.8742 132.519 15.2186 131.267 15.8967C130.084 16.5436 129.109 17.5135 128.457 18.6933C127.764 19.984 127.42 21.4325 127.457 22.8967C127.422 24.3638 127.766 25.8151 128.457 27.11C129.105 28.2974 130.08 29.2738 131.267 29.9233C132.519 30.6014 133.926 30.9458 135.35 30.9233C136.358 30.937 137.359 30.7477 138.293 30.3667C139.167 30.0066 139.937 29.4337 140.533 28.7V30.72H144.017ZM140.117 24.8069C139.891 25.4149 139.545 25.9714 139.1 26.4433C138.667 26.8839 138.147 27.2299 137.573 27.4593C136.999 27.6888 136.384 27.7969 135.767 27.7767C135.149 27.8 134.533 27.6933 133.958 27.4637C133.384 27.234 132.865 26.8864 132.433 26.4433C131.992 25.9693 131.65 25.4121 131.426 24.8044C131.202 24.1966 131.101 23.5504 131.13 22.9033C131.101 22.2558 131.202 21.609 131.425 21.0006C131.649 20.3923 131.992 19.8346 132.433 19.36C132.865 18.9169 133.384 18.5693 133.958 18.3397C134.533 18.11 135.149 18.0034 135.767 18.0267C136.384 18.0064 136.999 18.1145 137.573 18.344C138.147 18.5735 138.667 18.9194 139.1 19.36C139.545 19.8324 139.892 20.3894 140.118 20.9981C140.344 21.6068 140.446 22.2546 140.417 22.9033C140.445 23.5515 140.344 24.1988 140.117 24.8069ZM162.433 16.6367C163.627 17.7878 164.222 19.4956 164.22 21.76V30.72H160.553V22.2267C160.553 20.8622 160.231 19.8333 159.587 19.14C158.942 18.4467 158.026 18.1 156.837 18.1C155.49 18.1 154.426 18.5044 153.643 19.3133C152.863 20.1267 152.473 21.29 152.473 22.8133V30.72H148.807V9H152.473V16.9C153.098 16.2426 153.864 15.7364 154.713 15.42C155.664 15.0688 156.67 14.8959 157.683 14.91C159.672 14.91 161.256 15.4856 162.433 16.6367ZM167.815 29.439C167.936 29.7391 168.118 30.0107 168.35 30.2367C168.572 30.4596 168.837 30.6353 169.128 30.7533C169.42 30.8713 169.732 30.9291 170.047 30.9233C170.524 30.926 170.991 30.7871 171.389 30.5242C171.788 30.2614 172.099 29.8864 172.284 29.4466C172.469 29.0069 172.52 28.5221 172.43 28.0535C172.339 27.585 172.112 27.1537 171.777 26.8142C171.442 26.4747 171.013 26.2422 170.546 26.1461C170.078 26.0501 169.593 26.0947 169.151 26.2744C168.709 26.4541 168.33 26.7608 168.062 27.1558C167.795 27.5507 167.65 28.0162 167.647 28.4933C167.637 28.8168 167.694 29.1388 167.815 29.439ZM191 15.0833V30.72H187.527V28.7C186.931 29.4337 186.161 30.0066 185.287 30.3667C184.35 30.749 183.345 30.9384 182.333 30.9233C180.909 30.9458 179.503 30.6014 178.25 29.9233C177.063 29.2738 176.088 28.2974 175.44 27.11C174.749 25.8151 174.405 24.3638 174.44 22.8967C174.403 21.4325 174.748 19.984 175.44 18.6933C176.093 17.5135 177.067 16.5436 178.25 15.8967C179.503 15.2186 180.909 14.8742 182.333 14.8967C183.291 14.8846 184.242 15.0636 185.13 15.4233C185.979 15.775 186.738 16.314 187.35 17V15.0833H191ZM186.093 26.4433C186.542 25.9728 186.891 25.4169 187.12 24.8088C187.349 24.2006 187.453 23.5526 187.427 22.9033C187.453 22.2535 187.349 21.6049 187.12 20.9962C186.891 20.3875 186.542 19.831 186.093 19.36C185.66 18.9194 185.14 18.5735 184.566 18.344C183.993 18.1145 183.378 18.0064 182.76 18.0267C182.142 18.0034 181.526 18.11 180.952 18.3397C180.378 18.5693 179.858 18.9169 179.427 19.36C178.985 19.8346 178.642 20.3923 178.419 21.0006C178.195 21.609 178.095 22.2558 178.123 22.9033C178.095 23.5504 178.195 24.1966 178.419 24.8044C178.643 25.4121 178.985 25.9693 179.427 26.4433C179.858 26.8864 180.378 27.234 180.952 27.4637C181.526 27.6933 182.142 27.8 182.76 27.7767C183.378 27.7969 183.993 27.6888 184.566 27.4593C185.14 27.2299 185.66 26.8839 186.093 26.4433ZM195.505 11.162C195.62 11.4312 195.788 11.6744 196 11.8767C196.45 12.3006 197.049 12.5305 197.667 12.5167C197.975 12.5239 198.282 12.4686 198.568 12.354C198.855 12.2394 199.115 12.068 199.333 11.85C199.55 11.6388 199.72 11.3855 199.835 11.1057C199.95 10.8259 200.006 10.5256 200 10.2233C200.007 9.93856 199.951 9.65578 199.836 9.39529C199.72 9.1348 199.549 8.90304 199.333 8.71667C198.873 8.31351 198.278 8.09918 197.667 8.11667C197.051 8.10064 196.453 8.32545 196 8.74333C195.788 8.94564 195.62 9.18877 195.505 9.45804C195.389 9.72731 195.33 10.0171 195.33 10.31C195.33 10.6029 195.389 10.8927 195.505 11.162ZM199.493 15.0833H195.827V30.72H199.493V15.0833Z" fill="#0F3057"/>
<path d="M19.52 5.58C21.0609 5.58 22.31 4.33087 22.31 2.79C22.31 1.24913 21.0609 0 19.52 0C17.9791 0 16.73 1.24913 16.73 2.79C16.73 4.33087 17.9791 5.58 19.52 5.58Z" fill="#0F3057"/>
<path d="M19.52 22.31C21.0609 22.31 22.31 21.0609 22.31 19.52C22.31 17.9791 21.0609 16.73 19.52 16.73C17.9791 16.73 16.73 17.9791 16.73 19.52C16.73 21.0609 17.9791 22.31 19.52 22.31Z" fill="#008891"/>
<path d="M8.36667 9.76C9.13619 9.76 9.76 9.13619 9.76 8.36667C9.76 7.59715 9.13619 6.97334 8.36667 6.97334C7.59715 6.97334 6.97334 7.59715 6.97334 8.36667C6.97334 9.13619 7.59715 9.76 8.36667 9.76Z" fill="#00587A"/>
<path d="M30.6733 32.0667C31.4428 32.0667 32.0667 31.4428 32.0667 30.6733C32.0667 29.9038 31.4428 29.28 30.6733 29.28C29.9038 29.28 29.28 29.9038 29.28 30.6733C29.28 31.4428 29.9038 32.0667 30.6733 32.0667Z" fill="#00587A"/>
<path d="M8.36667 32.0667C9.13619 32.0667 9.76 31.4428 9.76 30.6733C9.76 29.9038 9.13619 29.28 8.36667 29.28C7.59715 29.28 6.97334 29.9038 6.97334 30.6733C6.97334 31.4428 7.59715 32.0667 8.36667 32.0667Z" fill="#00587A"/>
<path d="M30.6733 9.76C31.4428 9.76 32.0667 9.13619 32.0667 8.36667C32.0667 7.59715 31.4428 6.97334 30.6733 6.97334C29.9038 6.97334 29.28 7.59715 29.28 8.36667C29.28 9.13619 29.9038 9.76 30.6733 9.76Z" fill="#00587A"/>
<path d="M2.79 22.31C4.33087 22.31 5.58 21.0609 5.58 19.52C5.58 17.9791 4.33087 16.73 2.79 16.73C1.24913 16.73 0 17.9791 0 19.52C0 21.0609 1.24913 22.31 2.79 22.31Z" fill="#0F3057"/>
<path d="M36.25 22.31C37.7909 22.31 39.04 21.0609 39.04 19.52C39.04 17.9791 37.7909 16.73 36.25 16.73C34.7091 16.73 33.46 17.9791 33.46 19.52C33.46 21.0609 34.7091 22.31 36.25 22.31Z" fill="#0F3057"/>
<path d="M19.52 39.04C21.0609 39.04 22.31 37.7909 22.31 36.25C22.31 34.7091 21.0609 33.46 19.52 33.46C17.9791 33.46 16.73 34.7091 16.73 36.25C16.73 37.7909 17.9791 39.04 19.52 39.04Z" fill="#0F3057"/>
</g>
<defs>
<clipPath id="clip0">
<rect width="200" height="39.04" fill="white"/>
</clipPath>
</defs>
</svg>
